<svg><defs><font id="Ionicons" horiz-adv-x="448"><font-face ascent="448" bbox="-0.54049 -64 512.487 448" descent="-64" font-family="Ionicons" font-weight="500" panose-1="2 0 6 3 0 0 0 0 0 0" underline-position="-51.2" underline-thickness="25.6" unicode-range="U+F100-F4F7" units-per-em="512"/><glyph d="M445 26c3-5 5-13 2-18s-8-8-14-8H15C9 0 4 3 1 8S0 21 3 26l207 349c3 5 8 9 14 9s11-4 14-9zM256 48v48h-64V48h64zm0 80v144h-64V128h64z" glyph-name="ion-alert-circled" unicode=""/><glyph d="M128-32H0v96h128v-96zm-16 160H16L0 416h128z" glyph-name="ion-alert" horiz-adv-x="128" unicode=""/><glyph d="M208 400c115 0 208-93 208-208S323-16 208-16 0 77 0 192s93 208 208 208zm107-229v42h-86v86h-42v-86h-86v-42h86V85h42v86h86z" glyph-name="ion-android-add-circle" horiz-adv-x="416" unicode=""/><glyph d="M320 171H181V32h-42v139H0v42h139v139h42V213h139v-42z" glyph-name="ion-android-add" horiz-adv-x="320" unicode=""/><glyph d="M428 323l-28-33-98 82 28 33zm-303 50l-97-83-28 33 97 83zm100-98V164l85-50-16-27-101 61v127h32zm-11 85c106 0 193-86 193-191S320-22 214-22C107-22 21 64 21 169s86 191 193 191zm0-340c82 0 150 66 150 149 0 82-68 149-150 149S64 251 64 169 132 20 214 20z" glyph-name="ion-android-alarm-clock" horiz-adv-x="428" unicode=""/><glyph d="M208 400c114 0 208-94 208-208S322-16 208-16 0 78 0 192s94 208 208 208zm24-312v40h-48V88h48zm0 88v128h-48V176h48z" glyph-name="ion-android-alert" horiz-adv-x="416" unicode=""/><glyph d="M0 272v80h80v-80H0zM120 32v80h80V32h-80zM0 32v80h80V32H0zm0 120v80h80v-80H0zm120 0v80h80v-80h-80zm120 200h80v-80h-80v80zm-120-80v80h80v-80h-80zm120-120v80h80v-80h-80zm0-120v80h80V32h-80z" glyph-name="ion-android-apps" horiz-adv-x="320" unicode=""/><glyph d="M406 348c7-7 10-17 10-29V30c0-25-21-46-46-46H46C21-16 0 5 0 30v289c0 12 3 22 10 29l33 39c6 8 16 13 26 13h278c10 0 20-5 26-13zM208 65l127 127h-81v46h-92v-46H81zM49 354h317l-22 23H67z" glyph-name="ion-android-archive" horiz-adv-x="416" unicode=""/><glyph d="M342 213v-42H82L201 51l-30-30L0 192l171 171 31-30L82 213h260z" glyph-name="ion-android-arrow-back" horiz-adv-x="342" unicode=""/><glyph d="M192 363V103l120 120 30-31L171 21 0 192l30 30 120-119v260h42z" glyph-name="ion-android-arrow-down" horiz-adv-x="342" unicode=""/><glyph d="M208 400c115 0 208-93 208-208S323-16 208-16 0 77 0 192s93 208 208 208zm0-272l96 96H112z" glyph-name="ion-android-arrow-dropdown-circle" horiz-adv-x="416" unicode=""/><glyph d="M0 256h256L128 128z" glyph-name="ion-android-arrow-dropdown" horiz-adv-x="256" unicode=""/><glyph d="M416 192c0-115-93-208-208-208S0 77 0 192s93 208 208 208 208-93 208-208zm-272 0l96-96v192z" glyph-name="ion-android-arrow-dropleft-circle" horiz-adv-x="416" unicode=""/><glyph d="M128 320V64L0 192z" glyph-name="ion-android-arrow-dropleft" horiz-adv-x="128" unicode=""/><glyph d="M208-16C93-16 0 77 0 192s93 208 208 208 208-93 208-208S323-16 208-16zM176 96l96 96-96 96V96z" glyph-name="ion-android-arrow-dropright-circle" horiz-adv-x="416" unicode=""/><glyph d="M0 320l128-128L0 64v256z" glyph-name="ion-android-arrow-dropright" horiz-adv-x="128" unicode=""/><glyph d="M416 192c0-115-93-208-208-208S0 77 0 192s93 208 208 208 208-93 208-208zm-112-32l-96 96-96-96h192z" glyph-name="ion-android-arrow-dropup-circle" horiz-adv-x="416" unicode=""/><glyph d="M0 128l128 128 128-128H0z" glyph-name="ion-android-arrow-dropup" horiz-adv-x="256" unicode=""/><glyph d="M0 171v42h260L141 333l30 30 171-171L171 21l-31 30 120 120H0z" glyph-name="ion-android-arrow-forward" horiz-adv-x="342" unicode=""/><glyph d="M192 21h-42v260L30 162 0 192l171 171 171-171-30-31-120 120V21z" glyph-name="ion-android-arrow-up" horiz-adv-x="342" unicode=""/><glyph d="M203 320h32V85c0-65-53-117-118-117S0 20 0 85v246c0 47 38 85 85 85s86-38 86-85V85c0-30-24-53-54-53S64 55 64 85v203h32V85c0-12 9-21 21-21s22 9 22 21v246c0 30-24 53-54 53s-53-23-53-53V85c0-47 38-85 85-85s86 38 86 85v235z" glyph-name="ion-android-attach" horiz-adv-x="235" unicode=""/><glyph d="M171 171L0 341v43h384v-43L213 171V40h107V0H64v40h107v131zM96 299h192l43 42H53z" glyph-name="ion-android-bar" horiz-adv-x="384" unicode=""/><glyph d="M299 317c-19 0-34 14-34 33s15 34 34 34 33-15 33-34-14-33-33-33zm56-130c51 0 93-43 93-94S406 0 355 0s-94 42-94 93 43 94 94 94zm0-159c36 0 65 29 65 65s-29 66-65 66-66-30-66-66 30-65 66-65zm-81 196l-30 45-43-45 39-32V80h-32v86l-61 38c-9 6-19 15-19 27 0 8 3 17 9 23l72 69c6 6 14 9 22 9 11 0 22-7 28-16l34-60h59v-32h-78zM93 187c51 0 94-43 94-94S144 0 93 0 0 42 0 93s42 94 93 94zm0-159c36 0 66 29 66 65s-30 66-66 66-65-30-65-66 29-65 65-65z" glyph-name="ion-android-bicycle" unicode=""/><glyph d="M52 35L1 174c-2 6-1 12 1 17s8 8 13 10l38 13v98c0 23 20 43 43 43h64l16 53h96l16-53h64c23 0 43-20 43-43v-98l38-13c5-2 11-5 13-10s3-12 1-17L396 35h-1c-34 0-65 20-86 43-21-23-51-43-85-43s-64 19-85 42c-21-23-52-42-86-42h-1zm44 277v-84l128 41 128-41v84H96zM309 40s59-64 107-64h-21c-30 0-59 12-86 26-53-28-117-28-170 0-27-14-56-26-86-26H32c49 0 107 64 107 64 52-36 118-36 170 0z" glyph-name="ion-android-boat" unicode=""/><glyph d="M248 384c22 0 40-18 40-40V0L144 64 0 0v344c0 22 18 40 40 40h208z" glyph-name="ion-android-bookmark" horiz-adv-x="288" unicode=""/><glyph d="M224 278c-25 0-50-10-68-28s-28-43-28-68c0-34 18-66 48-83l16-10V0h64v89l16 10c15 8 27 20 35 34 9 15 13 31 13 49 0 25-10 50-28 68s-43 28-68 28zm21 138v-64h-42v64h42zm129-54l30-30-38-38-30 30zm-300 0l38-38-30-30-38 38zm150-52c70 0 128-58 128-128 0-48-26-89-64-111V-32H160V71c-38 22-64 64-64 111 0 70 58 128 128 128zm224-107v-42h-64v42h64zm-384 0v-42H0v42h64z" glyph-name="ion-android-bulb" unicode=""/><glyph d="M0 96v204c0 75 82 84 176 84s176-9 176-84V96c0-18-14-24-27-36V21c0-12-9-21-21-21h-21c-12 0-22 9-22 21v22H91V21C91 9 81 0 69 0H48C36 0 27 9 27 21v39C14 72 0 77 0 96zm80-16c18 0 32 14 32 32s-14 32-32 32-32-14-32-32 14-32 32-32zm192 0c18 0 32 14 32 32s-14 32-32 32-32-14-32-32 14-32 32-32zm32 123v106H48V203h256z" glyph-name="ion-android-bus" horiz-adv-x="352" unicode=""/><glyph d="M304 176V80h-96v96h96zm-32 208h48v-32h24c22 0 40-18 40-40V40c0-22-18-40-40-40H40C18 0 0 18 0 40v272c0 22 18 40 40 40h24v32h48v-32h160v32zm72-344v212H40V40h304z" glyph-name="ion-android-calendar" horiz-adv-x="384" unicode=""/><glyph d="M363 117c12 0 21-9 21-21V21c0-12-9-21-21-21C162 0 0 162 0 363c0 12 9 21 21 21h75c12 0 21-9 21-21 0-27 4-52 13-77 2-7 0-16-5-21l-47-47c31-61 80-110 141-141l47 47c5 6 14 7 21 5 23-7 49-12 76-12z" glyph-name="ion-android-call" horiz-adv-x="384" unicode=""/><glyph d="M161 168c0 42 21 63 63 63s63-21 63-63-21-63-63-63-63 21-63 63zm247 184c11 0 20-4 28-12s12-17 12-28V40c0-11-4-20-12-28S419 0 408 0H40C29 0 20 4 12 12S0 29 0 40v272c0 11 4 20 12 28s17 12 28 12h88l32 32h128l32-32h88zM224 56c31 0 57 11 79 33s33 48 33 79-11 57-33 79-48 33-79 33-57-11-79-33-33-48-33-79 11-57 33-79 48-33 79-33z" glyph-name="ion-android-camera" unicode=""/><glyph d="M208 400c115 0 208-93 208-208S323-16 208-16 0 77 0 192s93 208 208 208zm104-283l-75 75 75 75-29 29-75-75-75 75-29-29 75-75-75-75 29-29 75 75 75-75z" glyph-name="ion-android-cancel" horiz-adv-x="416" unicode=""/><glyph d="M339 331l45-118V53c0-12-9-21-21-21h-22c-12 0-21 9-21 21v11H64V53c0-12-9-21-21-21H21C9 32 0 41 0 53v160l45 118c4 13 16 21 30 21h234c14 0 26-8 30-21zM75 128c18 0 32 14 32 32s-14 32-32 32-32-14-32-32 14-32 32-32zm234 0c18 0 32 14 32 32s-14 32-32 32-32-14-32-32 14-32 32-32zM43 235h298l-32 85H75z" glyph-name="ion-android-car" horiz-adv-x="384" unicode=""/><glyph d="M122 70c23 0 41-18 41-41s-18-42-41-42S80 6 80 29s19 41 42 41zM0 397h68l19-42h308c11 0 21-9 21-20 0-4-1-8-2-10l-75-129c-7-14-20-22-36-22H148l-21-32s-2-5-2-6c0-3 2-5 5-5h238V91H125c-26 0-45 14-45 42 0 7 2 15 5 20l31 51-74 151H0v42zM326 70c23 0 42-18 42-41s-19-42-42-42-41 19-41 42 18 41 41 41z" glyph-name="ion-android-cart" horiz-adv-x="416" unicode=""/><glyph d="M344 384c4 0 7-4 7-8V162c0-4-3-9-7-9H157L67 64v89H10c-4 0-10 5-10 9v214c0 4 6 8 10 8h334zm64-63c4 0 8-5 8-9V98c0-4-4-9-8-9h-57V0l-90 89H131l39 39h181c18 0 25 10 25 26v167h32z" glyph-name="ion-android-chat" horiz-adv-x="416" unicode=""/><glyph d="M341 384c23 0 43-20 43-43V43c0-23-20-43-43-43H43C20 0 0 20 0 43v298c0 23 20 43 43 43h298z" glyph-name="ion-android-checkbox-blank" horiz-adv-x="384" unicode=""/><glyph d="M341 341H43V43h298v298zm0 43c23 0 43-20 43-43V43c0-23-20-43-43-43H43C20 0 0 20 0 43v298c0 23 20 43 43 43h298z" glyph-name="ion-android-checkbox-outline-blank" horiz-adv-x="384" unicode=""/><glyph d="M105 233l66-66 183 183 30-30-213-213-96 96zM341 43v170h43V43c0-23-20-43-43-43H43C20 0 0 20 0 43v298c0 23 20 43 43 43h213v-43H43V43h298z" glyph-name="ion-android-checkbox-outline" horiz-adv-x="384" unicode=""/><glyph d="M341 384c23 0 43-20 43-43V43c0-23-20-43-43-43H43C20 0 0 20 0 43v298c0 23 20 43 43 43h298zM149 85l192 192-30 30-162-162-76 77-30-30z" glyph-name="ion-android-checkbox" horiz-adv-x="384" unicode=""/><glyph d="M123 232l64-64 179 178 29-29-208-208-93 93zm251-40h42c0-114-94-208-208-208S0 78 0 192s94 208 208 208c28 0 54-6 78-16l-32-32c-15 4-30 6-46 6-92 0-166-74-166-166S116 26 208 26s166 74 166 166z" glyph-name="ion-android-checkmark-circle" horiz-adv-x="416" unicode=""/><glyph d="M341 368c23 0 43-20 43-43V11c0-23-20-43-43-43H43C20-32 0-12 0 11v314c0 23 20 43 43 43h87c7 28 32 48 62 48s55-20 62-48h87zm-149 0c-12 0-21-9-21-21s9-22 21-22 21 10 21 22-9 21-21 21zM344 8v320h-40v-72H80v72H40V8h304z" glyph-name="ion-android-clipboard" horiz-adv-x="384" unicode=""/><glyph d="M298 311L179 192 298 73l-30-30-119 119L30 43 0 73l119 119L0 311l30 30 119-119 119 119z" glyph-name="ion-android-close" horiz-adv-x="298" unicode=""/><glyph d="M208 400c114 0 208-94 208-208S322-16 208-16 0 78 0 192s94 208 208 208zm94-291c29 0 52 23 52 52s-23 52-52 52h-11c0 46-37 83-83 83-38 0-71-26-80-62h-3c-34 0-63-29-63-63s29-62 63-62h177z" glyph-name="ion-android-cloud-circle" horiz-adv-x="416" unicode=""/><glyph d="M387 231c52-3 93-46 93-99 0-55-45-100-100-100H120C54 32 0 86 0 152c0 62 47 113 107 119 25 48 75 81 133 81 73 0 133-52 147-121zM197 85l141 141-30 30-111-111-44 45-30-30z" glyph-name="ion-android-cloud-done" horiz-adv-x="480" unicode=""/><glyph d="M387 231c52-3 93-46 93-99 0-55-45-100-100-100H120C54 32 0 86 0 152c0 62 47 113 107 119 25 48 75 81 133 81 73 0 133-52 147-121zm-7-159c33 0 60 27 60 60s-27 60-60 60h-30v10c0 61-49 110-110 110-51 0-93-34-106-80h-14c-44 0-80-36-80-80s36-80 80-80h260z" glyph-name="ion-android-cloud-outline" horiz-adv-x="480" unicode=""/><glyph d="M387 231c52-3 93-46 93-99 0-55-45-100-100-100H120C54 32 0 86 0 152c0 62 47 113 107 119 25 48 75 81 133 81 73 0 133-52 147-121z" glyph-name="ion-android-cloud" horiz-adv-x="480" unicode=""/><glyph d="M192 384c106 0 192-77 192-171 0-59-48-106-107-106h-38c-18 0-32-14-32-32 0-9 3-17 8-22s9-12 9-21c0-18-14-32-32-32C86 0 0 86 0 192s86 192 192 192zM75 192c18 0 32 14 32 32s-14 32-32 32-32-14-32-32 14-32 32-32zm64 85c18 0 32 14 32 32s-14 32-32 32-32-14-32-32 14-32 32-32zm106 0c18 0 32 14 32 32s-14 32-32 32-32-14-32-32 14-32 32-32zm64-85c18 0 32 14 32 32s-14 32-32 32-32-14-32-32 14-32 32-32z" glyph-name="ion-android-color-palette" horiz-adv-x="384" unicode=""/><glyph d="M224 217c13 0 25-12 25-25s-12-25-25-25-25 12-25 25 12 25 25 25zm0 199c123 0 224-101 224-224S347-32 224-32 0 69 0 192s101 224 224 224zm49-273l85 183-183-85L90 58z" glyph-name="ion-android-compass" unicode=""/><glyph d="M267 110C326 92 371 52 384 0H0c13 52 58 92 117 110 22-13 48-20 75-20s53 7 75 20zm-75 274c73 0 132-59 132-132s-59-132-132-132S60 179 60 252s59 132 132 132zm0-231c42 0 78 26 92 63H100c14-37 50-63 92-63z" glyph-name="ion-android-contact" horiz-adv-x="384" unicode=""/><glyph d="M207 104c47-14 76-62 87-104H0c11 42 40 90 87 104 18-10 38-16 60-16s42 6 60 16zm-60 224c58 0 106-48 106-106s-48-106-106-106S41 164 41 222s48 106 106 106zm0-187c34 0 62 23 74 51H73c12-28 40-51 74-51zm144-77c-13 20-34 43-60 53 11 9 21 23 28 35 13-5 27-8 42-8 22 0 42 6 60 16 47-14 76-54 87-96H291zm-16 184c-8 37-31 69-63 87 19 29 52 49 89 49 58 0 106-48 106-106s-48-106-106-106c-11 0-22 2-32 5 3 8 6 16 7 25 8-3 16-4 25-4 34 0 62 22 74 50H275z" glyph-name="ion-android-contacts" unicode=""/><glyph d="M0 77v51h128V0H77v77H0zm77 230v77h51V256H0v51h77zM256 0v128h128V77h-77V0h-51zm51 307h77v-51H256v128h51v-77z" glyph-name="ion-android-contract" horiz-adv-x="384" unicode=""/><glyph d="M0 80l236 236 80-80L80 0H0v80zm378 218l-40-40-80 80 40 40c9 9 20 9 29 0l51-51c9-9 9-20 0-29z" glyph-name="ion-android-create" horiz-adv-x="384" unicode=""/><glyph d="M32 43v245h256V43c0-23-20-43-43-43H75C52 0 32 20 32 43zm288 309v-32H0v32h80l27 32h106l27-32h80z" glyph-name="ion-android-delete" horiz-adv-x="320" unicode=""/><glyph d="M405 416c23 0 43-20 43-43V91c0-23-20-43-43-43H267l42-48v-32H139V0l42 48H43C20 48 0 68 0 91v282c0 23 20 43 43 43h362zm0-288v245H43V128h362z" glyph-name="ion-android-desktop" unicode=""/><glyph d="M192 400l128-128V24c0-22-18-40-40-40H40C18-16 0 2 0 24v336c0 22 18 40 40 40h152zm-16-144h112L176 368V256z" glyph-name="ion-android-document" horiz-adv-x="320" unicode=""/><glyph d="M388 308L248 169l-31 31 140 139zm93 31l31-31L248 45 126 168l30 31 92-91zM0 168l32 31L154 76l-31-31z" glyph-name="ion-android-done-all" horiz-adv-x="512" unicode=""/><glyph d="M122 108l230 230 32-31L122 46 0 168l32 31z" glyph-name="ion-android-done" horiz-adv-x="384" unicode=""/><glyph d="M387 231c52-3 93-46 93-99 0-55-45-100-100-100H120C54 32 0 86 0 152c0 62 47 113 107 119 25 48 75 81 133 81 73 0 133-52 147-121zm-179-51h-68L240 80l100 100h-68v76h-64v-76z" glyph-name="ion-android-download" horiz-adv-x="480" unicode=""/><glyph d="M448 246V43c0-23-20-43-43-43H43C20 0 0 20 0 43v203c0 15 8 30 20 37l204 101 204-101c13-7 20-22 20-37zM224 144l171 112-171 85-171-85z" glyph-name="ion-android-drafts" unicode=""/><glyph d="M151 115l55 56H0v42h207l-56 56 30 30 107-107L181 85zm190 269c23 0 43-20 43-43V43c0-23-20-43-43-43H43C20 0 0 20 0 43v85h43V43h298v298H43v-85H0v85c0 23 20 43 43 43h298z" glyph-name="ion-android-exit" horiz-adv-x="384" unicode=""/><glyph d="M333 51v77h51V0H256v51h77zm0 282h-77v51h128V256h-51v77zm-282 0v-77H0v128h128v-51H51zm0-282h77V0H0v128h51V51z" glyph-name="ion-android-expand" horiz-adv-x="384" unicode=""/><glyph d="M302 384c64 0 114-50 114-115 0-80-71-144-178-242L208 0l-30 27C71 125 0 189 0 269c0 65 50 115 114 115 36 0 71-17 94-44 23 27 58 44 94 44zM221 55c50 46 94 86 123 122 28 35 40 63 40 92 0 23-9 44-24 59s-35 24-58 24c-26 0-53-13-70-33l-24-29-24 29c-17 20-44 33-70 33-23 0-43-9-58-24s-24-36-24-59c0-29 12-57 40-92 29-36 73-76 123-122l4-4 9-8 9 8z" glyph-name="ion-android-favorite-outline" horiz-adv-x="416" unicode=""/><glyph d="M208 0l-30 27C71 125 0 189 0 269c0 65 50 115 114 115 36 0 71-17 94-44 23 27 58 44 94 44 64 0 114-50 114-115 0-80-71-144-178-242z" glyph-name="ion-android-favorite" horiz-adv-x="416" unicode=""/><glyph d="M280 384h40V0h-40v43h-40V0H80v43H40V0H0v384h40v-43h40v43h160v-43h40v43zM80 85v43H40V85h40zm0 86v42H40v-42h40zm0 85v43H40v-43h40zM280 85v43h-40V85h40zm0 86v42h-40v-42h40zm0 85v43h-40v-43h40z" glyph-name="ion-android-film" horiz-adv-x="320" unicode=""/><glyph d="M405 304c23 0 43-20 43-43V75c0-23-20-43-43-43H43C20 32 0 52 0 75v234c0 23 20 43 43 43h138l43-48h181zm11-229v186c0 6-5 11-11 11H32V75c0-6 5-11 11-11h362c6 0 11 5 11 11z" glyph-name="ion-android-folder-open" unicode=""/><glyph d="M181 352l43-48h181c23 0 43-20 43-43V75c0-23-20-43-43-43H43C20 32 0 52 0 75v234c0 23 20 43 43 43h138z" glyph-name="ion-android-folder" unicode=""/><glyph d="M176 48v48h96V48h-96zM0 336h448v-48H0v48zm80-169v50h288v-50H80z" glyph-name="ion-android-funnel" unicode=""/><glyph d="M208 400c115 0 208-93 208-208S323-16 208-16 0 77 0 192s93 208 208 208zM186 15c6 15 21 29 8 39-8 7-16 14-23 21-2 2-11 20-9 23 5 9 6 14 8 24 3 12-3 16-13 22-15 10-29 23-43 34-7 5-17 10-20 19s-5 20-10 28c-14 20-12 34-10 58 0 7-1 16-2 25-28-32-42-73-42-116 0-48 18-92 52-126 29-29 65-46 104-51zm148 51c23 23 39 51 47 82-8-1-19 2-19 2s-21 24-23 45c-2 22 0 39-3 57-3 16-20 31-27 46-7 14-13 28-20 42 2-1 5-2 7-3 5 1 10 2 14 2-23 16-49 25-76 29v-8l4-9-14-13-9 3-10 10-10 12-14 5c-16-2-31-7-45-13v-7c7 3 16 5 23 8 3 1 13-7 16-9-4-5-21-15-22-21 0-2 7-6 7-10 0-6-1-11-1-17 3 3 20 21 22 21 13 3 35-19 37-26s-22-24-33-34c-8-8-25-12-20-24 2-4 10-20 5-24-6-5-14 9-17 12-8 10-26 7-38 7 0-17-1-31 15-43 15-11 30-25 47-33 13-6 36 7 47-1 16-11 29-21 47-29 8-3 33-20 26-31-5-8-10-15-14-23s-13-20-20-25c-8-6-16-17-21-29 35 7 66 23 92 49z" glyph-name="ion-android-globe" horiz-adv-x="416" unicode=""/><glyph d="M401 174c15-15 18-36 3-51 0 0-96-103-126-121-28-21-65-34-100-34C123-32 77 4 61 53v1c0 1-1 2-1 3L2 246c-5 15 2 32 17 37s30-3 35-18l34-88c1-4 2-2 2 1L68 339c-3 15 7 30 22 33s30-8 33-23l25-138c0-2 2-2 2 0v177c0 15 13 28 28 28s28-13 28-28l8-175c0-5 3-4 4-1l23 135c2 15 16 27 31 25s27-17 25-32l-21-172c-1-12-3-30 2-36 8-9 20-9 31 2l42 42c15 15 35 13 50-2z" glyph-name="ion-android-hand" horiz-adv-x="414" unicode=""/><glyph d="M176 400c97 0 176-77 176-172 0-91-76-196-176-244v71C79 55 0 133 0 228s79 172 176 172zm-10-183v61h-62v-61h31l-21-40h31zm82 0v61h-62v-61h31l-20-40h31z" glyph-name="ion-android-hangout" horiz-adv-x="352" unicode=""/><glyph d="M208 400c114 0 208-94 208-208S323-16 208-16 0 78 0 192s93 208 208 208zm0-374c92 0 166 74 166 166s-74 166-166 166S42 284 42 192 116 26 208 26zm73 187c-18 0-31 13-31 31s13 31 31 31 31-13 31-31-13-31-31-31zm-146 0c-18 0-31 13-31 31s13 31 31 31 31-13 31-31-13-31-31-31zm73-135c-49 0-89 29-106 72h212c-17-43-57-72-106-72z" glyph-name="ion-android-happy" horiz-adv-x="416" unicode=""/><glyph d="M160 0H62v192H0l208 192 208-192h-62V0h-98v128h-96V0z" glyph-name="ion-android-home" horiz-adv-x="416" unicode=""/><glyph d="M384 43c0-23-20-43-43-43H43C20 0 0 20 0 43v298c0 23 20 43 43 43h298c23 0 43-20 43-43V43zM117 160L43 64h298l-96 128-74-96z" glyph-name="ion-android-image" horiz-adv-x="384" unicode=""/><glyph d="M437 32h75c0-23-64-32-96-32H96C64 0 0 9 0 32h75c-23 0-43 20-43 43v266c0 23 20 43 43 43h362c23 0 43-20 43-43V75c0-23-20-43-43-43zM75 341V69h362v272H75zM256 13c12 0 21 10 21 22s-9 21-21 21-21-9-21-21 9-22 21-22z" glyph-name="ion-android-laptop" horiz-adv-x="512" unicode=""/><glyph d="M344 384c22 0 40-18 40-40V40c0-22-18-40-40-40H40C18 0 0 18 0 40v304c0 22 18 40 40 40h304zM240 80v48H80V80h160zm64 88v48H80v-48h224zm0 88v48H80v-48h224z" glyph-name="ion-android-list" horiz-adv-x="384" unicode=""/><glyph d="M224 272c44 0 80-36 80-80s-36-80-80-80-80 36-80 80 36 80 80 80zm191-59h33v-42h-33C405 82 334 11 245 1v-33h-42V1C114 11 43 82 33 171H0v42h33c10 89 81 160 170 170v33h42v-33c89-10 160-81 170-170zM224 43c82 0 149 67 149 149s-67 149-149 149S75 274 75 192 142 43 224 43z" glyph-name="ion-android-locate" unicode=""/><glyph d="M280 262c22 0 40-18 40-40V22c0-22-18-40-40-40H40C18-18 0 0 0 22v200c0 22 18 40 40 40h20v40c0 55 45 100 100 100s100-45 100-100v-40h20zM160 80c22 0 40 18 40 40s-18 40-40 40-40-18-40-40 18-40 40-40zm62 182v40c0 34-28 62-62 62s-62-28-62-62v-40h124z" glyph-name="ion-android-lock" horiz-adv-x="320" unicode=""/><glyph d="M405 368c23 0 43-20 43-43V59c0-23-20-43-43-43H43C20 16 0 36 0 59v266c0 23 20 43 43 43h362zm-5-91v43L224 203 48 320v-43l176-117z" glyph-name="ion-android-mail" unicode=""/><glyph d="M373 384c6 0 11-5 11-11V51c0-5-3-9-7-10L256 0 128 45S23 4 20 3s-7-3-9-3C5 0 0 5 0 11v322c0 5 3 9 7 10l121 41 128-45s103 40 108 42 7 3 9 3zM256 43v254l-128 44V87z" glyph-name="ion-android-map" horiz-adv-x="384" unicode=""/><glyph d="M0 64v43h384V64H0zm0 107v42h384v-42H0zm0 149h384v-43H0v43z" glyph-name="ion-android-menu" horiz-adv-x="384" unicode=""/><glyph d="M316 93l58-58-58 58 58-58 34-33-24-24-95 95c-19-11-40-20-62-23v-82h-46v82C106 60 44 126 44 203h39c0-68 58-117 121-117 20 0 40 5 57 14l-32 33c-8-3-16-5-25-5-38 0-69 31-69 69v29L0 360l24 24 111-110 140-140 5-5 9-9zm-43 104c0-4 0-8-1-12L135 322v25c0 38 31 69 69 69s69-31 69-69V197zm92 6c0-31-10-60-27-84l-27 28c9 17 15 36 15 56h39zM408 2l-34 33z" glyph-name="ion-android-microphone-off" horiz-adv-x="408" unicode=""/><glyph d="M160 128c-38 0-69 31-69 69v150c0 38 31 69 69 69s69-31 69-69V197c0-38-31-69-69-69zm121 75h39c0-78-62-142-137-153v-82h-46v82C62 60 0 125 0 203h39c0-69 58-116 121-116s121 47 121 116z" glyph-name="ion-android-microphone" horiz-adv-x="320" unicode=""/><glyph d="M40 232c22 0 40-18 40-40s-18-40-40-40-40 18-40 40 18 40 40 40zm240 0c22 0 40-18 40-40s-18-40-40-40-40 18-40 40 18 40 40 40zm-120 0c22 0 40-18 40-40s-18-40-40-40-40 18-40 40 18 40 40 40z" glyph-name="ion-android-more-horizontal" horiz-adv-x="320" unicode=""/><glyph d="M80 312c0-22-18-40-40-40S0 290 0 312s18 40 40 40 40-18 40-40zm0-240c0-22-18-40-40-40S0 50 0 72s18 40 40 40 40-18 40-40zm0 120c0-22-18-40-40-40S0 170 0 192s18 40 40 40 40-18 40-40z" glyph-name="ion-android-more-vertical" horiz-adv-x="80" unicode=""/><glyph d="M160 384L320 15 305 0 160 64 15 0 0 15z" glyph-name="ion-android-navigate" horiz-adv-x="320" unicode=""/><glyph d="M177 328h-2c-6 0-24-5-24-5-46-10-78-53-78-100V96l-9-10-8-8h240l-8 8-9 10v127c0 47-32 90-78 100 0 0-17 5-24 5zm-1 72c18 0 31-13 31-31v-15c59-14 104-68 104-131V109l41-42V46H0v21l41 42v114c0 63 45 117 104 131v15c0 18 13 31 31 31zm41-374c0-23-18-42-41-42s-41 19-41 42h82z" glyph-name="ion-android-notifications-none" horiz-adv-x="352" unicode=""/><glyph d="M182-16c-23 0-41 19-41 42h82c0-23-18-42-41-42zM57 341L352 46l12-12-24-24-36 36H6v21l41 41v115c0 23 6 44 16 63L0 350l24 24 33-33zm260-118v-94L109 336c13 8 27 15 42 18v15c0 18 13 31 31 31s31-13 31-31v-15c59-14 104-67 104-131z" glyph-name="ion-android-notifications-off" horiz-adv-x="364" unicode=""/><glyph d="M176-16c-23 0-41 19-41 42h82c0-23-18-42-41-42zm135 125l41-42V46H0v21l41 42v114c0 63 45 117 104 131v15c0 18 13 31 31 31s31-13 31-31v-15c59-14 104-68 104-131V109z" glyph-name="ion-android-notifications" horiz-adv-x="352" unicode=""/><glyph d="M341 43v133h43V43c0-23-20-43-43-43H43C20 0 0 20 0 43v298c0 23 20 43 43 43h133v-43H43V43h298zM224 384h160V224h-43v87L126 96l-30 30 215 215h-87v43z" glyph-name="ion-android-open" horiz-adv-x="384" unicode=""/><glyph d="M0 32v32h272V32H0zm368 0v32h80V32h-80zM352 0c0-18-14-32-32-32s-32 14-32 32v96c0 18 14 32 32 32s32-14 32-32V0zM0 176v32h80v-32H0zm176 0v32h272v-32H176zm-16-32c0-18-14-32-32-32s-32 14-32 32v96c0 18 14 32 32 32s32-14 32-32v-96zM0 320v32h272v-32H0zm368 0v32h80v-32h-80zm-16-32c0-18-14-32-32-32s-32 14-32 32v96c0 18 14 32 32 32s32-14 32-32v-96z" glyph-name="ion-android-options" unicode=""/><glyph d="M305 216c-34 0-61 27-61 60s27 60 61 60 62-27 62-60-28-60-62-60zm-162 0c-34 0-62 27-62 60s28 60 62 60 61-27 61-60-27-60-61-60zm0-44c48 0 145-23 145-70V48H0v54c0 47 95 70 143 70zm162-11c48 0 143-12 143-59V48H320v54c0 30-9 41-32 58 7 1 11 1 17 1z" glyph-name="ion-android-people" unicode=""/><glyph d="M288 192c-53 0-96 43-96 96s43 96 96 96 96-43 96-96-43-96-96-96zm0-48c64 0 192-32 192-96V0H96v48c0 64 128 96 192 96zM96 224h64v-32H96v-64H64v64H0v32h64v64h32v-64z" glyph-name="ion-android-person-add" horiz-adv-x="480" unicode=""/><glyph d="M192 192c-53 0-96 43-96 96s43 96 96 96 96-43 96-96-43-96-96-96zm0-48c64 0 192-32 192-96V0H0v48c0 64 128 96 192 96z" glyph-name="ion-android-person" horiz-adv-x="384" unicode=""/><glyph d="M448 89c0-23-19-41-41-41H41C19 48 0 66 0 89v206c0 23 19 41 41 41h366c22 0 41-18 41-41V89zM80 84h288v216H80V84z" glyph-name="ion-android-phone-landscape" unicode=""/><glyph d="M247 416c23 0 41-19 41-41V9c0-22-18-41-41-41H41C18-32 0-13 0 9v366c0 22 18 41 41 41h206zm5-368v288H36V48h216z" glyph-name="ion-android-phone-portrait" horiz-adv-x="288" unicode=""/><glyph d="M160 416c88 0 160-71 160-157 0-118-160-291-160-291S0 141 0 259c0 86 72 157 160 157zm0-213c32 0 57 25 57 56s-25 56-57 56-57-25-57-56 25-56 57-56z" glyph-name="ion-android-pin" horiz-adv-x="320" unicode=""/><glyph d="M384 112l-160 48V46l48-31v-31L192 0l-80-16v31l48 31v114L0 112v40l160 104v113c0 18 15 31 32 31s32-13 32-31V256l160-104v-40z" glyph-name="ion-android-plane" horiz-adv-x="384" unicode=""/><glyph d="M416 296C397 82 403-16 403-16H13s6 96-13 312h104c0 57 47 104 104 104s104-47 104-104h104zm-208 78c-43 0-78-35-78-78h156c0 43-35 78-78 78zM156 50l143 85-143 84V50z" glyph-name="ion-android-playstore" horiz-adv-x="416" unicode=""/><glyph d="M352 288c35 0 64-29 64-64V85h-80V0H80v85H0v139c0 35 29 64 64 64h288zM304 32v128H112V32h192zm32 352v-80H80v80h256z" glyph-name="ion-android-print" horiz-adv-x="416" unicode=""/><glyph d="M208 400c114 0 208-94 208-208S322-16 208-16 0 78 0 192s94 208 208 208zm0-374c92 0 166 74 166 166s-74 166-166 166S42 284 42 192 116 26 208 26z" glyph-name="ion-android-radio-button-off" horiz-adv-x="416" unicode=""/><glyph d="M208 296c57 0 104-47 104-104S265 88 208 88s-104 47-104 104 47 104 104 104zm0 104c114 0 208-94 208-208S322-16 208-16 0 78 0 192s94 208 208 208zm0-374c92 0 166 74 166 166s-74 166-166 166S42 284 42 192 116 26 208 26z" glyph-name="ion-android-radio-button-on" horiz-adv-x="416" unicode=""/><glyph d="M176 60c56 0 104 34 123 84h46C324 70 257 16 176 16 78 16 0 95 0 192s79 176 176 176c48 0 92-20 124-52l52 52V214H198l70 70c-23 24-56 40-92 40-73 0-132-59-132-132S103 60 176 60z" glyph-name="ion-android-refresh" horiz-adv-x="352" unicode=""/><glyph d="M208 400c115 0 208-93 208-208S323-16 208-16 0 77 0 192s93 208 208 208zm107-229v42H101v-42h214z" glyph-name="ion-android-remove-circle" horiz-adv-x="416" unicode=""/><glyph d="M0 171v42h320v-42H0z" glyph-name="ion-android-remove" horiz-adv-x="320" unicode=""/><glyph d="M116 168l-91 89c-34 33-34 86 0 119l153-148zm148 38l-33-31L381 30 351 0 201 146 51 0 21 30s163 159 211 207c-15 32-4 77 31 111 41 40 101 49 132 17 33-31 24-89-17-129-34-34-80-45-114-30z" glyph-name="ion-android-restaurant" horiz-adv-x="415" unicode=""/><glyph d="M208 160c45 0 83-26 102-64H106c19 38 57 64 102 64zm0 240c114 0 208-94 208-208S323-16 208-16 0 78 0 192s93 208 208 208zm0-374c92 0 166 74 166 166s-74 166-166 166S42 284 42 192 116 26 208 26zm73 187c-18 0-31 13-31 31s13 31 31 31 31-13 31-31-13-31-31-31zm-146 0c-18 0-31 13-31 31s13 31 31 31 31-13 31-31-13-31-31-31z" glyph-name="ion-android-sad" horiz-adv-x="416" unicode=""/><glyph d="M274 143L384 33 351 0 242 110v17l-7 6c-25-21-58-34-93-34C63 99 0 162 0 241s63 143 141 143c79 0 142-64 142-143 0-36-13-68-34-93l7-5h18zm-132 0c55 0 99 43 99 98s-44 99-99 99-98-44-98-99 43-98 98-98z" glyph-name="ion-android-search" horiz-adv-x="384" unicode=""/><glyph d="M0 0v149l298 43L0 235v149l416-192z" glyph-name="ion-android-send" horiz-adv-x="416" unicode=""/><glyph d="M366 171l47-34c3-3 4-10 2-14l-43-71c-2-4-7-7-12-5l-54 21c-12-8-23-16-36-21l-8-55c-1-4-6-8-11-8h-85c-5 0-10 3-11 8l-8 55c-13 5-25 13-36 21L57 47c-4-2-10 1-12 5L2 123c-3 5-2 11 2 14l45 34c0 7-1 14-1 21s1 14 1 21L3 247c-3 3-4 10-2 14l43 71c2 4 7 7 12 5l54-21c12 8 23 16 36 21l8 55c1 4 6 8 11 8h85c5 0 10-4 11-8l7-55c13-5 25-13 36-21l53 21c4 2 11-1 13-5l43-71c3-5 2-11-2-14l-45-34c0-7 1-14 1-21s0-15-1-21zm-159-52c41 0 75 32 75 73s-34 73-75 73-74-32-74-73 33-73 74-73z" glyph-name="ion-android-settings" horiz-adv-x="416" unicode=""/><glyph d="M320 104c34 0 62-28 62-62s-28-62-62-62-62 28-62 62c0 5 1 10 2 14l-152 88c-12-11-27-17-44-17-35 0-64 29-64 64s28 64 63 64c17 0 32-6 44-17l151 87c-1 5-2 10-2 15 0 35 29 64 64 64s64-29 64-64-29-64-64-64c-17 0-32 6-44 17l-151-87c1-5 2-10 2-15s-1-10-2-15l153-88c11 11 26 16 42 16z" glyph-name="ion-android-share-alt" horiz-adv-x="384" unicode=""/><glyph d="M384 200L224 53v88C117 141 53 107 0 32c21 107 75 214 224 235v85z" glyph-name="ion-android-share" horiz-adv-x="384" unicode=""/><glyph d="M404 238l-110-96L327 0 202 75 77 0l33 142L0 238l145 12 57 134 57-134zM219 103l60-36-16 68-5 19 15 12 53 46-70 6-19 2-8 18-27 64V113z" glyph-name="ion-android-star-half" horiz-adv-x="404" unicode=""/><glyph d="M404 238l-110-96L327 0 202 75 77 0l33 142L0 238l145 12 57 134 57-134zM219 103l60-36-16 68-5 19 15 12 53 46-70 6-19 2-8 18-27 64-27-64-8-18-19-2-70-6 53-46 15-12-5-19-16-68 60 36 17 10z" glyph-name="ion-android-star-outline" horiz-adv-x="404" unicode=""/><glyph d="M202 75L77 0l33 142L0 238l145 12 57 134 57-134 145-12-110-96L327 0z" glyph-name="ion-android-star" horiz-adv-x="404" unicode=""/><glyph d="M168 141v131h48V141h-48zm176 137c25-33 40-74 40-118 0-106-86-192-192-192S0 54 0 160s86 192 192 192c44 0 85-15 118-40l31 30 33-33zM298 54c28 28 44 66 44 106s-16 78-44 106-66 44-106 44-78-16-106-44-44-66-44-106S58 82 86 54s66-44 106-44 78 16 106 44zM128 368v48h128v-48H128z" glyph-name="ion-android-stopwatch" horiz-adv-x="384" unicode=""/><glyph d="M176 400c94 0 176-10 176-85V101c0-42-33-74-75-74l27-27v-16H48V0l27 27C33 27 0 59 0 101v214c0 75 82 85 176 85zM80 64c18 0 32 14 32 32s-14 32-32 32-32-14-32-32 14-32 32-32zm80 144v96H48v-96h112zM272 64c18 0 32 14 32 32s-14 32-32 32-32-14-32-32 14-32 32-32zm32 144v96H192v-96h112z" glyph-name="ion-android-subway" horiz-adv-x="352" unicode=""/><glyph d="M224 288c-25 0-50-10-68-28s-28-43-28-68 10-50 28-68 43-28 68-28 50 10 68 28 28 43 28 68-10 50-28 68-43 28-68 28zm21 128v-64h-42v64h42zm129-44l30-30-38-38-30 30zm-300 0l38-38-30-30-38 38zm150-52c70 0 128-58 128-128S294 64 224 64 96 122 96 192s58 128 128 128zm224-107v-42h-64v42h64zm-384 0v-42H0v42h64zM366 80l38-38-30-30-38 38zM82 80l30-30-38-38-30 30zm163-48v-64h-42v64h42z" glyph-name="ion-android-sunny" unicode=""/><glyph d="M160 355c88 0 160-73 160-163 0-32-9-62-25-87l-29 30c9 17 14 37 14 57 0 67-54 122-120 122v-61l-80 82 80 81v-61zm0-285v61l80-82-80-81v61C72 29 0 102 0 192c0 32 9 63 25 87l29-30c-9-17-14-37-14-57 0-67 54-122 120-122z" glyph-name="ion-android-sync" horiz-adv-x="320" unicode=""/><glyph d="M344 384c22 0 40-18 40-40V104c0-22-18-40-40-40H64L0 0v344c0 22 10 40 32 40h312zM134 206v40H96v-40h38zm77 0v40h-38v-40h38zm77 0v40h-38v-40h38z" glyph-name="ion-android-textsms" horiz-adv-x="384" unicode=""/><glyph d="M213 405c117 0 213-96 213-213S331-21 213-21 0 75 0 192s95 213 213 213zm0-383c94 0 170 76 170 170s-76 170-170 170S43 286 43 192 119 22 213 22zm11 276V187l96-57-16-26-112 67v127h32z" glyph-name="ion-android-time" horiz-adv-x="426" unicode=""/><glyph d="M0 101v214c0 75 82 85 176 85s176-10 176-85V101c0-42-33-74-75-74l27-27v-16H48V0l27 27C33 27 0 59 0 101zm176-29c22 0 40 18 40 40s-18 40-40 40-40-18-40-40 18-40 40-40zm128 152v96H48v-96h256z" glyph-name="ion-android-train" horiz-adv-x="352" unicode=""/><glyph d="M280 262c22 0 40-18 40-40V22c0-22-18-40-40-40H40C18-18 0 0 0 22v200c0 22 18 40 40 40h182v40c0 34-28 62-62 62s-62-28-62-62H60c0 55 45 100 100 100s100-45 100-100v-40h20zM160 80c22 0 40 18 40 40s-18 40-40 40-40-18-40-40 18-40 40-40z" glyph-name="ion-android-unlock" horiz-adv-x="320" unicode=""/><glyph d="M387 231c52-3 93-46 93-99 0-55-45-100-100-100H120C54 32 0 86 0 152c0 62 47 113 107 119 25 48 75 81 133 81 73 0 133-52 147-121zm-115-59h68L240 272 140 172h68V96h64v76z" glyph-name="ion-android-upload" horiz-adv-x="480" unicode=""/><glyph d="M0 256h85l107 112V16L85 128H0v128zm288-64c0-38-21-73-53-88v177c32-16 53-51 53-89z" glyph-name="ion-android-volume-down" horiz-adv-x="288" unicode=""/><glyph d="M0 256h85l107 112V16L85 128H0v128z" glyph-name="ion-android-volume-mute" horiz-adv-x="192" unicode=""/><glyph d="M342 192c0 69-45 128-107 147v45c85-20 149-99 149-192 0-35-8-68-24-96l-32 32c9 19 14 41 14 64zM192 368V264l-51 51zM357 51l24-24-24-24-40 40c-23-21-51-36-82-43v45c19 6 37 15 52 28l-95 95V16L85 128H0v128h85l9 10-91 91 24 24zm-69 141c0-7 0-15-2-22l-51 51v60c32-16 53-51 53-89z" glyph-name="ion-android-volume-off" horiz-adv-x="384" unicode=""/><glyph d="M0 256h85l107 112V16L85 128H0v128zm288-64c0-38-21-73-53-88v177c32-16 53-51 53-89zm-53 192c85-20 149-99 149-192S320 20 235 0v45c62 19 106 78 106 147s-44 128-106 147v45z" glyph-name="ion-android-volume-up" horiz-adv-x="384" unicode=""/><glyph d="M168 336c-22 0-40 18-40 40s18 40 40 40 40-18 40-40-18-40-40-40zm0-120l-20 38-20-62 57-96V-32h-38v96l-50 68L40-32H0l81 320-41-16v-80H0v112l111 38c4 1 10 1 13 1 13 0 23-6 31-18l45-69h72v-40H168z" glyph-name="ion-android-walk" horiz-adv-x="272" unicode=""/><glyph d="M0-16l224 416L448-16H0zm248 64v48h-48V48h48zm0 80v96h-48v-96h48z" glyph-name="ion-android-warning" unicode=""/><glyph d="M320 192c0-51-24-96-61-125L240-48H80L61 67C24 96 0 141 0 192s24 96 61 125l19 115h160l19-115c37-29 61-74 61-125zm-280 0c0-66 54-120 120-120s120 54 120 120-54 120-120 120S40 258 40 192z" glyph-name="ion-android-watch" horiz-adv-x="320" unicode=""/><glyph d="M208 219c23 0 42-18 42-41s-19-41-42-41-42 18-42 41 19 41 42 41zm125-41c0-45-26-85-63-107l-20 36c25 14 41 40 41 71 0 45-37 82-83 82s-83-37-83-82c0-31 16-57 41-71l-20-36c-37 22-63 62-63 107 0 68 56 124 125 124s125-56 125-124zM208 384c114 0 208-93 208-206 0-76-42-142-104-178l-21 36c50 28 83 81 83 142 0 91-74 165-166 165S42 269 42 178c0-61 33-113 83-142L104 0C42 36 0 102 0 178c0 113 94 206 208 206z" glyph-name="ion-android-wifi" horiz-adv-x="416" unicode=""/><glyph d="M224 416c124 0 224-100 224-224S348-32 224-32 0 68 0 192s100 224 224 224zM360 56c36 36 56 85 56 136s-20 100-56 136-85 56-136 56-100-20-136-56-56-85-56-136S52 92 88 56 173 0 224 0s100 20 136 56zM168 342l56-86H77c17 40 50 71 91 86zm213-182H279l72 129c21-27 33-60 33-97 0-11-1-22-3-32zm-53 154l-49-90-78 126c8 1 15 2 23 2 40 0 76-14 104-38zM67 224h102L97 95c-21 27-33 60-33 97 0 11 1 22 3 32zM280 42l-56 86h147c-17-40-50-71-91-86zM120 70l49 90 78-126c-8-1-15-2-23-2-40 0-76 14-104 38z" glyph-name="ion-aperture" unicode=""/><glyph d="M224 140L96 256h80v96h96v-96h80zm209 11c11-6 17-19 15-32l-9-67c-2-13-9-20-28-20H37c-18 0-26 7-28 20l-9 67c-2 13 3 26 14 32l72 55h42l-62-62h50c2 0 5-1 6-3l18-45h168l18 45c1 2 3 3 5 3h51l-62 62h42z" glyph-name="ion-archive" unicode=""/><glyph d="M192 0L0 192h112v192h160V192h112z" glyph-name="ion-arrow-down-a" horiz-adv-x="384" unicode=""/><glyph d="M3 263c-2 2-3 6-3 9 0 9 8 16 17 16h286c9 0 17-7 17-16 0-3-1-6-3-8l-2-3-136-156c-5-5-11-9-19-9s-14 4-19 9L5 261z" glyph-name="ion-arrow-down-b" horiz-adv-x="320" unicode=""/><glyph d="M265 125L160 25c-6-6-14-9-23-9s-16 3-22 9L9 125c-12 12-12 31 0 43s34 12 46 0l50-48v217c0 17 14 31 32 31s32-14 32-31V120l50 48c12 12 34 12 46 0s12-31 0-43z" glyph-name="ion-arrow-down-c" horiz-adv-x="274" unicode=""/><glyph d="M178 238l64 64-50 50h128V224l-50 50-64-64zm0-92l28 28 64-64 50 50V32H192l50 50zm-36 0L78 82l50-50H0v128l50-50 64 64zm0 92l-28-28-64 64-50-50v128h128l-50-50z" glyph-name="ion-arrow-expand" horiz-adv-x="320" unicode=""/><glyph d="M0 64v160l61-61 131 141 107-112 149 128-149-203-107 107-94-98 62-62H0z" glyph-name="ion-arrow-graph-down-left" unicode=""/><glyph d="M288 64l62 62-94 98-107-107L0 320l149-128 107 112 131-141 61 61V64H288z" glyph-name="ion-arrow-graph-down-right" unicode=""/><glyph d="M160 320l-62-62 94-98 107 107L448 64 299 192 192 80 61 221 0 160v160h160z" glyph-name="ion-arrow-graph-up-left" unicode=""/><glyph d="M288 320h160V160l-61 61L256 80 149 192 0 64l149 203 107-107 94 98z" glyph-name="ion-arrow-graph-up-right" unicode=""/><glyph d="M0 192l192 192V272h192V112H192V0z" glyph-name="ion-arrow-left-a" horiz-adv-x="384" unicode=""/><glyph d="M167 349c2 2 6 3 9 3 9 0 16-8 16-17V49c0-9-7-17-16-17-3 0-7 1-9 3l-2 2L9 173c-5 5-9 11-9 19s4 14 9 19l156 136z" glyph-name="ion-arrow-left-b" horiz-adv-x="192" unicode=""/><glyph d="M109 320c12 12 32 12 44 0s12-34 0-46l-49-50h217c17 0 31-14 31-32s-14-32-31-32H104l48-50c12-12 12-34 0-46s-31-12-43 0L9 170c-6 6-9 13-9 22s3 17 9 23z" glyph-name="ion-arrow-left-c" horiz-adv-x="352" unicode=""/><glyph d="M448 192l-96-96v76H243l1-108h76l-96-96-96 96h76v108H96V96L0 192l96 96v-76h108v108h-76l96 96 96-96h-76V212h108v76z" glyph-name="ion-arrow-move" unicode=""/><glyph d="M192 352h128V224l-50 50-9-9L78 82l50-50H0v128l50-50 128 128 64 64z" glyph-name="ion-arrow-resize" horiz-adv-x="320" unicode=""/><glyph d="M128 352v-64h248c4 0 8-4 8-8V40c0-4-4-8-8-8H72c-4 0-8 4-8 8v48c0 4 4 8 8 8h248v128H128v-64L0 256z" glyph-name="ion-arrow-return-left" horiz-adv-x="384" unicode=""/><glyph d="M384 256l-128-96v64H64V96h248c4 0 8-4 8-8V40c0-4-4-8-8-8H8c-4 0-8 4-8 8v240c0 4 4 8 8 8h248v64z" glyph-name="ion-arrow-return-right" horiz-adv-x="384" unicode=""/><glyph d="M384 192L192 0v112H0v160h192v112z" glyph-name="ion-arrow-right-a" horiz-adv-x="384" unicode=""/><glyph d="M25 35c-2-2-6-3-9-3-9 0-16 8-16 17v286c0 9 7 17 16 17 3 0 6-1 8-3l3-2 156-136c5-5 9-11 9-19s-4-14-9-19L27 37z" glyph-name="ion-arrow-right-b" horiz-adv-x="192" unicode=""/><glyph d="M243 320l100-105c6-6 9-14 9-23s-3-16-9-22L243 64c-12-12-31-12-43 0s-12 34 0 46l48 50H31c-17 0-31 14-31 32s14 32 31 32h217l-49 50c-12 12-12 34 0 46s32 12 44 0z" glyph-name="ion-arrow-right-c" horiz-adv-x="352" unicode=""/><glyph d="M384 356l-82-82 50-50H224v128l50-50 82 82zm0-328L356 0l-82 82-50-50v128h128l-50-50zM0 28l82 82-50 50h128V32l-50 50L28 0zm0 328l28 28 82-82 50 50V224H32l50 50z" glyph-name="ion-arrow-shrink" horiz-adv-x="384" unicode=""/><glyph d="M0 120c0 4 4 8 8 8h248v64l128-96L256 0v64H8c-4 0-8 4-8 8v48zm384 144c0-4-4-8-8-8H128v-64L0 288l128 96v-64h248c4 0 8-4 8-8v-48z" glyph-name="ion-arrow-swap" horiz-adv-x="384" unicode=""/><glyph d="M192 384l192-192H272V0H112v192H0z" glyph-name="ion-arrow-up-a" horiz-adv-x="384" unicode=""/><glyph d="M317 121c2-2 3-6 3-9 0-9-8-16-17-16H17c-9 0-17 7-17 16 0 3 1 6 3 8l2 3 136 156c5 5 11 9 19 9s14-4 19-9l136-156z" glyph-name="ion-arrow-up-b" horiz-adv-x="320" unicode=""/><glyph d="M9 259l105 100c6 6 14 9 23 9s16-3 22-9l106-100c12-12 12-31 0-43s-34-12-46 0l-50 48V47c0-17-14-31-32-31s-32 14-32 31v217l-50-49c-12-12-34-12-46 0s-12 32 0 44z" glyph-name="ion-arrow-up-c" horiz-adv-x="274" unicode=""/><glyph d="M448 224v-64l-186 10L366 0l-56-32-86 176-86-176L82 0l104 170L0 160v64l187-7L78 384l60 32 86-176 86 176 60-32-109-167z" glyph-name="ion-asterisk" unicode=""/><glyph d="M422 41c-24-25-52-43-85-55s-69-18-105-18c-35 0-66 6-95 17S84 11 64 31s-36 43-47 71-17 58-17 90 6 62 18 89 29 51 50 71 46 35 74 47c28 11 58 17 90 17 28 0 55-4 81-12s49-20 69-36 36-36 48-60 18-53 18-85c0-24-3-46-10-64s-16-34-27-46-24-22-38-28-29-10-45-10-29 4-39 12-15 17-15 29h-3c-6-10-15-19-28-28s-28-13-46-13c-28 0-49 9-64 27s-23 42-23 71c0 17 3 34 9 50s14 31 24 44 23 23 38 31 31 12 49 12c15 0 27-4 38-10 10-6 18-15 21-24h1l5 24h54l-24-113c-1-6-2-12-3-19s-2-13-2-19c0-7 1-13 4-18s7-7 15-7c16 0 29 9 39 26s16 40 16 68c0 24-4 45-12 64s-20 34-34 47-32 23-52 29-41 9-65 9c-26 0-49-4-70-13s-39-22-54-38-27-34-35-56c-8-21-13-44-13-69 0-26 4-51 13-72s21-39 37-54 35-27 57-35 46-12 72-12c33 0 61 6 85 16s45 25 65 43zM231 260c-10 0-18-2-25-8s-14-13-19-22-8-18-11-28-4-20-4-30c0-5 0-10 1-16 1-5 3-10 6-15s7-8 12-11 11-5 19-5c11 0 20 3 28 8s14 13 19 21 9 16 11 26 3 19 3 27c0 6 0 13-1 19s-4 12-7 17-7 9-12 12-12 5-20 5z" glyph-name="ion-at" unicode=""/><glyph d="M413 116c2-2 3-4 3-6s-1-4-3-6l-21-22c-2-2-4-2-6-2s-4 0-6 2l-76 77-76-77c-2-2-4-2-6-2s-4 0-6 2l-21 22c-2 2-3 4-3 6s1 4 3 6l76 76-77 76c-3 3-3 9 0 12l22 22c2 2 4 2 6 2s4 0 6-2l76-76 76 76c2 2 4 2 6 2s4 0 6-2l22-22c3-3 3-9 0-12l-77-76zm86 238c9-9 13-20 13-33V65c0-27-20-49-46-49H168c-13 0-24 3-34 9-9 5-16 11-23 20l-1 1L0 192l110 148c14 19 34 28 58 28h298c13 0 24-5 33-14zM480 65v256c0 9-5 15-14 15H168c-11 0-22-3-32-16L40 192l96-128c8-10 17-16 32-16h298c9 0 14 8 14 17z" glyph-name="ion-backspace-outline" horiz-adv-x="512" unicode=""/><glyph d="M499 354c9-9 13-20 13-33V65c0-27-20-49-46-49H168c-13 0-24 3-34 9-9 5-16 11-23 20l-1 1L0 192l110 148c14 19 34 28 58 28h298c13 0 24-5 33-14zm-86-238l-76 76 77 76c3 3 3 9 0 12l-22 22c-2 2-4 2-6 2s-4 0-6-2l-76-76-76 76c-2 2-4 2-6 2s-4 0-6-2l-22-22c-3-3-3-9 0-12l77-76-76-76c-2-2-3-4-3-6s1-4 3-6l21-22c2-2 4-2 6-2s4 0 6 2l76 77 76-77c2-2 4-2 6-2s4 0 6 2l21 22c2 2 3 4 3 6s-1 4-3 6z" glyph-name="ion-backspace" horiz-adv-x="512" unicode=""/><glyph d="M416 288l32-320H0l32 320h64v4c0 68 56 124 124 124h8c68 0 124-56 124-124v-4h64zm-288 4v-4h192v4c0 51-41 92-92 92h-8c-51 0-92-41-92-92zM36 0h376l-25 256h-35v-36c10-6 16-16 16-28 0-18-14-32-32-32s-32 14-32 32c0 12 6 22 16 28v36H128v-36c10-6 16-16 16-28 0-18-14-32-32-32s-32 14-32 32c0 12 6 22 16 28v36H61z" glyph-name="ion-bag" unicode=""/><glyph d="M10 64C4 64 0 68 0 74v236c0 6 4 10 10 10h381c6 0 10-4 10-10v-54h37c6 0 10-4 10-10V138c0-6-4-10-10-10h-37V74c0-6-4-10-10-10H10zm215 224L125 177h61l-27-81 100 111h-61z" glyph-name="ion-battery-charging" unicode=""/><glyph d="M438 256c6 0 10-4 10-10V138c0-6-4-10-10-10h-37V74c0-6-4-10-10-10H10C4 64 0 68 0 74v236c0 6 4 10 10 10h381c6 0 10-4 10-10v-54h37zm-22-96v64h-47v64H32V96h337v64h47z" glyph-name="ion-battery-empty" unicode=""/><glyph d="M438 256c6 0 10-4 10-10V138c0-6-4-10-10-10h-37V74c0-6-4-10-10-10H10C4 64 0 68 0 74v236c0 6 4 10 10 10h381c6 0 10-4 10-10v-54h37z" glyph-name="ion-battery-full" unicode=""/><glyph d="M438 256c6 0 10-4 10-10V138c0-6-4-10-10-10h-37V74c0-6-4-10-10-10H10C4 64 0 68 0 74v236c0 6 4 10 10 10h381c6 0 10-4 10-10v-54h37zm-22-96v64h-47v64h-81l32-192h49v64h47z" glyph-name="ion-battery-half" unicode=""/><glyph d="M10 64C4 64 0 68 0 74v236c0 6 4 10 10 10h381c6 0 10-4 10-10v-54h37c6 0 10-4 10-10V138c0-6-4-10-10-10h-37V74c0-6-4-10-10-10H10zm359 224H160l32-192h177v64h47v64h-47v64z" glyph-name="ion-battery-low" unicode=""/><glyph d="M80 256h240V32c0-9-7-16-16-16H96c-9 0-16 7-16 16v224zm216-152v48c0 4-4 8-8 8s-8-4-8-8v-48c0-4 4-8 8-8s8 4 8 8zm-8 72c4 0 8 4 8 8s-4 8-8 8-8-4-8-8 4-8 8-8zm93 240c3 0 3-2 3-3s-2-3-3-5-13-20-13-40V32c0-35-29-64-64-64H96C61-32 32-3 32 32v307c0 32-2 33-32 37 0 12 11 40 65 40h316zm-45-48c0 5 0 16 1 16H64c-1 0-3 0-4-1 5-7 4-32 4-44V32C64 14 78 0 96 0h210c17 0 30 14 30 32v336z" glyph-name="ion-beaker" horiz-adv-x="384" unicode=""/><glyph d="M384 288c35 0 64-29 64-64v-96c0-35-29-64-64-64h-32v-80c0-9-7-16-16-16H80c-9 0-16 7-16 16v223c-26 0-48 22-48 48v55C6 321 0 336 0 352c0 35 29 64 64 64 18 0 34-8 46-20 10 12 26 20 43 20 14 0 27-6 37-14 12 9 26 14 42 14 17 0 34-6 46-16 11 10 26 16 42 16 35 0 64-29 64-64 0-24-18-44-32-48v-16h32zm-88-144c4 0 8 3 8 8v48c0 4-4 8-8 8s-8-4-8-8v-48c0-3 2-6 4-7 1-1 2-1 4-1zm7 76c1 2 1 4 1 6s-1 4-3 5-4 1-6 1-4-2-5-4-2-4-2-6 2-4 4-5 4-1 6-1 4 2 5 4zm17 68v32h-20c-3-8-7-16-13-23-13-16-33-25-55-25-26 0-48 13-61 33-6-2-12-3-18-3-12 0-23 4-32 10-2 1-3 3-5 4-1-2-2-3-3-5-5-6-11-10-17-14v-41h80c0 4 4 8 8 8s8-4 8-8h128v32zm31 55c1 3 1 6 1 9 0 18-14 32-32 32-9 0-17-4-23-10-2-2-6-5-16-6h-8c-6 1-12 3-14 5-7 7-16 11-27 11-9 0-18-4-25-9l-7-7c0-1 0-1-1-2-3-3-7-5-11-5-5 0-8 3-11 6-1 2-2 3-3 5s-3 4-5 6c-4 4-10 6-16 6-10 0-18-9-25-16-7-8-27-8-34 0s-18 16-30 16c-18 0-32-14-32-32 0-2 1-5 1-7 2-9 7-17 15-21v-69c0-9 7-16 16-16v81c10 0 18 4 24 11 2 2 3 4 4 6 0 0 6 10 12 11s20 6 30-5c4-5 11-9 19-9 3 0 5 1 7 2 3 1 7 2 9 4 3 2 6 4 10 4 7 0 12-4 14-10 0 0 1-1 1-2 1-3 1-5 3-8 7-12 20-20 35-20 13 0 25 6 32 16 5 7 8 15 8 24s9 8 9 8h55c6 0 13-3 15-9zm65-215v96c0 18-14 32-32 32h-32V96h32c18 0 32 14 32 32zM128 280c0 5 3 8 8 8s8-3 8-8-3-8-8-8-8 3-8 8zm160 0c0 5 3 8 8 8s8-3 8-8-3-8-8-8-8 3-8 8z" glyph-name="ion-beer" unicode=""/><glyph d="M12 304c16 16 18 13 19 12l68-65c2-2 10-10 10-3v158c0 6 6 10 12 10 4 0 7-2 9-4s117-113 122-117 5-10 1-14l-84-81s-4-4-4-8 4-8 4-8l84-81c4-4 4-10-1-14S130-28 130-28c-2-2-5-4-9-4-6 0-12 4-12 10v158s-8-1-10-3v-1L31 68c-1-1-3-4-19 12S0 97 1 98s90 86 90 86 4 3 4 8-4 8-4 8-89 85-90 86-5 2 11 18zm140 24v-79c0-8 8-1 10 1l30 30s3 5 3 7-1 5-3 7l-30 30c-2 2-10 11-10 4zm0-193V56s8 2 10 4l30 30c2 2 3 5 3 7s-1 5-3 7l-30 30c-2 2-10 9-10 1z" glyph-name="ion-bluetooth" horiz-adv-x="256" unicode=""/><glyph d="M207 97l15-89c1-3 1-5 1-8 0-18-14-32-32-32s-32 14-32 32c0 2 0 5 1 7l15 92c2 7 8 13 16 13s15-7 16-15zm35-4zm87-35c9-8 10-25 0-35s-27-9-35 0c-1 1-2 3-3 4l-49 66c-3 5-2 11 2 15 5 5 10 5 16 1l64-47c2-1 3-3 5-4zm-20 55zm62 13c9-1 13-7 13-19 0-9-10-14-18-12l-57 18c-3 2-6 5-5 9s4 7 8 6zM75 113zm0 0L17 95c-8-2-17 3-17 12 0 12 3 18 12 19l60 2c4 1 7-2 8-6s-2-7-5-9zm49-4c5 4 11 4 16-1 4-4 5-10 2-15L93 27c-1-1-2-3-3-4-10-10-25-10-35 0s-10 25 0 35c2 2 3 3 5 4zm164 211c0-32-9-58-50-86-37-26-94-46-110-106 0 0-58 24-48 96s124 106 112 192c24 0 96-35 96-96zm0-128c-16-50-44-64-80-64-15 0-32 9-43 26 12 15 28 26 47 37 9 5 20 10 29 16 21 14 38 31 47 49 5-15 5-48 0-64zM88 288c-6 4-9 14-8 27 2 22 34 39 32 69 14 2 31-3 42-24-5-11-15-21-28-34s-26-22-38-38z" glyph-name="ion-bonfire" horiz-adv-x="384" unicode=""/><glyph d="M184 384c4 0 8-4 8-8v-56H0v56c0 4 4 8 8 8h176zM0 0v304h192V0L96 96z" glyph-name="ion-bookmark" horiz-adv-x="192" unicode=""/><glyph d="M192 236s8 5 20 7c21 4 39 5 47-9 10-17 19-53 17-85-1-17-5-22-5-22s-15-10-47-7c-35 3-40 15-40 15s5 12 8 43 0 58 0 58zm-40-73c-17-4-38-10-38-10s45 4 64 9c-4-21-10-34-10-34S85 48 52 48C24 48 0 116 0 192s26 144 52 144c35 0 106-57 128-97 0 0 3-16 2-32-10 5-24 10-44 14-28 6-42 3-42 3s18-4 57-17c15-5 22-8 29-10 0-3-1-7-1-10 0-5 0-10-1-15-5-2-15-6-28-9zm244 173c26 0 52-68 52-144S424 48 396 48c-37 0-104 68-112 79 0 0 4 5 5 22v9c16-7 70-13 70-13s-21 6-40 11c-13 4-25 8-30 10-1 11-2 23-4 33 17 11 69 34 69 34s-15-2-35-9c-14-5-29-11-37-14-3 10-7 18-10 24 0 1-1 4-1 4v1c22 40 89 97 125 97z" glyph-name="ion-bowtie" unicode=""/><glyph d="M240 176v8h208V8c0-4-4-8-8-8H8C4 0 0 4 0 8v176h208v-8h32zm200 128c4 0 8-4 8-8v-96H240v8h-32v-8H0v96c0 4 4 8 8 8h120v31c1 28 22 49 51 49h90c30 0 50-21 51-49v-31h120zm-152 28v1c0 10-9 19-19 19h-90c-10 0-19-9-19-19v-29h128v28z" glyph-name="ion-briefcase" unicode=""/><glyph d="M343 321c-6-16-16-31-28-43-24-24-57-37-91-37s-67 13-91 37c-12 12-22 27-28 43 29 39 72 63 119 63s90-24 119-63zM95 305c22-45 68-77 121-80V0c-40 2-77 22-104 54-7-6-10-9-13-15 8-9 7-22-1-31C89-2 74-3 64 6s-11 24-2 34l3 3 2 1c4 13 13 25 27 36-15 26-26 57-29 90-7 0-12-2-17-3-1-13-11-23-24-23S0 155 0 168s11 24 24 24h3c4 2 8 5 12 6 7 2 14 4 25 4 1 23 6 45 13 65-6 4-11 7-15 11-6 5-11 13-14 19-1 0-3 1-4 2-12 6-15 21-9 33s21 15 33 9c11-6 15-20 10-31 2-3 3-7 4-8 2-2 5-3 8-5 2 3 3 5 5 8zm329-113c13 0 24-11 24-24s-11-24-24-24-23 10-24 23c-5 1-10 3-17 3-3-33-14-64-29-90 14-11 23-23 27-36 0 0 1 0 2-1l3-3c9-10 8-25-2-34s-25-8-34 2c-8 9-9 22-1 31-3 6-6 9-13 15-27-32-64-52-104-54v225c53 3 99 35 121 80 2-3 3-5 5-8 3 2 6 3 8 5 1 1 2 5 4 8-5 11-1 25 10 31 12 6 27 3 33-9s3-27-9-33c-1-1-3-2-4-2-3-6-8-14-14-19-4-4-9-7-15-11 7-20 12-42 13-65 11 0 18-2 25-4 4-1 8-4 12-6h3z" glyph-name="ion-bug" unicode=""/><glyph d="M304 416c9 0 16-7 16-16V-16c0-9-7-16-16-16H16C7-32 0-25 0-16v416c0 9 7 16 16 16h288zM48 240v-32h32v32H48zm0-64v-32h32v32H48zm0-64V80h32v32H48zm96-96v32H48V16h96zm0 64v32h-32V80h32zm0 64v32h-32v-32h32zm0 64v32h-32v-32h32zm64-192v32h-32V16h32zm0 64v32h-32V80h32zm0 64v32h-32v-32h32zm0 64v32h-32v-32h32zm64-192v96h-32V16h32zm0 128v32h-32v-32h32zm0 64v32h-32v-32h32zm0 80v80H48v-80h224z" glyph-name="ion-calculator" horiz-adv-x="320" unicode=""/><glyph d="M112 320c-18 0-32 14-32 32v32c0 18 14 32 32 32s32-14 32-32v-32c0-18-14-32-32-32zm224 0c-18 0-32 14-32 32v32c0 18 14 32 32 32s32-14 32-32v-32c0-18-14-32-32-32zm104 64c4 0 8-4 8-8V-24c0-4-4-8-8-8H8c-4 0-8 4-8 8v400c0 4 4 8 8 8h56v-41c0-22 24-39 48-39s48 17 48 39v41h128v-41c0-22 25-39 49-39s47 17 47 39v41h56zM400 16v256H48V16h352z" glyph-name="ion-calendar" unicode=""/><glyph d="M382 301c18 0 34-14 34-33V66c0-19-16-34-34-34H34C15 32 0 47 0 66v202c0 19 15 33 34 33h69l39 40c6 7 15 11 25 11h84c9 0 17-4 23-10l41-41h67zM208 82c51 0 92 42 92 93s-41 93-92 93-92-42-92-93 41-93 92-93zm168 166c8 0 14 6 14 14s-6 14-14 14-14-6-14-14 6-14 14-14zm-168-3c38 0 70-31 70-70s-32-70-70-70c-39 0-70 31-70 70s31 70 70 70z" glyph-name="ion-camera" horiz-adv-x="416" unicode=""/><glyph d="M420 352c16 0 28-12 28-28V60c0-16-12-28-28-28H28C12 32 0 44 0 60v264c0 16 12 28 28 28h392zM45 320c-7 0-12-5-13-12v-20h384v20c-1 7-6 12-13 12H45zM403 64c7 0 12 5 13 12v116H32V76c1-7 6-12 13-12h358zM64 128v16h192v-16H64zm0-32v16h96V96H64zm256 0v48h64V96h-64z" glyph-name="ion-card" unicode=""/><glyph d="M0 352h512V96H0v256zm193-224c-20 23-33 58-33 96s13 73 33 96H96c0-35-29-64-64-64v-80c27 0 48-21 48-48h113zm105 59c3 4 4 9 4 15 0 3 0 5-1 8s-2 6-4 8-4 4-7 6-6 4-10 5c-1 0-4 1-7 2s-5 0-8 1v31c2-1 5-2 7-3 4-3 6-7 7-13h20c0 5-2 9-4 13s-5 8-9 11-9 5-14 6c-2 1-5 2-7 2v9h-18v-9c-2 0-4-1-6-2-5-1-10-2-14-5s-7-6-9-10-4-9-4-14c0-3 0-5 1-8s2-5 4-7 5-5 8-7 7-4 12-5c3-1 6 0 8-1v-35c-3 1-6 2-9 4s-5 4-6 7-2 6-2 9h-20c0-5 2-11 4-16 3-5 6-8 10-11s9-6 15-7c3-1 5-2 8-2v-9h18v9c3 0 6 1 9 2 5 1 10 2 14 5s7 7 10 11zm182-11v80c-35 0-64 29-64 64h-97c20-23 33-58 33-96s-13-73-33-96h113c0 27 22 48 48 48zM64 224c0 21 11 32 32 32s32-11 32-32-11-32-32-32-32 11-32 32zm320 0c0 21 11 32 32 32s32-11 32-32-11-32-32-32-32 11-32 32zm-111-11c2-1 4-2 6-4s3-5 3-9c0-2 0-4-1-6s-2-4-4-5-5-3-8-4c-1 0-2-1-4-1v31c3-1 6-1 8-2zm-37 44c1 2 3 3 5 4s4 2 6 2v-26c-4 1-7 3-9 5s-4 4-4 8c0 3 1 5 2 7zM0 32v32h512V32H0z" glyph-name="ion-cash" horiz-adv-x="512" unicode=""/><glyph d="M76 48C34 48 0 79 0 119v209c0 40 34 72 76 72h264c42 0 76-32 76-72V119c0-40-34-71-76-71h-4v-64s-79 54-86 59-7 5-21 5H76zm228 208c-18 0-32-14-32-32s14-32 32-32 32 14 32 32-14 32-32 32zm-96 0c-18 0-32-14-32-32s14-32 32-32 32 14 32 32-14 32-32 32zm-96 0c-18 0-32-14-32-32s14-32 32-32 32 14 32 32-14 32-32 32z" glyph-name="ion-chatbox-working" horiz-adv-x="416" unicode=""/><glyph d="M76 48C34 48 0 79 0 119v209c0 40 34 72 76 72h264c42 0 76-32 76-72V119c0-40-34-71-76-71h-4v-64s-79 54-86 59-7 5-21 5H76z" glyph-name="ion-chatbox" horiz-adv-x="416" unicode=""/><glyph d="M246 82l26-18c-4-21-29-32-52-32h-90c-8 0-11-2-13-3L64-16v48H48C22 32 0 48 0 73v129c0 25 20 45 46 45h2V146c0-33 29-59 64-59h117c10 0 14-3 17-5zm107 318c35 0 63-27 63-60V172c0-33-28-60-63-60h-17V48l-75 60c-2 2-7 4-17 4H143c-35 0-63 27-63 60v168c0 33 21 60 56 60h217z" glyph-name="ion-chatboxes" horiz-adv-x="416" unicode=""/><glyph d="M208-1C93-1 0 88 0 199s93 201 208 201 208-90 208-201c0-40-12-77-33-108-1-1-2-3-3-4-2-4-4-10-4-15l22-88-84 31c-4 2-8 2-12 2s-7-1-11-2c-1 0-1-1-2-1-25-10-52-15-81-15zm96 225c-18 0-32-14-32-32s14-32 32-32 32 14 32 32-14 32-32 32zm-96 0c-18 0-32-14-32-32s14-32 32-32 32 14 32 32-14 32-32 32zm-96 0c-18 0-32-14-32-32s14-32 32-32 32 14 32 32-14 32-32 32z" glyph-name="ion-chatbubble-working" horiz-adv-x="416" unicode=""/><glyph d="M208-1C93-1 0 88 0 199s93 201 208 201 208-90 208-201c0-40-12-77-33-108-1-1-2-3-3-4-2-4-4-10-4-15l22-88-84 31c-4 2-8 2-12 2s-7-1-11-2c-1 0-1-1-2-1-25-10-52-15-81-15z" glyph-name="ion-chatbubble" horiz-adv-x="416" unicode=""/><glyph d="M25 57c-1 1 0 2-1 3C9 82 0 109 0 137c0 42 19 80 49 106-2-11-4-22-4-34 0-92 78-168 174-168 15 0 30 2 44 6-27-32-69-53-115-53-20 0-40 5-58 12h-1c-2 1-5 2-8 2s-6-1-9-2L16-16l12 63c0 4-1 7-3 10zm217 343c96 0 174-76 174-168 0-33-11-64-28-90-1-1-1-2-2-3-2-4-3-8-3-12l17-74-69 26c-3 1-6 2-10 2-3 0-6-1-9-2l-2-1c-8-3-16-5-24-7-14-4-29-6-44-6-96 0-173 75-173 167 0 12 1 24 3 35 16 76 86 133 170 133z" glyph-name="ion-chatbubbles" horiz-adv-x="416" unicode=""/><glyph d="M224 416c124 0 224-100 224-224S348-32 224-32 0 68 0 192s100 224 224 224zm115-149c1 1 1 2 1 3s0 3-1 4l-31 24c-1 1-3 1-4 1s-2 0-3-1L190 155s-44 42-45 43-4 3-6 3-3-2-4-3l-25-25-1-1c-1-1-1-3-1-4s0-2 1-3l2-1s78-75 79-76 3-3 5-3 4 2 5 3z" glyph-name="ion-checkmark-circled" unicode=""/><glyph d="M400 376c17-13 22-39 9-57L202 17c-13-18-37-22-54-9S11 155 11 155c-15 16-15 42 1 58s40 15 55-2l99-107 180 263c13 18 37 22 54 9z" glyph-name="ion-checkmark-round" horiz-adv-x="416" unicode=""/><glyph d="M414 338c1-2 2-4 2-6s-1-4-2-6L165 6c-2-2-5-6-9-6s-8 3-10 5S5 141 5 141l-3 3c-1 2-2 4-2 6s1 3 2 5l2 2c14 15 42 44 44 46s4 6 8 6 8-4 10-6 80-78 80-78l200 257c2 2 4 2 6 2s5-1 7-2z" glyph-name="ion-checkmark" horiz-adv-x="416" unicode=""/><glyph d="M224 150l174 167c4 4 12 4 16 0l31-30c4-4 4-12 0-16L232 67c-2-2-5-3-8-3s-6 1-8 3L3 271c-4 4-4 12 0 16l31 30c4 4 12 4 16 0z" glyph-name="ion-chevron-down" unicode=""/><glyph d="M86 192L253 18c4-4 4-12 0-16l-30-31c-4-4-12-4-16 0L3 184c-2 2-3 5-3 8s1 6 3 8l204 213c4 4 12 3 16-1l30-30c4-4 4-12 0-16L86 192z" glyph-name="ion-chevron-left" horiz-adv-x="256" unicode=""/><glyph d="M170 192L3 366c-4 4-4 12 0 16l30 30c4 4 12 5 16 1l204-213c2-2 3-5 3-8s-1-6-3-8L49-29c-4-4-12-4-16 0L3 2c-4 4-4 12 0 16z" glyph-name="ion-chevron-right" horiz-adv-x="256" unicode=""/><glyph d="M224 234L50 67c-4-4-12-4-16 0L3 97c-4 4-4 12 0 16l213 204c2 2 5 3 8 3s6-1 8-3l213-204c4-4 4-12 0-16l-31-30c-4-4-12-4-16 0L224 234z" glyph-name="ion-chevron-up" unicode=""/><glyph d="M80 288c2 20 10 35 28 40l1 1c12 3 21 7 21 20v21c0 26 21 46 46 46s46-20 46-46v-21c0-13 9-18 21-21h2c18-5 25-20 27-40H80zm96 96c-8 0-13-6-13-14s5-14 13-14 14 6 14 14-6 14-14 14zm149 0c15 0 27-12 27-28V-4c0-16-12-28-27-28H28C13-32 0-20 0-4v360c0 16 13 28 28 28h73v-13c0-11-9-19-19-19H45c-7 0-12-6-12-13V12c0-6 5-12 11-12h265c6 0 11 6 11 12v327c0 7-5 13-12 13h-37c-10 0-20 8-20 19v13h74zM64 224v32h112v-32H64zm0-192v32h160V32H64zm0 64v32h129V96H64zm0 64v32h208v-32H64z" glyph-name="ion-clipboard" horiz-adv-x="352" unicode=""/><glyph d="M224 416c124 0 224-100 224-224S348-32 224-32 0 68 0 192s100 224 224 224zM360 56c10 10 19 21 26 33l-27 16 8 14 27-16c13 25 21 52 22 81h-32v16h32c-1 29-9 56-22 81l-27-16-8 14 27 16c-7 12-16 23-26 33s-21 19-33 26l-16-27-14 8 16 27c-25 13-52 21-81 22v-32h-16v32c-29-1-56-9-81-22l16-27-14-8-16 27c-12-7-23-16-33-26s-19-21-26-33l27-16-8-14-27 16c-13-25-21-52-22-81h32v-16H32c1-29 9-56 22-81l27 16 8-14-27-16c7-12 16-23 26-33s21-19 33-26l16 27 14-8-16-27c25-13 52-21 81-22v32h16V0c29 1 56 9 81 22l-16 27 14 8 16-27c12 7 23 16 33 26zm8 151v-32H251c-6-9-16-15-27-15-18 0-32 14-32 32 0 12 6 22 16 28v68h32v-68c5-3 9-8 12-13h116z" glyph-name="ion-clock" unicode=""/><glyph d="M224 415c124 0 224-100 224-224S348-33 224-33 0 67 0 191s100 224 224 224zm108-299l-75 75 76 75c3 3 3 9 0 12l-22 21c-2 2-4 3-6 3s-3-1-5-3l-76-74-76 74c-2 2-3 3-5 3s-4-1-6-3l-21-21c-3-3-3-9 0-12l76-75-76-76c-2-1-2-3-2-5s0-4 2-6l21-22c2-2 4-2 6-2s4 0 6 2l75 76 76-75c2-2 3-3 5-3s4 1 6 3l21 21c2 1 3 4 3 6s-1 4-3 6z" glyph-name="ion-close-circled" unicode=""/><glyph d="M374 61c14-14 14-37 0-51s-37-14-51 0L192 141 61 10C47-4 25-4 11 10s-14 37 0 51l130 131L11 323c-14 14-14 37 0 51s36 14 50 0l131-131 131 131c14 14 37 14 51 0s14-37 0-51L243 192z" glyph-name="ion-close-round" horiz-adv-x="384" unicode=""/><glyph d="M380 61c3-3 4-6 4-10s-1-7-4-10L342 4c-3-3-5-4-9-4s-7 1-10 4L192 135 61 4c-3-3-5-4-9-4s-7 1-10 4L4 41c-3 3-4 6-4 10s1 7 4 10l132 131L4 322c-5 5-5 15 0 20l37 38c3 2 6 4 10 4s7-1 10-4l131-130 131 130c3 2 6 4 10 4s7-1 10-4l37-38c5-5 5-14 0-19L248 193z" glyph-name="ion-close" horiz-adv-x="384" unicode=""/><glyph d="M0 384h512V0H0v384zm464-192c0 27 0 44-4 80s-23 56-59 60-91 4-138 4h-14c-47 0-102 0-138-4s-55-24-59-60-4-53-4-80 2-47 4-80 19-56 59-60 96-4 145-4 105 0 145 4 57 27 59 60 4 53 4 80zm-92-28v4h53c0-27-7-48-19-62s-32-21-61-21c-14 0-26 2-36 5s-18 9-25 17-12 19-15 33-5 30-5 51 3 39 7 53 9 25 17 33 17 14 27 17 22 5 34 5c25 0 44-7 57-21s19-37 19-62h-52v1c0 20-12 33-27 33s-25-11-28-30c0 0-2-11-2-29s2-28 2-28c1-17 12-29 27-29s27 10 27 29v1zm-177 0v4h53c0-27-7-48-19-62s-32-21-61-21c-14 0-26 2-36 5s-18 9-25 17-12 19-15 33-5 30-5 51 3 39 7 53 9 25 17 33 17 14 27 17 22 5 34 5c25 0 44-7 57-21s19-37 19-62h-52v1c0 20-12 33-27 33s-25-11-28-30c0 0-2-11-2-29s2-28 2-28c1-17 12-29 27-29s27 10 27 29v1z" glyph-name="ion-closed-captioning" horiz-adv-x="512" unicode=""/><glyph d="M366 215c45 0 82-38 82-84s-37-83-82-83H90C41 48 0 89 0 139c0 40 26 74 61 86 5 29 29 51 59 51 10 0 18-3 26-7 19 40 59 67 105 67 64 0 115-53 115-118v-3z" glyph-name="ion-cloud" unicode=""/><glyph d="M299 164l-63-63-1-1-2-1-1-1-2-1h-2c-1 0-3-1-4-1s-3 1-4 1h-2l-2 1-1 1c-1 1-2 1-3 2l-63 63c-6 6-6 17 0 23s18 6 24 0l35-34v118c0 9 7 17 16 17s16-8 16-17V153l35 34c6 6 18 6 24 0s6-17 0-23zM136 56c-6 0-12 2-17 7L7 175c-9 9-9 25 0 34l112 112c9 9 25 9 34 0s9-25 0-34l-95-95 95-95c9-9 9-25 0-34-5-5-11-7-17-7zm176 0c-6 0-12 2-17 7-9 9-9 25 0 34l95 95-95 95c-9 9-9 25 0 34s25 9 34 0l112-112c9-9 9-25 0-34L329 63c-5-5-11-7-17-7z" glyph-name="ion-code-download" unicode=""/><glyph d="M128 192c0 16 8 24 24 24s24-8 24-24-8-24-24-24-24 8-24 24zm72 0c0 16 8 24 24 24s24-8 24-24-8-24-24-24-24 8-24 24zm72 0c0 16 8 24 24 24s24-8 24-24-8-24-24-24-24 8-24 24zM136 56c-7 0-12 2-17 7L7 175c-5 5-7 10-7 17s2 12 7 17l112 112c5 5 10 7 17 7s12-2 17-7 7-10 7-17-2-12-7-17l-95-95 95-95c5-5 7-10 7-17s-2-12-7-17-10-7-17-7zm176 0c-7 0-12 2-17 7s-7 10-7 17 2 12 7 17l95 95-95 95c-5 5-7 10-7 17s2 12 7 17 10 7 17 7 12-2 17-7l112-112c5-5 7-10 7-17s-2-12-7-17L329 63c-5-5-10-7-17-7z" glyph-name="ion-code-working" unicode=""/><glyph d="M136 56c-6 0-12 2-17 7L7 175c-9 9-9 25 0 34l112 112c9 9 25 9 34 0s9-25 0-34l-95-95 95-95c9-9 9-25 0-34-5-5-11-7-17-7zm176 0c-6 0-12 2-17 7-9 9-9 25 0 34l95 95-95 95c-9 9-9 25 0 34s25 9 34 0l112-112c9-9 9-25 0-34L329 63c-5-5-11-7-17-7z" glyph-name="ion-code" unicode=""/><glyph d="M319 191c37-7 65-40 65-79 0-20-8-39-21-54-15-17-37-26-61-26-8 0-17 1-25 3-6 1-10 3-15 5-11-15-23-25-32-33-5-5-12-7-19-7H109c-7 0-14 2-19 7-17 15-41 36-62 86S0 184 0 204s3 20 16 20h101c-5 17-37 19-37 46 0 17 15 32 28 37-2-8-3-14-3-21 0-19 39-30 39-53 0-3 0-6-1-9h56c1 5 2 10 2 14 0 36-56 36-56 84 0 28 21 55 47 62-4-14-9-23-9-35 0-32 57-50 57-88 0-13-5-25-12-37h76c13 0 16 0 16-20 0-4 0-8-1-13zM302 64c33 0 50 25 50 48s-17 43-39 47c-4-19-11-42-21-66-4-9-8-17-12-25 6-3 13-4 22-4z" glyph-name="ion-coffee" horiz-adv-x="384" unicode=""/><glyph d="M224 416c124 0 224-100 224-224S348-32 224-32 0 68 0 192c0 39 10 76 27 108-16 12-27 30-27 52 0 35 29 64 64 64 22 0 40-11 52-27 32 17 69 27 108 27zM32 352c0-10 5-20 13-26 13 17 28 32 45 45-6 8-16 13-26 13-18 0-32-14-32-32zM360 56c36 36 56 85 56 136s-20 100-56 136-85 56-136 56-100-20-136-56-56-85-56-136S52 92 88 56 173 0 224 0s100 20 136 56zm-40 264s-54-130-72-152S128 64 128 64s54 132 72 152 120 104 120 104z" glyph-name="ion-compass" unicode=""/><glyph d="M379 348c7-7 7-18 0-25l-32-31-55 55 31 32c7 7 18 7 25 0zm-97-10l55-55-177-173-64-14 14 64zm38-146l32 32V23c0-13-10-23-23-23H23C10 0 0 10 0 23v306c0 13 10 23 23 23h201l-32-32H43c-6 0-11-5-11-10V42s4-10 10-10h269s9 5 9 10v150z" glyph-name="ion-compose" horiz-adv-x="384" unicode=""/><glyph d="M0 32v64h64V32H0zm96 0v128h64V32H96zm96 0v224h64V32h-64zm96 0v320h64V32h-64z" glyph-name="ion-connection-bars" horiz-adv-x="352" unicode=""/><glyph d="M224 416c124 0 224-100 224-224S348-32 224-32 0 68 0 192s100 224 224 224zM360 56c36 36 56 85 56 136s-20 100-56 136-85 56-136 56V0c51 0 100 20 136 56z" glyph-name="ion-contrast" unicode=""/><glyph d="M320-32v48h64v-48h-64zm64 128h64V32H64v256H0v64h64v64h64V96h192v192H144v64h240V96z" glyph-name="ion-crop" unicode=""/><glyph d="M435 280c7 0 13-6 13-12V85c0-9-6-17-14-22v-1L259-30v-1c-2-1-4-1-6-1-7 0-13 6-13 12v185c0 9 5 17 13 22l3 2 172 89 2 1c2 1 3 1 5 1zm-13 49s8-3 8-9c0-7-8-11-8-11l-183-97-2-1c-4-2-8-3-13-3s-9 1-13 3l-2 1-183 96s-8 5-8 12c0 6 8 9 8 9l181 82s11 5 17 5 17-5 17-5zM195 187c8-5 13-13 13-22V-20c0-6-6-12-13-12-2 0-4 1-6 2L14 62v1C6 68 0 76 0 85v183c0 6 6 12 13 12 2 0 4 0 5-1l2-1 171-89z" glyph-name="ion-cube" unicode=""/><glyph d="M224 289c54 0 97-43 97-97s-43-97-97-97-97 43-97 97 43 97 97 97zm0-141c24 0 44 20 44 44s-20 44-44 44-44-20-44-44 20-44 44-44zm0 268c124 0 224-100 224-224S348-32 224-32 0 68 0 192s100 224 224 224zm0-347c68 0 123 55 123 123s-55 123-123 123-123-55-123-123S156 69 224 69z" glyph-name="ion-disc" unicode=""/><glyph d="M286 279c1-3 2-6 2-10V24c0-13-10-24-22-24H23C11 0 0 11 0 24v336c0 13 11 24 23 24h160c3 0 6 0 9-2 2-1 5-3 7-5l84-92c2-2 2-4 3-6zM48 269v-10c0-1 1-3 3-3h71c2 0 3 2 3 3v10c0 2-1 3-3 3H51c-2 0-3-1-3-3zm0-128v-10c0-1 1-3 3-3h123c2 0 2 2 2 3v10c0 2 0 3-2 3H51c-2 0-3-1-3-3zm160-74v10c0 2 0 3-2 3H51c-2 0-3-1-3-3V67c0-1 1-3 3-3h155c2 0 2 2 2 3zm32 128v10c0 2 0 3-2 3H51c-2 0-3-1-3-3v-10c0-1 1-3 3-3h187c2 0 2 2 2 3zm-47 75h60l-71 78v-66c0-6 5-12 11-12z" glyph-name="ion-document-text" horiz-adv-x="288" unicode=""/><glyph d="M287 279c1-3 1-5 1-9V26c0-13-9-26-21-26H24C12 0 0 13 0 26v335c0 13 12 23 24 23h160c3 0 6 0 9-2 2-1 5-2 7-4l83-92c2-2 3-4 4-7zm-94 58v-63h58zM32 32h224v210h-67c-15 0-28 13-28 28v82H32V32z" glyph-name="ion-document" horiz-adv-x="288" unicode=""/><glyph d="M0 272v32h512v-32H0zm0-96v32h512v-32H0zm0-96v32h512V80H0z" glyph-name="ion-drag" horiz-adv-x="512" unicode=""/><glyph d="M325 322c2-4 7-12 3-15-3-2-10-2-13 5s0 11-5 9-7 3-6 4c1 2 3 3 5 4 0 2-4 8 2 7 4-1 12-10 14-14zm19-45zm59-26s-2 0 0 0zM224 416c124 0 224-100 224-224S348-32 224-32 0 68 0 192s100 224 224 224zM141 19l8-4c3-1 6-2 10-3 14-5 28-8 43-10 28-3 56-1 83 8 15 5 30 11 43 20 6 4 6 16 10 24 8 16-2 33 12 47 12 14 4 19 4 34 0 10 8 18 4 29-1 4-7-3-9 1-5 7-21 1-28 2-13 2-24 14-33 23-5 5 0 20 1 26 4 15 0 33 19 38 5 1 5 9 10 11 5 1 10 3 15 4 9 1 17-2 26-2 10 0 14-5 22-11 7-6 13-3 22-5 7 0 0 5-2 8-3 2-6 2-8 2-16 4-23 22-36 30-6 3-9 2-11 0-1-1 1-12 1-12-1-3-10-4-13-5-9-2-29 17-15 22 4 1 27 5 24 15-3 6 2 13-5 14-8 1-7 7-15 8-5 1-5 11-5 14 0 9 2 6 9 7-17 11-37 19-57 24-1-3-5-12-8-12-5-1-6 0-9-3-9-10-16-28-25-7-4 11 5 19 2 28h-9c6-12-5-18-8-19-8 0-10 5-17 4-4-1-7 4-11 2s-13-8-14-12c-3-12 6-13 14-6 6 6 17 12 25 6 6-5 5-9 5-14s-1-18-9-16c-4 1-7 6-11 3-8-7-18-6-29-9-10-2-16-6-25-9-8-3-11-4-12-12 0-2 0-14-3-15-5-2-8 22-22 20-12-1-30-13-25-28 2-5 28-3 10-14-2-1 2-17 2-20 1-8 13-18 21-10 6 6 6 5 14 2 15-8 33-15 45-27 6-6 9-24 17-28 9-5 19-5 26-14 6-7-2-19-8-23-4-2-12-24-16-29-2-4-12-6-16-7-3 0-7-9-9-11-7-7-8-13-17-19-18-12-22-23-18-44 2-8 5-13 11-16zm-41 27l2-2c7-6 15-11 23-16-21 21-23 49-21 78l3 24c1 3-4 7-4 11 0 10 0 5-8 13-4 4-10 11-12 17-7 16 1 30 10 43 9 14-7 20-10 32-1 6-7 6-6 12 1 7-4 5-9 9-12 8-1 20-7 26-43-70-36-162 16-224 1-1 0-1 1-2h1c3-4 6-8 9-11s7-6 10-9z" glyph-name="ion-earth" unicode=""/><glyph d="M48 112v192h352V112H48zm384 240c9 0 16-7 16-16V80c0-9-7-16-16-16H16C7 64 0 71 0 80v256c0 9 7 16 16 16h416zM416 96v224H32V96h384zM48-32l29 80h31L80-32H48zm191 448l17-48h-64l17 48h30zM340 48h31l29-80h-32zM208 0v48h32V0h-32z" glyph-name="ion-easel" unicode=""/><glyph d="M381 259L131 8 40 99l251 250zm59 101c12-12 11-32-2-45l-45-45-91 91 45 45c13 13 33 14 45 2zM32 85l85-85L0-32z" glyph-name="ion-edit" unicode=""/><glyph d="M160 416c64 0 160-133 160-257S256-32 160-32 0 35 0 159s96 257 160 257z" glyph-name="ion-egg" horiz-adv-x="320" unicode=""/><glyph d="M303 128H17c-10 0-17 7-17 16 0 3 1 5 3 8l138 191c5 5 11 9 19 9s14-4 19-9l138-190c2-3 3-6 3-9 0-9-7-16-17-16zm5-32c7 0 12-5 12-12V44c0-7-5-12-12-12H12C5 32 0 37 0 44v40c0 7 5 12 12 12h296z" glyph-name="ion-eject" horiz-adv-x="320" unicode=""/><glyph d="M352 288c0 43 21 64 64 64s64-21 64-64-21-64-64-64-64 21-64 64zm-143 0h127c0-17 5-33 15-47-6-3-14-8-22-12s-16-8-23-12-14-8-22-12-15-8-21-11-11-6-16-9-9-5-12-7-4-3-5-3c-6-3-13-4-21-4s-15 1-21 4c-1 1-15 8-42 23s-54 29-81 44-43 23-46 25c-7 4-12 8-13 11-1 4-1 6 1 8s6 2 11 2h191zm68-113c18 11 45 30 83 56 16-15 34-23 56-23V53c0-2-1-4-2-7s-3-5-5-7-4-4-7-5-6-2-8-2H24c-5 0-11 2-16 7s-8 9-8 14v205c0 6 3 8 9 5 2-1 11-7 26-17s32-22 53-36 39-26 53-35L58 82c-2-2-2-4-1-5 2-1 4-1 6 1l98 83c16-10 25-16 27-17 6-3 13-4 21-4s15 1 21 4c2 1 11 7 27 17l98-83c2-2 5-2 6-1s0 3-2 5z" glyph-name="ion-email-unread" horiz-adv-x="480" unicode=""/><glyph d="M19 299c-4 2-11 7-13 11-3 8 1 10 12 10h382c11 0 15-2 12-10-2-4-9-9-13-11-11-6-163-89-169-92s-12-4-21-4-15 1-21 4-158 86-169 92zm389-4c9 4 8-1 8-5V85c0-9-12-21-22-21H24C14 64 0 76 0 85v205s0 9 9 5c8-4 83-56 132-88l-83-93c-2-2-2-4-1-5s4-1 6 1l98 83c15-10 25-16 27-17 8-4 14-4 21-4s13 0 21 4c2 1 12 7 27 17l98-83c2-2 5-2 6-1s0 3-2 5l-82 93c49 32 123 84 131 88z" glyph-name="ion-email" horiz-adv-x="416" unicode=""/><glyph d="M382 21c2-4 3-10 0-14s-8-7-13-7H14C9 0 5 3 2 7S0 17 2 21l118 199v150c0 8 6 14 14 14s15-6 15-14v-80c4 3 10 5 16 5 15 0 27-12 27-27s-12-26-27-26c-6 0-12 2-16 5v-31c0-2-1-4-2-6l-35-59h72c-15 6-26 20-26 37 0 23 19 42 43 42 15 0 27-8 35-19-1 2-1 3-1 5v154c0 8 6 14 14 14s15-6 15-14V220zM218 151h53l-31 54c2-5 3-11 3-17 0-17-10-31-25-37zm-17 168c-12 0-22 9-22 21s10 21 22 21 22-9 22-21-10-21-22-21z" glyph-name="ion-erlenmeyer-flask-bubbles" horiz-adv-x="384" unicode=""/><glyph d="M375 52c6-9 9-20 9-32 0-28-16-52-63-52H63C16-32 0-8 0 20c0 12 3 23 9 32l49 73 49 77c13 20 21 44 21 70v92s-14 34-16 43c-2 8 1 9 17 9h126c16 0 18-1 16-9-2-9-15-22-15-42v-93c0-26 6-50 19-70zM345 7c3 3 7 8 7 14 0 5-2 10-4 14L247 185c-16 26-23 56-23 87v112h-64V272c0-32-9-62-25-87L36 35c-2-4-4-9-4-14 0-6 3-11 6-14 4-4 12-7 25-7h258c13 0 20 3 24 7zm-20 30c1-2 3-6 3-8 0-7-6-15-14-15H70c-7 0-14 6-14 14 0 3 1 6 3 8l81 124h103l82-124v1zm-87 69c2-1 4-2 6-2s3 0 5 2c1 2 3 4 3 6s-1 4-3 6c-1 2-3 2-5 2s-4 0-6-2c-1-2-2-4-2-6s0-4 2-6zm47-59c4 2 4 7 2 11l-23 36c-1 2-4 4-7 4-2 0-3 0-4-1-4-2-4-7-2-11l23-36c1-2 5-4 7-4 1 0 3 0 4 1z" glyph-name="ion-erlenmeyer-flask" horiz-adv-x="384" unicode=""/><glyph d="M344 290c41-27 76-66 104-100-51-54-124-135-224-135-36 0-65 8-92 22L55 0 32 23l71 71c-36 25-68 61-103 98 78 85 142 137 224 137 34 0 64-9 92-23l77 78 23-23zm-210-98c0-19 6-36 16-51l27 27c-4 7-5 15-5 24 0 29 23 53 52 53h8c-5-6-8-13-8-21 0-3 0-5 1-8l51 50c-15 11-33 17-52 17-49 0-90-41-90-91zm90-91c49 0 90 41 90 91 0 19-6 37-16 52l-50-51c3-1 5-1 8-1 8 0 14 3 20 7v-7c0-29-23-53-52-53-9 0-17 2-24 6l-28-27c15-11 33-17 52-17z" glyph-name="ion-eye-disabled" unicode=""/><glyph d="M224 320c99 0 172-70 224-129-51-50-124-127-224-127S67 124 0 192c78 79 142 128 224 128zm0-219c49 0 90 41 90 91s-41 91-90 91-90-41-90-91 41-91 90-91zm0 123c0-18 14-32 32-32 8 0 14 3 20 7v-7c0-29-23-53-52-53s-52 24-52 53 23 53 52 53h8c-5-6-8-13-8-21z" glyph-name="ion-eye" unicode=""/><glyph d="M160 164V96h64V32h-64v-64H96v64H32v64h64v68C41 178 0 228 0 288c0 71 57 128 128 128s128-57 128-128c0-60-41-110-96-124zm-32 44c44 0 80 36 80 80s-36 80-80 80-80-36-80-80 36-80 80-80z" glyph-name="ion-female" horiz-adv-x="256" unicode=""/><glyph d="M317 319c12 0 19 0 19-20v-28H48v28c0 20 8 20 20 20h249zm-48 33c13 0 19-1 19-19H96c0 18 7 19 20 19h153zm99-74c13-8 17-17 15-41L366 53c-4-21-16-21-24-21H42c-8 0-20 0-24 21L1 238c-3 26 1 31 15 40l15 10v-32h321v32z" glyph-name="ion-filing" horiz-adv-x="384" unicode=""/><glyph d="M400 240c9 0 16-7 16-15V15c0-8-7-15-16-15H16C7 0 0 7 0 15v210c0 8 6 14 13 15-2 2-3 4-4 7l-9 45c-2 8 5 16 13 18l370 74c8 2 16-4 18-12l9-46c2-8-4-16-12-18L56 240h344zM257 46l-20 58 51 36h-62l-20 58-19-58h-63l51-36-19-58 50 36z" glyph-name="ion-film-marker" horiz-adv-x="416" unicode=""/><glyph d="M297 210c14-24 23-52 23-82 0-33-10-63-26-88-29-43-78-72-134-72-17 0-32 1-46 7S89-12 81 0C70 16 64 28 60 52c-6-25 2-48 9-60C26 18 0 63 0 117v4c5 78 65 109 90 151 8 14 13 30 10 48 11-9 15-25 15-39 0-16-3-29-3-29 4 8 7 18 9 31 6 35 2 85-37 132l-1 1s7 0 18-3c95-16 169-91 184-186 2-12 3-23 3-35 0-16-2-32-5-47 10 23 13 43 14 55v10z" glyph-name="ion-fireball" horiz-adv-x="320" unicode=""/><glyph d="M362 266s12 2 22 6c0-16-7-32-9-36-28-50-99-123-181-84-65 31-92 30-117 24-1 0-2-1-3-1-3-1-15-5-26-1v197c0 16 14 31 33 35 39 7 106 5 148-74 39-74 97-72 133-66zM24 416c4 0 8-4 8-8V-24c0-4-4-8-8-8H8c-4 0-8 4-8 8v432c0 4 4 8 8 8h16z" glyph-name="ion-flag" horiz-adv-x="384" unicode=""/><glyph d="M1 128c-11 109 72 224 159 288-26-145 97-142 96-288C255 8 151-32 128-32S14-6 1 128zm87-48c0-44 40-80 40-80s41 36 41 80-41 80-41 80-40-36-40-80z" glyph-name="ion-flame" horiz-adv-x="256" unicode=""/><glyph d="M115-4C46 34 0 108 0 192c0 124 100 224 224 224 24 0 47-4 68-11 2-1 3-1 5-2 12-4 24-9 35-15 69-38 116-112 116-196C448 68 348-32 224-32c-24 0-47 4-68 11-2 1-3 1-5 2-12 4-24 8-35 14zM86 291c-20-28-32-62-32-99 0-65 36-121 90-150 6-3 13-7 19-9 2-1 3-1 5-2 9-3 19-5 29-7 9-2 18-2 27-2 37 0 71 12 99 32l-52 53 36 40 55-54c20 28 32 62 32 99 0 66-37 123-91 151-6 3-12 6-18 8-2 1-3 1-5 2-9 3-19 5-29 7-9 2-18 2-27 2-37 0-72-12-100-32l53-52-36-41zm92-233l38 113h-85l139 155-38-113h85z" glyph-name="ion-flash-off" unicode=""/><glyph d="M0 160l224 256-51-192h147L96-32l51 192H0z" glyph-name="ion-flash" horiz-adv-x="320" unicode=""/><glyph d="M366 256c18 0 19-7 18-18L372 52c-1-11-3-20-21-20H34c-18 0-20 9-21 20L0 236c-1 11 0 20 18 20h348zm-4 49l2-33H20c0 6 4 46 6 63 2 18 8 17 25 17h75c28 0 23 0 37-15 16-18 19-17 41-17h143c11 0 15-3 15-15z" glyph-name="ion-folder" horiz-adv-x="384" unicode=""/><glyph d="M320 368v-64h-48v-48h-64v48h-48v64h48v48h64v-48h48zM208 208h64v-5c0-43-7-70-38-95-23-19-51-20-75-22-9-1-18-2-26-3-6-1-13-5-20-10 9-11 15-25 15-41 0-35-29-64-64-64S0-3 0 32c0 24 13 44 32 55v210c-19 11-32 31-32 55 0 35 29 64 64 64s64-29 64-64c0-24-13-44-32-55V137c8 4 18 7 27 9 11 2 21 2 31 3 17 1 33 3 40 9 10 8 14 11 14 50zM64 384c-18 0-32-14-32-32s14-32 32-32 32 14 32 32-14 32-32 32zM64 0c18 0 32 14 32 32S82 64 64 64 32 50 32 32 46 0 64 0z" glyph-name="ion-fork-repo" horiz-adv-x="320" unicode=""/><glyph d="M78 299zm50-17c0-26-15-48-37-58-12-6-11-11-11-11S96 13 96 0s-3-18-9-24-15-8-23-8-16 2-22 8S32-11 32 0s16 213 16 213 0 6-11 11c-22 10-37 32-37 58 0 43 15 93 24 134h8V299c0-6 3-11 9-11s9 4 10 10v1l9 117h8l10-117v-1c1-6 3-10 9-10s9 5 9 11v117h8c9-40 24-91 24-134z" glyph-name="ion-fork" horiz-adv-x="128" unicode=""/><glyph d="M224 150C122 150 53 141 0 48c0 0 37 208 224 208v80l160-144L224 58v92z" glyph-name="ion-forward" horiz-adv-x="384" unicode=""/><glyph d="M224 416c124 0 224-36 224-80 0-8-3-15-9-22-35-43-151-179-151-218V9c0-23-29-41-64-41s-64 18-64 41v87c0 39-117 177-149 216-7 8-11 16-11 24 0 44 100 80 224 80zm0-128c92 0 176 22 176 48s-83 48-176 48-176-22-176-48 84-48 176-48z" glyph-name="ion-funnel" unicode=""/><glyph d="M347 192c0-24 15-43 37-56-4-13-10-26-16-38-25 6-45-3-62-20s-22-37-16-62c-12-6-25-12-38-16-13 22-36 37-60 37s-47-15-60-37c-13 4-27 10-39 16 6 25 2 45-15 62S41 99 16 93c-6 12-12 26-16 39 22 13 37 36 37 60s-15 43-37 56c4 13 9 26 16 38 25-6 45 3 62 20s21 37 15 62c12 6 26 12 39 16 13-22 36-37 60-37s47 15 60 37c13-4 27-10 39-16-6-25-2-45 15-62s37-26 62-20c6-12 12-25 16-38-22-13-37-32-37-56zM192 94c54 0 98 44 98 98s-44 98-98 98-98-44-98-98 44-98 98-98z" glyph-name="ion-gear-a" horiz-adv-x="384" unicode=""/><glyph d="M384 154h-44c-4-14-10-27-17-39l32-32-54-54-33 32c-12-7-24-11-38-15V0h-76v46c-13 4-26 8-38 15L83 29 29 83l32 32c-7 12-13 25-17 39H0v76h43c4 14 9 29 16 41l-30 30 54 54 29-29c13 8 27 13 42 17v41h76v-41c15-4 29-9 42-17l29 29 54-54-30-30c7-12 13-27 16-41h43v-76zm-192-16c30 0 54 24 54 54s-24 54-54 54-54-24-54-54 24-54 54-54z" glyph-name="ion-gear-b" horiz-adv-x="384" unicode=""/><glyph d="M64 295c0-4-3-7-7-7H7c-4 0-7 3-7 7v50c0 4 3 7 7 7h50c4 0 7-3 7-7v-50zm128 0c0-4-3-7-7-7h-50c-4 0-7 3-7 7v50c0 4 3 7 7 7h50c4 0 7-3 7-7v-50zm128 0c0-4-3-7-7-7h-50c-4 0-7 3-7 7v50c0 4 3 7 7 7h50c4 0 7-3 7-7v-50zM64 167c0-4-3-7-7-7H7c-4 0-7 3-7 7v50c0 4 3 7 7 7h50c4 0 7-3 7-7v-50zm128 0c0-4-3-7-7-7h-50c-4 0-7 3-7 7v50c0 4 3 7 7 7h50c4 0 7-3 7-7v-50zm128 0c0-4-3-7-7-7h-50c-4 0-7 3-7 7v50c0 4 3 7 7 7h50c4 0 7-3 7-7v-50zM64 39c0-4-3-7-7-7H7c-4 0-7 3-7 7v50c0 4 3 7 7 7h50c4 0 7-3 7-7V39zm128 0c0-4-3-7-7-7h-50c-4 0-7 3-7 7v50c0 4 3 7 7 7h50c4 0 7-3 7-7V39zm128 0c0-4-3-7-7-7h-50c-4 0-7 3-7 7v50c0 4 3 7 7 7h50c4 0 7-3 7-7V39z" glyph-name="ion-grid" horiz-adv-x="320" unicode=""/><glyph d="M314 416c3 0 6-3 6-6v-84c0-3-3-6-6-6h-52c-3 0-6 3-6 6v14c-6 5-16 9-22 7-7-2-23-13-30-25s-6-28-6-66l8-2c5-1 7-6 7-9v-70c0-95 11-201 11-201 0-3-3-6-6-6h-84c-3 0-6 3-6 6 0 0 11 106 11 201v70c0 3 3 8 7 9l7 2c0 43-5 58-22 74-18 16-41 19-63 17s-51-35-58-45-10 2-10 11c1 16 22 60 72 81s91 22 102 22 27-1 38-3 16-18 26-18c7 0 14 5 18 9v6c0 3 3 6 6 6h52z" glyph-name="ion-hammer" horiz-adv-x="320" unicode=""/><glyph d="M355 158c8-4 11-13 7-21-24-46-78-73-138-73-62 0-118 29-139 74-4 8 0 17 8 21 2 1 5 1 7 1 6 0 11-3 14-9 16-34 60-55 110-55 49 0 92 21 110 56 3 5 8 8 14 8 3 0 5-1 7-2zm26 59c5-7 4-17-4-22-3-2-6-3-10-3-5 0-11 2-14 6s-7 10-17 10-14-6-17-10-9-6-14-6c-4 0-7 1-10 3-8 6-9 15-3 22 11 14 23 23 44 23s35-9 45-23zm-224 0c5-7 4-17-4-22-3-2-6-3-10-3-5 0-11 2-14 6s-7 10-17 10-14-6-17-10-9-6-14-6c-4 0-7 1-10 3-8 6-9 15-3 22 11 14 23 23 44 23s35-9 45-23zm67 199c124 0 224-100 224-224S348-32 224-32 0 68 0 192s100 224 224 224zM360 56c36 36 56 85 56 136s-20 100-56 136-85 56-136 56-100-20-136-56-56-85-56-136S52 92 88 56 173 0 224 0s100 20 136 56z" glyph-name="ion-happy-outline" unicode=""/><glyph d="M224 416c124 0 224-100 224-224S348-32 224-32 0 68 0 192s100 224 224 224zM71 195c3-2 6-3 10-3 5 0 11 2 14 6s7 10 17 10 14-6 17-10 9-6 14-6c4 0 7 1 10 3 8 5 9 15 4 22-10 14-24 23-45 23s-33-9-44-23c-6-7-5-16 3-22zm291-58c4 8 1 17-7 21-2 1-4 2-7 2-6 0-11-3-14-8-18-35-61-56-110-56-50 0-94 21-110 55-3 6-8 9-14 9-2 0-5 0-7-1-8-4-12-13-8-21 21-45 77-74 139-74 60 0 114 27 138 73zm15 58c8 5 9 15 4 22-10 14-24 23-45 23s-33-9-44-23c-6-7-5-16 3-22 3-2 6-3 10-3 5 0 11 2 14 6s7 10 17 10 14-6 17-10 9-6 14-6c4 0 7 1 10 3z" glyph-name="ion-happy" unicode=""/><glyph d="M383 210c3-51-3-130-13-162-20-67-40-80-72-80s-58 27-58 59v106c0 33 23 59 53 59 18 0 34-9 44-24 0 0 11 7 13 22s4 34-5 64-21 19-36 38c-2 3-5 7-8 10l-10 10c-2 2-3 3-5 4-11 9-21 17-34 23-19 9-39 13-60 13s-42-4-61-13c-13-6-22-14-33-23-2-1-3-2-5-4l-10-10s-6-7-8-10c-15-19-27-8-36-38-9-31-7-49-5-64s13-22 13-22c10 15 26 24 44 24 30 0 53-27 53-59V27c0-32-26-59-58-59S34-19 14 48C4 80-2 159 1 210c3 60 22 108 56 145 8 8 15 16 24 23s19 13 29 18c25 13 53 20 82 20s57-7 82-20c10-5 19-11 28-18s17-15 25-23c34-37 53-85 56-145z" glyph-name="ion-headphone" horiz-adv-x="384" unicode=""/><glyph d="M181 160c0-36-2-71 4-107 2-10 2-20 2-31L34 181c-45 47-45 124 0 171 40 41 103 43 144 3-2-15-3-31-3-46-18-14-40-21-56-39l11 7c17 11 15 8 35 14 3 1 8 3 11 5 0-1-1-5-1-6 1-20 11-39 15-60 0-5 1-10-1-15-8-17-7-37-8-55zm93-13c8-18 23-29 38-39L208 0l-17 18c0 13-4 26-4 38-2 48 10 94 21 142 1-1 2-1 3-1 30-6 52-24 63-50zm108 205c46-47 46-124 0-171l-68-70c-28 24-42 54-65 81-12 13-26 23-41 32-3 13-8 26-11 39-3 12 14 21 16 31 3 12 3 26 3 39l19 19c40 42 107 42 147 0z" glyph-name="ion-heart-broken" horiz-adv-x="416" unicode=""/><glyph d="M382 352c46-47 46-124 0-171L208 0 34 181c-46 47-46 124 0 171 40 42 107 42 147 0l27-28 28 28c40 42 106 42 146 0z" glyph-name="ion-heart" horiz-adv-x="416" unicode=""/><glyph d="M224 416c124 0 224-100 224-224S348-32 224-32 0 68 0 192s100 224 224 224zm178-152c-10 24-23 45-42 64s-41 32-65 42l-19-61c14-6 27-15 38-26s21-24 27-38zM224 96c53 0 96 43 96 96s-43 96-96 96-96-43-96-96 43-96 96-96zM88 328c-19-19-32-41-42-65l61-19c6 14 15 27 26 38s24 21 38 27l-19 61c-24-10-45-23-64-42zM46 120c10-24 23-45 42-64s41-32 65-42l19 61c-14 6-27 15-38 26s-21 24-27 38zm314-64c19 19 32 41 42 65l-61 19c-6-14-15-27-26-38s-24-21-38-27l19-61c24 10 45 23 64 42z" glyph-name="ion-help-buoy" unicode=""/><glyph d="M224 416c124 0 224-100 224-224S348-32 224-32 0 68 0 192s100 224 224 224zm20-327c1 18-12 31-29 31-16 0-30-11-30-29s12-30 28-30c17 0 31 10 31 28zm49 128c7 10 12 22 12 36 0 23-9 40-25 52-17 13-37 18-62 18-19 0-34-4-47-13-19-13-28-34-28-68h49c0 9-1 19 4 27s13 15 26 15 19-3 25-11c5-7 8-15 8-23 0-7-4-14-8-20-2-4-6-7-10-10 0 0-26-15-35-30-7-11-9-24-10-41 0-1 0-4 4-4h39s5 3 5 4c0 6 1 15 2 19 2 7 6 12 12 17l14 9c12 9 21 17 25 23z" glyph-name="ion-help-circled" unicode=""/><glyph d="M217 371c25-19 39-46 39-83 0-22-8-42-19-57-7-9-21-21-40-36l-21-14c-10-8-17-18-20-28-2-6-3-19-3-29 0-2-1-6-7-6H84c-7 0-7 3-7 5 1 26 4 49 15 66 15 23 57 48 57 48 6 5 11 9 15 15 7 10 12 21 12 32 0 13-3 26-11 36-10 12-21 18-41 18s-32-11-40-24-7-29-7-43H0c0 54 14 88 44 108 20 14 45 20 75 20 39 0 70-7 98-28zM114 78c27-1 47-20 46-48s-22-46-49-45C85-14 65 4 66 32s22 47 48 46z" glyph-name="ion-help" horiz-adv-x="256" unicode=""/><glyph d="M384 160h-48V0h-96v128h-96V0H48v160H0l192 224z" glyph-name="ion-home" horiz-adv-x="384" unicode=""/><glyph d="M32 192h256L160-32zm275 83c8-5 13-13 13-23 0-16-14-28-30-28H30c-16 0-30 13-30 28 0 10 6 18 14 23 1 0 1 2 2 2 4 3 7 7 8 12v1c-2 6-2 12-2 18 0 42 34 76 76 76 8 0 16-2 23-4-3-12-4-31-4-31 2 15 11 29 11 29 18 23 46 38 77 38 53 0 96-43 96-96 0-11-2-21-5-30v-1c0-4 4-9 8-12 1 0 2-2 3-2z" glyph-name="ion-icecream" horiz-adv-x="320" unicode=""/><glyph d="M336 224c-26 0-48 22-48 48s22 48 48 48 48-22 48-48-22-48-48-48zm84 160c16 0 28-12 28-28V28c0-16-12-28-28-28H28C12 0 0 12 0 28v328c0 16 12 28 28 28h392zM317 186l99-106v260c0 7-6 12-13 12H45c-7 0-12-5-13-12V80l126 152c4 4 10 8 17 8s13-2 17-7l54-59 4-4c3-2 7-4 11-4s8 2 12 5l18 16c4 3 8 5 13 5s10-2 13-6z" glyph-name="ion-image" unicode=""/><glyph d="M426 308c13-1 23-12 22-24L434 21c-1-13-12-22-25-21L79 16c-13 1-23 10-22 23l2 46-15-1c-12-1-22 7-23 18L0 338c-1 11 7 21 19 22l296 24c12 1 22-7 23-18l5-54zm-355-6c1 12 11 22 24 22l219-11-2 31h-1v1c-1 5-5 8-10 8L40 331c-5 0-10-4-10-9v-1l16-178 18 25zM405 66l10 198v1c0 6-5 10-11 10l-58 3-29 2-204 9c-6 0-11-4-12-9v-1l-3-63-7-128v-7l6 7 102 109c4 4 8 6 14 6s11-3 14-7l43-49 3-3c2-2 6-4 10-4s5 1 9 3l17 12c4 3 7 4 11 4s9-2 11-5l27-33zm-64 120c-20 0-35 15-35 35s16 35 35 35c20 0 35-16 35-35s-16-35-35-35z" glyph-name="ion-images" unicode=""/><glyph d="M448 195c2-124-97-225-221-227S2 65 0 189s97 225 221 227 225-97 227-221zM224 336c-18 0-32-14-32-32s14-32 32-32 32 14 32 32-14 32-32 32zm44-283v11h-22v172h-66v-12h22V64h-22V53h88z" glyph-name="ion-information-circled" unicode=""/><glyph d="M96 0h32v-16H0V0h32v240H0v16h96V0zM64 304c-27 0-48 21-48 48s21 48 48 48 48-21 48-48-21-48-48-48z" glyph-name="ion-information" horiz-adv-x="128" unicode=""/><glyph d="M376 315c25-34 40-77 40-123 0-115-93-208-208-208S0 77 0 192s93 208 208 208c46 0 89-15 123-40 5 3 11 5 18 5 18 0 32-14 32-32 0-7-2-13-5-18zM344 56c18 18 31 38 41 61 10 24 15 49 15 75s-5 51-15 75c-6 13-13 26-21 38-4-2-10-4-15-4-18 0-32 14-32 32 0 5 2 11 4 15-12 8-25 15-38 21-24 10-49 15-75 15s-51-5-75-15c-23-10-43-23-61-41s-31-38-41-61c-10-24-15-49-15-75s5-51 15-75c10-23 23-43 41-61s38-31 61-41c24-10 49-15 75-15s51 5 75 15c23 10 43 23 61 41zM112 192c0 64 32 96 96 96s96-32 96-96-32-96-96-96-96 32-96 96z" glyph-name="ion-ionic" horiz-adv-x="416" unicode=""/><glyph d="M384 256l-54 52-9-9c35-32 57-79 57-130 0-44-16-83-43-114l36-45-12-10-35 43C292 13 249-6 202-6S112 13 80 43L45 0 33 10l36 45c-27 31-43 71-43 115 0 51 22 97 57 129l-9 9-54-52C8 270 0 288 0 308c0 44 35 80 80 82h5c20 0 39-7 54-18l-54-52 11-11c26 19 56 32 90 35 0 8 8 16 16 16s15-8 15-16c34-3 65-16 91-35l11 11-54 52c15 11 34 18 54 18h5c45-2 80-38 80-82 0-20-8-38-20-52zM22 280l91 89c-9 5-19 7-32 6-37-2-65-32-65-67 0-10 2-19 6-28zm340-108c0 88-72 158-160 158S42 260 42 172 114 14 202 14s160 70 160 158zm-71 197l91-89c4 9 6 18 6 28 0 35-28 65-65 67-13 1-23-1-32-6zm-89-81h16V144H106v16h96v128z" glyph-name="ion-ios-alarm-outline" horiz-adv-x="404" unicode=""/><glyph d="M385 256l-55 52-9-9c35-32 57-79 57-130 0-44-16-83-43-114l37-45-13-10-35 43C292 13 249-6 202-6S112 13 80 43L45 0 33 10l36 45c-27 31-43 70-43 114 0 51 22 98 57 130l-9 9-54-52C8 270 0 288 0 308c0 44 35 80 80 82h5c20 0 39-7 54-18l-54-53 11-10c26 19 56 32 90 35 0 8 8 16 16 16s15-8 15-16c34-3 65-16 91-35l11 11-54 52c15 11 34 18 54 18h5c45-2 80-38 80-82 0-20-7-38-19-52zM218 144v144h-16V160h-96v-16h112z" glyph-name="ion-ios-alarm" horiz-adv-x="404" unicode=""/><glyph d="M432 304H16V16h416v288zm16 16V0H0v320h448zM40 336v16h368v-16H40zm32 32v16h304v-16H72z" glyph-name="ion-ios-albums-outline" unicode=""/><glyph d="M448 320V0H0v320h448zM40 336v16h368v-16H40zm32 32v16h304v-16H72z" glyph-name="ion-ios-albums" unicode=""/><glyph d="M331 315c112-112 81-327 81-327s-26-4-65-4C274-16 158-4 85 69-27 181 4 396 4 396s26 4 65 4c73 0 189-12 262-85zM17 383c-2-19-5-60 0-107 1-8 2-16 3-23l127 127c-25 3-51 5-78 5-22 0-41-1-52-2zM96 80c30-30 72-53 124-66 10-3 20-5 31-7l142 142c-4 22-10 44-17 63-14 37-32 68-56 92-30 30-72 53-124 66-10 3-20 5-31 7L23 235c4-22 10-44 17-63 14-37 32-68 56-92zM399 1c2 19 5 60 0 107-1 8-2 16-3 23L269 4c25-3 51-5 78-5 22 0 41 1 52 2zM259 130l-28-29-12 12 29 28-23 23-28-29-12 12 29 28-23 23-28-29-12 12 29 28-23 23-28-29-12 12 29 28-22 23-29-29-11 12 67 67 12-11-29-29 23-22 28 29 12-12-29-28 23-23 28 29 12-12-29-28 23-23 28 29 12-12-29-28 22-23 29 29 12-12-29-28 22-23 29 29 11-12-67-67-12 11 29 29z" glyph-name="ion-ios-americanfootball-outline" horiz-adv-x="416" unicode=""/><glyph d="M331 315c112-112 81-327 81-327s-26-4-65-4C274-16 158-4 85 69-27 181 4 396 4 396s26 4 65 4c73 0 189-12 262-85zM20 253l3-18 142 142-18 3zm199-140l12-12 28 29 23-22-29-29 12-11 67 67-11 12-29-29-22 23 29 28-12 12-28-29-23 23 29 28-12 12-28-29-23 23 29 28-12 12-28-29-23 23 29 28-12 12-28-29-23 22 29 29-12 11-67-67 11-12 29 29 22-23-29-28 12-12 28 29 23-23-29-28 12-12 28 29 23-23-29-28 12-12 28 29 23-23zM269 4l127 127-3 18L251 7z" glyph-name="ion-ios-americanfootball" horiz-adv-x="416" unicode=""/><glyph d="M224 400c-28 0-55-5-81-16-25-10-47-26-66-45s-35-41-45-66c-11-26-16-53-16-81s5-55 16-81c10-25 26-47 45-66s41-35 66-45c26-11 53-16 81-16s55 5 81 16c25 10 47 26 66 45s35 41 45 66c11 26 16 53 16 81s-5 55-16 81c-10 25-26 47-45 66s-41 35-66 45c-26 11-53 16-81 16zm0 16c124 0 224-100 224-224S348-32 224-32 0 68 0 192s100 224 224 224zM76 128c-25 0-41 18-42 19-3 3-2 9 1 12s8 2 11-1c1-1 15-17 36-14 12 2 27 26 38 42 4 6 9 12 12 16 17 21 34 23 45 21 24-3 45-28 54-50 7-18 18-28 32-29 15-1 31 11 43 30 1 2 3 4 4 7 9 17 24 43 52 43 31 0 52-35 53-36 2-4 1-9-3-11s-9-1-11 3c0 0-5 8-12 15-6 6-16 13-27 13-18 0-29-19-38-35-1-3-3-5-4-7-15-25-36-40-58-38-20 1-36 15-46 39s-28 39-41 41c-11 1-21-4-31-16-3-4-6-9-10-15-14-20-31-45-50-48-3 0-5-1-8-1z" glyph-name="ion-ios-analytics-outline" unicode=""/><glyph d="M224 416c124 0 224-100 224-224 0-13-1-25-3-37-1-6-2-12-3-17C418 40 329-32 224-32 102-32 3 66 0 187v5c0 9 1 17 2 26 13 111 107 198 222 198zm207-248c1 8 1 16 1 24 0 28-5 55-16 81-10 25-26 47-45 66s-41 35-66 45c-26 11-53 16-81 16s-55-5-81-16c-25-10-47-26-66-45s-35-41-45-66c-11-26-16-53-16-81 14-21 29-34 29-34h1v-1c1-1 15-16 36-13 12 2 27 26 38 42 4 6 9 12 12 16 17 21 34 23 45 21 24-3 45-27 54-50 7-18 18-28 32-29 15-1 31 9 43 29 1 2 3 4 4 7 9 17 24 44 52 44 31 0 52-35 53-36 3-4 9-12 16-20z" glyph-name="ion-ios-analytics" unicode=""/><glyph d="M192 320L65 192 192 64l-32-32L0 192l160 160z" glyph-name="ion-ios-arrow-back" horiz-adv-x="192" unicode=""/><glyph d="M301 288l19-21L160 96 0 267l19 21 141-150z" glyph-name="ion-ios-arrow-down" horiz-adv-x="320" unicode=""/><glyph d="M0 320l32 32 160-160L32 32 0 64l127 128z" glyph-name="ion-ios-arrow-forward" horiz-adv-x="192" unicode=""/><glyph d="M192 333L42 192 192 51l-21-19L0 192l171 160z" glyph-name="ion-ios-arrow-left" horiz-adv-x="192" unicode=""/><glyph d="M0 333l21 19 171-160L21 32 0 51l150 141z" glyph-name="ion-ios-arrow-right" horiz-adv-x="192" unicode=""/><glyph d="M190 126c2-2 2-4 2-6s0-4-2-6c0 0-87-79-88-80s-3-2-6-2-5 1-6 2-88 80-88 80c-3 3-3 9 0 12s9 3 12 0l74-67v285c0 4 4 8 8 8s8-4 8-8V59l74 67c3 3 9 3 12 0z" glyph-name="ion-ios-arrow-thin-down" horiz-adv-x="192" unicode=""/><glyph d="M94 98c-2-2-4-2-6-2s-4 0-6 2c0 0-79 87-80 88s-2 3-2 6 1 5 2 6 80 88 80 88c3 3 9 3 12 0s3-9 0-12l-67-74h285c4 0 8-4 8-8s-4-8-8-8H27l67-74c3-3 3-9 0-12z" glyph-name="ion-ios-arrow-thin-left" horiz-adv-x="320" unicode=""/><glyph d="M226 98c-3 3-3 9 0 12l67 74H8c-4 0-8 4-8 8s4 8 8 8h285l-67 74c-3 3-3 9 0 12s9 3 12 0c0 0 79-87 80-88s2-3 2-6-1-5-2-6-80-88-80-88c-2-2-4-2-6-2s-4 0-6 2z" glyph-name="ion-ios-arrow-thin-right" horiz-adv-x="320" unicode=""/><glyph d="M190 258c-3-3-9-3-12 0l-74 67V40c0-4-4-8-8-8s-8 4-8 8v285l-74-67c-3-3-9-3-12 0s-3 9 0 12c0 0 87 79 88 80s3 2 6 2 5-1 6-2 88-80 88-80c2-2 2-4 2-6s0-4-2-6z" glyph-name="ion-ios-arrow-thin-up" horiz-adv-x="192" unicode=""/><glyph d="M301 96L160 246 19 96 0 117l160 171 160-171z" glyph-name="ion-ios-arrow-up" horiz-adv-x="320" unicode=""/><glyph d="M236 127v1h19l-3-6c-3-6-13-19-22-27s-18-14-28-20-21-10-32-13-23-5-34-5c-16 0-33 3-49 8S57 78 44 89c-12 11-26 29-34 46-7 16-10 33-10 58 0 18 4 38 11 55 7 16 17 30 29 42s27 21 43 28c15 6 33 9 53 9 16 0 32-3 46-8 15-5 28-12 39-22s17-21 24-35c6-13 8-26 8-44 0-14-2-28-7-40s-9-20-17-30c-8-9-13-15-23-21-11-6-20-9-29-9-8 0-15 2-20 7-3 2-5 6-6 9-6-6-11-10-17-12-10-3-18-4-26-4s-15 1-21 4-12 7-17 12-8 11-11 18-5 14-5 22c0 12 3 24 7 36v2c4 11 5 16 13 26 8 11 17 19 28 26s24 11 38 11c12 0 21-3 31-9 7-4 12-10 16-16l6 17h18l-38-102c-2-5-4-10-5-14s-1-7-1-10c0-2 1-4 3-5s4-2 8-2c6 0 11 2 20 7 8 4 12 9 19 17 6 8 10 14 14 25s6 23 6 35c0 15-2 25-7 36-6 13-10 22-19 30s-20 15-33 20-27 7-42 7c-19 0-35-3-48-9-15-6-27-14-37-24-11-10-19-23-25-37-6-15-10-32-10-48 0-22 2-36 8-49 6-15 17-31 28-41s24-18 38-23 30-7 46-7c10 0 20 1 30 4s18 6 27 11 17 11 24 18 14 13 19 21zm-89 27c4 5 8 12 11 20l21 57c-2 5-4 10-7 13-3 4-6 6-10 8-1 0-1 1-2 1-3 2-5 3-9 4-5 1-9 2-13 2-10 0-19-3-28-9s-17-13-23-22c-5-8-7-11-10-20 0-1-1-3-1-4-4-11-5-20-5-30 0-6 1-11 3-16s5-9 8-13 7-6 12-8 9-3 15-3c4 0 9 1 14 2 4 1 8 2 12 5s8 7 12 13z" glyph-name="ion-ios-at-outline" horiz-adv-x="255" unicode=""/><glyph d="M228 128h28c-1-1-2-4-3-6-4-6-14-19-23-27s-18-14-28-20-20-10-32-13c-11-3-23-5-34-5-16 0-33 3-49 8S57 78 44 89c-12 10-26 28-34 46-7 16-10 33-10 58 0 19 4 39 11 55s17 30 29 42 28 21 44 28c15 6 32 9 52 9 16 0 31-3 46-8s28-12 39-22 18-22 25-36c6-14 8-26 8-44 0-14-2-28-7-40-4-11-9-20-17-30-7-9-14-16-24-22-12-6-21-9-30-9s-16 2-22 8c-2 1-3 3-4 5-4-4-9-6-14-8-10-3-18-5-27-5-8 0-16 2-23 5s-12 7-17 12-9 12-12 19-4 14-4 22c0 12 2 25 6 37l1 1c4 10 5 17 13 27 8 11 17 20 28 27 12 7 24 10 38 10 12 0 22-3 33-9 5-3 8-6 12-10l5 12h25l-39-104c-2-5-3-9-4-13-1-3-1-7-1-9s0-3 1-3c0 0 1-1 5-1 5 0 11 2 19 7 7 4 10 8 16 16s9 13 13 23 6 20 6 32c0 14-1 24-6 34-5 12-10 21-18 28-9 8-19 14-31 18s-26 7-40 7c-18 0-32-3-44-8-14-6-25-13-35-23s-18-22-24-35c-6-14-9-30-9-45 0-21 3-34 8-46 6-14 16-30 26-39s22-16 35-21c14-5 28-7 43-7 10 0 20 2 29 4s18 6 26 11 28 20 38 33zm-84 29c4 5 7 12 10 19l20 55c-1 4-3 7-5 9-3 3-6 6-9 8h-2v1c-3 2-5 2-8 3-4 1-8 1-12 1-9 0-17-2-25-7-10-6-17-14-21-21-5-8-6-11-9-19 0-1-1-2-1-3-3-10-6-19-6-28 0-5 1-10 3-14s4-8 7-11 7-6 11-8 8-2 13-2c4 0 8 0 12 1s7 2 11 5c3 2 7 5 11 11z" glyph-name="ion-ios-at" horiz-adv-x="256" unicode=""/><glyph d="M0 64v256h80v-16H16V80h64V64H0zm336 256h80V64h-80v16h64v224h-64v16zM64 128v128h16V128H64zm272 0v128h16V128h-16zm-64-32v192h16V96h-16zm-144 0v192h16V96h-16zm71 16v160h16V112h-16z" glyph-name="ion-ios-barcode-outline" horiz-adv-x="416" unicode=""/><glyph d="M0 320h416V64H0v256zm80-192v128H64V128h16zm64-32v192h-16V96h16zm71 16v160h-16V112h16zm73-16v192h-16V96h16zm64 32v128h-16V128h16z" glyph-name="ion-ios-barcode" horiz-adv-x="416" unicode=""/><glyph d="M415 169v-1C404 71 325-6 228-15h-2c-2 0-3-1-5-1h-13C93-16 0 77 0 192v13c0 2 1 3 1 5v2c9 97 86 176 183 187 8 1 16 1 24 1 115 0 208-93 208-208 0-7 0-14-1-20v-3zm-16 23c0 105-86 191-191 191-3 0-5-1-8-1 0-11 2-21 4-31l20 6 5-15-21-7c2-7 4-14 7-21 2-5 5-11 8-16l17 12 9-13-19-13c7-12 16-23 26-33l14 15 12-12-15-15c11-10 22-18 34-25l12 18 14-9-12-17c5-2 10-5 15-7 7-3 14-5 22-7l7 20 15-5-6-19c10-2 20-4 30-4 0 3 1 5 1 8zm-382 0C17 87 103 1 208 1h4c-1 9-1 17-3 26l-22-7-5 16 23 7c-2 8-5 16-8 24-2 5-4 9-6 14l-20-13-9 13 21 14c-7 12-16 24-26 35l-17-17-11 11 17 17c-10 10-22 18-34 25l-14-21-14 9 14 20c-5 2-10 5-15 7-7 3-15 6-23 8l-8-24-15 5 7 23c-9 2-18 2-27 3v-4zM228 2c88 9 158 78 169 166-11 1-23 3-34 5l-9-27-15 5 8 25c-14 4-28 10-41 17l-15-23-13 9 14 21c-13 8-26 17-37 28l-19-19-11 11 19 19c-10 11-19 23-27 36l-21-14-9 13 22 15c-7 13-12 27-16 41l-25-8-5 16 26 8c-2 12-4 23-5 35-88-11-157-81-166-169 10-1 21-2 31-4l8 23 15-5-7-22c14-4 28-9 42-16l13 19 14-9-13-18c13-8 25-17 36-28l17 17 11-11-17-17c11-12 20-24 28-37l19 13 9-14-20-13c7-14 12-28 16-42l23 7 5-15-24-8c2-10 3-20 4-30z" glyph-name="ion-ios-baseball-outline" horiz-adv-x="416" unicode=""/><glyph d="M208 400c115 0 208-93 208-208 0-8 0-16-1-24C403 64 315-16 208-16 93-16 0 77 0 192c0 107 80 195 184 207 8 1 16 1 24 1zm4-399c5 0 11 0 16 1-1 10-2 20-4 30l24 8-5 15-23-7c-4 14-9 28-16 42l20 13-9 14-19-13c-8 13-17 25-28 37l17 17-11 11-17-17c-11 11-23 20-36 28l13 18-14 9-13-19c-14 7-28 12-42 16l7 22-15 5-8-23c-10 2-21 3-31 4-1-5-1-11-1-16 9-1 18-1 27-3l-7-23 15-5 8 24c8-2 16-5 23-8 5-2 10-5 15-7l-14-20 14-9 14 21c12-7 24-15 34-25l-17-17 11-11 17 17c10-11 19-23 26-35l-21-14 9-13 20 13c2-5 4-9 6-14 3-8 6-16 8-24l-23-7 5-16 22 7c2-8 2-17 3-26zm151 172c11-2 23-4 34-5 1 5 1 11 1 16-10 1-20 2-30 4l6 19-15 5-7-20c-8 2-15 4-22 7-5 2-10 5-15 7l12 17-14 9-12-18c-12 7-23 15-34 25l15 15-12 12-15-15c-10 10-18 21-25 33l19 13-9 13-17-12c-3 5-6 11-8 16-3 7-5 14-7 21l21 7-5 15-20-6c-2 10-3 20-4 31-5 0-11 0-16-1 1-12 3-23 5-35l-26-8 5-16 25 8c4-14 9-28 16-41l-22-15 9-13 21 14c8-13 17-25 27-36l-19-19 11-11 19 19c11-11 24-20 37-28l-14-21 13-9 15 23c13-7 27-13 41-17l-8-25 15-5z" glyph-name="ion-ios-baseball" horiz-adv-x="416" unicode=""/><glyph d="M208 400c115 0 208-93 208-208S323-16 208-16 0 77 0 192s93 208 208 208zm191-208c0 55-24 105-62 140-14-34-31-65-52-95 15-12 31-21 49-29 21-9 43-14 65-16zm-74 151c-32 25-73 40-117 40 2-22 6-44 15-65 10-25 26-47 45-66 2-1 2-3 4-4 20 29 38 60 52 93 0 1 1 1 1 2zm-133 39c-51-4-96-29-128-65 64-28 121-69 169-119 11 12 21 24 30 37-40 37-67 89-71 147zm41-208c-15-16-31-30-48-44 28-35 45-79 47-127 33 4 63 17 88 35-22 50-51 95-87 136zm-19 4l8 8-10 10c-46 46-99 82-158 108-18-25-31-55-35-88 62-3 116-31 155-74 14 11 27 23 40 36zM18 200c0-3-1-5-1-8 0-45 16-87 43-120 36 16 71 36 102 60l-7 7c-19 19-41 35-66 45-22 9-46 15-71 16zM71 59c35-36 83-58 137-58 3 0 5 1 8 1-1 25-6 48-16 71-7 17-17 33-28 47-31-24-65-45-101-61zm262-11c37 32 61 77 65 128-46 3-89 21-123 48-10-13-20-26-31-38 36-41 67-87 89-138z" glyph-name="ion-ios-basketball-outline" horiz-adv-x="416" unicode=""/><glyph d="M208 400c115 0 208-93 208-208S323-16 208-16 0 77 0 192s93 208 208 208zM333 48c-22 51-53 97-89 138 11 12 21 25 31 38 34-27 77-45 123-48 0 5 1 11 1 16-22 2-44 7-65 16-18 8-34 17-49 29 21 30 38 61 52 95-4 4-8 8-12 11 0-1-1-1-1-2-14-33-32-64-52-93-2 1-2 2-4 4-19 19-35 41-45 66-9 21-13 43-15 65-5 0-11-1-16-1 4-58 31-110 71-147-9-13-19-25-30-37-48 50-105 91-169 119-4-4-7-9-10-13 59-26 112-62 158-108l10-10-8-8c-13-13-26-25-40-36-39 43-93 71-155 74-1-5-1-11-1-16 25-1 49-7 71-16 25-10 47-26 66-45l7-7c-31-24-66-44-102-60 4-4 7-9 11-13 36 16 70 37 101 61 11-14 21-30 28-47 10-23 15-46 16-71 5 0 11 0 16 1-2 48-19 92-47 127 17 14 33 28 48 44 36-41 65-86 87-136 4 3 9 6 13 10z" glyph-name="ion-ios-basketball" horiz-adv-x="416" unicode=""/><glyph d="M318 222c0-114 28-126 66-158H0c38 32 66 44 66 158 0 98 53 130 102 138v2c0 12 11 22 24 22s24-10 24-22v-2c49-7 102-40 102-138zM43 80h298c-25 25-40 58-40 142 0 46-13 80-37 101-23 19-52 23-72 23s-49-4-72-23c-25-21-37-55-37-101 0-51-5-85-17-110-6-13-14-23-23-32zM192 0c-27 0-49 20-52 43h104c-3-23-25-43-52-43z" glyph-name="ion-ios-bell-outline" horiz-adv-x="384" unicode=""/><glyph d="M318 222c0-114 28-126 66-158H0c38 32 66 44 66 158 0 98 53 130 102 138v2c0 12 11 22 24 22s24-10 24-22v-2c49-7 102-40 102-138zM192 0c-27 0-49 20-52 43h104c-3-23-25-43-52-43z" glyph-name="ion-ios-bell" horiz-adv-x="384" unicode=""/><glyph d="M192 400c-18 0-32-14-32-32s14-32 32-32 32 14 32 32-14 32-32 32zm0 16c27 0 48-21 48-48s-21-48-48-48-48 21-48 48 21 48 48 48zm168-112c13 0 24-11 24-24s-11-24-24-24H260c-5 0-14-5-18-15-5-12-2-33 1-51l4-21v-1L279-4c2-13-6-26-19-28h-5c-11 0-22 8-24 20l-21 120s-5 31-17 31h-2c-12 0-19-31-19-31L151-12c-2-12-11-20-22-20h-5c-13 2-21 15-19 28l32 172v1l4 21c3 18 6 39 1 51-4 10-12 15-18 15H24c-13 0-24 11-24 24s11 24 24 24h336zM24 272c-4 0-8 4-8 8s4 8 8 8h336c4 0 8-4 8-8s-4-8-8-8H258c-16 0-26-15-30-24-5-13-6-32-1-61l3-19 1-3L263-7c0-3 0-5-1-6s-2-2-5-3h-2c-4 0-7 2-8 6l-21 120c0 2-2 10-5 19-2 6-5 11-8 15-7 9-14 11-20 11h-2c-5 0-13-2-20-11-3-4-6-9-8-15-4-9-6-17-6-18v-1L136-10c-1-4-3-6-7-6h-2c-3 0-4 2-5 3s-2 3-1 6l32 172v1l4 21c5 29 5 48 0 61-4 9-14 24-32 24z" glyph-name="ion-ios-body-outline" horiz-adv-x="384" unicode=""/><glyph d="M144 368c0 32 16 48 48 48s48-16 48-48-16-48-48-48-48 16-48 48zm216-64c7 0 12-2 17-7s7-10 7-17-2-12-7-17-10-7-17-7h-98c-8-2-15-6-18-14-4-9-3-27 1-52l4-21v-1L279-4c1-7 0-13-4-18s-8-9-15-10-13 0-18 4-9 9-10 16l-21 120v-1l-2 9c-1 5-3 11-6 16s-6 8-10 8h-2c-8 0-14-11-18-33v1L152-12c-1-7-5-12-10-16s-11-5-18-4-11 5-15 10-5 11-4 18l30 172v1l4 21c4 25 5 43 1 52-3 8-10 12-18 14H24c-7 0-12 2-17 7s-7 10-7 17 2 12 7 17 10 7 17 7h336z" glyph-name="ion-ios-body" horiz-adv-x="384" unicode=""/><glyph d="M131 316L31 176h84l-3-19-17-89 100 140h-84l3 19zm29 68l-30-160h96L66 0l30 160H0z" glyph-name="ion-ios-bolt-outline" horiz-adv-x="226" unicode=""/><glyph d="M160 384l-30-160h96L66 0l30 160H0z" glyph-name="ion-ios-bolt" horiz-adv-x="226" unicode=""/><glyph d="M284 384c55 0 100-26 100-79V22h-22c-17 30-44 42-78 42-40 0-74-28-82-64h-20c-8 36-42 64-82 64-34 0-65-16-78-42H0v283c0 53 45 79 100 79 41 0 78-14 92-44 12 30 51 44 92 44zM184 37v269c-1 43-39 62-84 62-44 0-81-19-84-61V44h1c19 26 48 36 83 36s66-17 84-43zm184 263v15c-3 42-40 53-84 53-46 0-84-20-84-64V37c18 26 49 43 84 43s66-10 84-36v256z" glyph-name="ion-ios-book-outline" horiz-adv-x="384" unicode=""/><glyph d="M100 384c35 0 67-10 84-31V0h-2c-8 36-42 64-82 64-34 0-65-16-78-42H0v283c0 53 45 79 100 79zm184 0c55 0 100-26 100-79V22h-22c-17 30-44 42-78 42-40 0-74-28-82-64h-2v353c17 21 50 31 84 31z" glyph-name="ion-ios-book" horiz-adv-x="384" unicode=""/><glyph d="M385 384c19 0 33-13 33-32V66c0-19-14-34-33-34H242s-25-4-25-19V0h-16v13c0 15-11 19-25 19H33C14 32 0 47 0 66v286c0 19 14 32 33 32h150c10 0 20-5 26-12 6 7 16 12 26 12h150zM201 37v309c0 9-12 22-25 22H33c-9 0-16-7-16-16V66c0-9 7-18 16-18h144c10 0 19-3 24-11zm72 331V268l23 14 9 6 9-6 23-14v100h-64zM401 66v286c0 9-7 16-16 16h-32V237l-48 32-48-32v131h-15c-13 0-25-13-25-22V37c5 9 14 11 24 11h144c9 0 16 9 16 18z" glyph-name="ion-ios-bookmarks-outline" horiz-adv-x="418" unicode=""/><glyph d="M296 283l-23-15v116h64V268l-23 15-9 6zm89 101c19 0 33-13 33-32V66c0-19-14-34-33-34H242s-25-4-25-19V0h-16v13c0 15-11 19-25 19H33C14 32 0 47 0 66v286c0 19 14 32 33 32h150s18-8 18-15V40l8-6 8 6v329s10 15 18 15h22V238l48 32 48-32v146h32z" glyph-name="ion-ios-bookmarks" horiz-adv-x="418" unicode=""/><glyph d="M192 208h-64c-9 0-16-7-16-16s7-16 16-16h64c9 0 16 7 16 16s-7 16-16 16zm0 16c18 0 32-14 32-32s-14-32-32-32h-64c-18 0-32 14-32 32s14 32 32 32h64zm128 112v-80h-16V48H16v208H0v80h320zM288 64v192H32V64h256zm16 208v48H16v-48h288z" glyph-name="ion-ios-box-outline" horiz-adv-x="320" unicode=""/><glyph d="M16 48v192h288V48H16zm112 160c-9 0-16-7-16-16s7-16 16-16h64c9 0 16 7 16 16s-7 16-16 16h-64zM0 336h320v-80H0v80z" glyph-name="ion-ios-box" horiz-adv-x="320" unicode=""/><glyph d="M368 320h48V0H0v320h48v16h32v-16h48v32c0 18 10 32 29 32h99c19 0 32-14 32-32v-32h48v16h32v-16zm-224 0h128v30c0 10-7 18-17 18h-97c-11 0-14-8-14-18v-30zM400 16v224H16V16h384zm0 240v48h-32v-16h-32v16H80v-16H48v16H16v-48h384z" glyph-name="ion-ios-briefcase-outline" horiz-adv-x="416" unicode=""/><glyph d="M48 320v16h32v-16H48zM0 0v240h416V0H0zm336 320v16h32v-16h-32zm32 0h48v-64H0v64h48v-32h32v32h48v32c0 18 10 32 29 32h99c19 0 32-14 32-32v-32h48v-32h32v32zm-96 0v30c0 10-7 18-17 18h-97c-11 0-14-8-14-18v-30h128z" glyph-name="ion-ios-briefcase" horiz-adv-x="416" unicode=""/><glyph d="M0 304h304V0H0v304zM288 16v272H16V16h272zm96 368V80h-64v16h48v272H96v-48H80v64h304z" glyph-name="ion-ios-browsers-outline" horiz-adv-x="384" unicode=""/><glyph d="M0 304h304V0H0v304zm80 80h304V80h-64v240H80v64z" glyph-name="ion-ios-browsers" horiz-adv-x="384" unicode=""/><glyph d="M32 288v64h224v-64H32zm16 48v-32h192v32H48zm208 48c18 0 32-14 32-32V32c0-18-14-32-32-32H32C14 0 0 14 0 32v320c0 18 14 32 32 32h224zm16-352v320c0 9-7 16-16 16H32c-9 0-16-7-16-16V32c0-9 7-16 16-16h224c9 0 16 7 16 16zM48 208h48v-16H32v64h16v-48zm0-80h48v-16H32v64h16v-48zm0-80h48V32H32v64h16V48zm80 160h48v-16h-64v64h16v-48zm80 0h48v-16h-64v64h16v-48zm-80-80h48v-16h-64v64h16v-48zm0-80h48V32h-64v64h16V48zm80 0h48V32h-64v144h16V48z" glyph-name="ion-ios-calculator-outline" horiz-adv-x="288" unicode=""/><glyph d="M256 384c18 0 32-14 32-32V32c0-18-14-32-32-32H32C14 0 0 14 0 32v320c0 18 14 32 32 32h224zm-8-216h-48V40h48v128zm0 80h-48v-48h48v48zM168 88h-48V40h48v48zm0 80h-48v-48h48v48zm0 80h-48v-48h48v48zM88 88H40V40h48v48zm0 80H40v-48h48v48zm0 80H40v-48h48v48zm-48 48h208v48H40v-48z" glyph-name="ion-ios-calculator" horiz-adv-x="288" unicode=""/><glyph d="M16 336v-64h352v64zm272 16h96V0H0v352h96v32h16v-32h160v32h16v-32zm80-336v240H16V16h352zm0 256v64h-80v-32h-16v32H112v-32H96v32H16v-64h352z" glyph-name="ion-ios-calendar-outline" horiz-adv-x="384" unicode=""/><glyph d="M0 0v256h384V0H0zm384 352v-80H0v80h96v-48h16v48h160v-48h16v48h96zm-288 0v32h16v-32H96zm176 0v32h16v-32h-16z" glyph-name="ion-ios-calendar" horiz-adv-x="384" unicode=""/><glyph d="M354 288c18 0 30-13 30-31V81c0-18-12-33-30-33H34C16 48 0 63 0 81v176c0 18 16 31 34 31h13v16h34v-16h13c32 36 43 48 55 48h88c12 0 23-12 55-48h62zm14-207v176c0 9-5 15-14 15h-69l-5 3c-3 4-7 8-10 11-12 13-20 24-26 30-5 5-7 4-7 4h-88s-2 0-7-4c-6-5-14-14-25-27-3-4-7-10-11-14l-5-3H34c-9 0-18-7-18-15V81c0-9 9-17 18-17h320c8 0 14 8 14 17zM192 258c47 0 86-38 86-85s-39-85-86-85-86 38-86 85 39 85 86 85zm0-154c38 0 70 31 70 69s-32 69-70 69-70-31-70-69 32-69 70-69zm96 135v17h17v-17h-17zm-128-66c0 21 11 32 32 32s32-11 32-32-11-32-32-32-32 11-32 32z" glyph-name="ion-ios-camera-outline" horiz-adv-x="384" unicode=""/><glyph d="M354 288c18 0 30-13 30-31V81c0-18-12-33-30-33H34C16 48 0 63 0 81v176c0 18 16 31 34 31h13v16h34v-16h13c32 36 43 48 55 48h88c12 0 23-12 55-48h62zM192 88c47 0 86 38 86 85s-39 85-86 85-86-38-86-85 39-85 86-85zm113 151v17h-17v-17h17zm-113 3c38 0 70-31 70-69s-32-69-70-69-70 31-70 69 32 69 70 69zm0-101c18 0 32 14 32 32s-14 32-32 32-32-14-32-32 14-32 32-32z" glyph-name="ion-ios-camera" horiz-adv-x="384" unicode=""/><glyph d="M96 48c13 0 24-11 24-24S109 0 96 0 72 11 72 24s11 24 24 24zm0-32c4 0 8 4 8 8s-4 8-8 8-8-4-8-8 4-8 8-8zm224 32c13 0 24-11 24-24S333 0 320 0s-24 11-24 24 11 24 24 24zm0-32c4 0 8 4 8 8s-4 8-8 8-8-4-8-8 4-8 8-8zm64 304l-16-128-271-48 5-30c7-34 21-34 26-34h240V64H128c-11 0-21 5-28 14-6 8-11 19-13 33L44 345c-2 8-3 12-7 16-6 5-18 7-37 7v16c23 0 38-4 47-11 7-6 10-14 12-21zm-29-114l11 99-304 31 32-176z" glyph-name="ion-ios-cart-outline" horiz-adv-x="384" unicode=""/><glyph d="M96 48c13 0 24-11 24-24S109 0 96 0 72 11 72 24s11 24 24 24zm224 0c13 0 24-11 24-24S333 0 320 0s-24 11-24 24 11 24 24 24zm64 272l-16-128-271-48 5-30c7-34 21-34 26-34h240V64H128c-11 0-21 5-28 14-6 8-11 19-13 33L44 345c-2 8-3 12-7 16-6 5-18 7-37 7v16c23 0 38-4 47-11 7-6 10-14 12-21z" glyph-name="ion-ios-cart" horiz-adv-x="384" unicode=""/><glyph d="M16 384V192h96v-16H0v224h288V288h-16v96H16zm112-112h288V48h-48v-64h-13l-64 64H128v224zM400 64v192H144V64h153l55-55v55h48z" glyph-name="ion-ios-chatboxes-outline" horiz-adv-x="416" unicode=""/><glyph d="M288 400V288H112V176H0v224h288zM128 272h288V48h-48v-64h-13l-64 64H128v224z" glyph-name="ion-ios-chatboxes" horiz-adv-x="416" unicode=""/><glyph d="M192 336c-97 0-176-62-176-138 0-26 10-51 27-73 0-1 0-2 1-3s2-1 2-2c4-6 6-13 6-20 0-3 1-3-13-47l39 17c2 1 10 4 11 4h1c5 2 10 3 16 3 5 0 9-1 14-2l1-1h2c19-6 41-10 70-10 48 0 92 15 125 40 32 25 50 58 50 94 0 76-79 138-176 138zm0 16c106 0 192-69 192-154S299 48 193 48c-27 0-52 3-75 11h-2c-3 1-6 2-10 2s-9-1-12-2h1-1c-1 0-9-4-10-4L34 33l-2-1h-6c-6 1-8 6-7 10s17 57 17 58c0 4-1 8-3 11l1-1-4 4c-19 24-30 53-30 84 0 85 86 154 192 154z" glyph-name="ion-ios-chatbubble-outline" horiz-adv-x="384" unicode=""/><glyph d="M192 352c106 0 192-69 192-154S299 48 193 48c-27 0-52 3-75 11h-2c-3 1-6 2-10 2s-9-1-12-2h1-1c-1 0-9-4-10-4L34 33l-2-1h-6c-6 1-8 6-7 10s17 57 17 58c0 4-1 8-3 11l1-1-4 4c-19 24-30 53-30 84 0 85 86 154 192 154z" glyph-name="ion-ios-chatbubble" horiz-adv-x="384" unicode=""/><glyph d="M74 118c-2-2-6-4-9-4s-7 2-9 4L0 174l18 18 47-47 125 126 17-18z" glyph-name="ion-ios-checkmark-empty" horiz-adv-x="207" unicode=""/><glyph d="M292 271l18-18-134-135c-2-2-6-4-9-4s-7 2-9 4l-56 56 18 18 47-47zm-84 129c115 0 208-93 208-208S323-16 208-16 0 77 0 192s93 208 208 208zm0-399c105 0 191 86 191 191s-86 191-191 191S17 297 17 192 103 1 208 1z" glyph-name="ion-ios-checkmark-outline" horiz-adv-x="416" unicode=""/><glyph d="M208 400c115 0 208-93 208-208S323-16 208-16 0 77 0 192s93 208 208 208zm-32-282l134 135-18 18-125-126-47 47-18-18 56-56c2-2 6-4 9-4s7 2 9 4z" glyph-name="ion-ios-checkmark" horiz-adv-x="416" unicode=""/><glyph d="M208 400c115 0 208-93 208-208S323-16 208-16 0 77 0 192s93 208 208 208zm0-399c105 0 191 86 191 191s-86 191-191 191S17 297 17 192 103 1 208 1zm0 351c88 0 160-72 160-160S296 32 208 32 48 104 48 192s72 160 160 160z" glyph-name="ion-ios-circle-filled" horiz-adv-x="416" unicode=""/><glyph d="M208 400c115 0 208-93 208-208S323-16 208-16 0 77 0 192s93 208 208 208zm0-399c105 0 191 86 191 191s-86 191-191 191S17 297 17 192 103 1 208 1z" glyph-name="ion-ios-circle-outline" horiz-adv-x="416" unicode=""/><glyph d="M208 400c115 0 208-93 208-208S323-16 208-16 0 77 0 192s93 208 208 208zm0-399c105 0 191 86 191 191s-86 191-191 191S17 297 17 192 103 1 208 1zm0 191v128h17V175H112v17h96z" glyph-name="ion-ios-clock-outline" horiz-adv-x="416" unicode=""/></font>
</defs>
</svg>
