<?xml version="1.0" standalone="no"?>
<!DOCTYPE svg PUBLIC "-//W3C//DTD SVG 20010904//EN"
 "http://www.w3.org/TR/2001/REC-SVG-20010904/DTD/svg10.dtd">
<svg version="1.0" xmlns="http://www.w3.org/2000/svg"
 width="1200.000000pt" height="1200.000000pt" viewBox="0 0 1200.000000 1200.000000"
 preserveAspectRatio="xMidYMid meet">
<metadata>
Created by potrace 1.14, written by Peter Selinger 2001-2017
</metadata>
<g transform="translate(0.000000,1200.000000) scale(0.100000,-0.100000)"
fill="#000000" stroke="none">
<path d="M0 6000 l0 -6000 6000 0 6000 0 0 6000 0 6000 -6000 0 -6000 0 0
-6000z m11970 5 l0 -5975 -5975 0 -5975 0 0 5975 0 5975 5975 0 5975 0 0
-5975z"/>
<path d="M5915 11474 c-545 -19 -964 -83 -1425 -215 -195 -57 -464 -147 -575
-194 -138 -59 -398 -177 -405 -185 -3 -3 -57 -35 -120 -70 -503 -280 -839
-530 -1228 -914 -250 -247 -478 -514 -661 -775 -73 -105 -208 -327 -317 -521
-32 -58 -61 -107 -64 -110 -8 -7 -127 -268 -185 -405 -72 -172 -186 -531 -255
-805 -221 -878 -198 -1913 61 -2790 132 -447 281 -816 433 -1075 29 -49 95
-162 146 -250 208 -354 443 -656 770 -989 408 -416 773 -692 1300 -986 63 -35
117 -67 120 -70 6 -7 266 -126 395 -181 263 -111 764 -258 1070 -314 363 -68
657 -95 1020 -95 542 0 1022 68 1530 216 532 156 855 299 1357 602 518 313
1044 788 1454 1312 173 220 289 400 494 765 196 349 364 793 490 1295 199 795
199 1765 0 2560 -127 508 -292 942 -490 1295 -262 466 -410 680 -701 1015
-136 157 -418 437 -569 567 -217 185 -463 365 -678 495 -428 258 -722 398
-1082 516 -450 146 -673 199 -1080 256 -218 31 -626 56 -805 50z m5 -29 c34
-19 80 -19 80 0 0 10 10 15 33 15 19 0 36 -3 40 -6 3 -4 28 -8 54 -9 83 -5
128 -19 126 -39 -1 -14 4 -16 21 -12 26 6 66 -18 66 -40 0 -11 19 -14 95 -14
78 0 95 -3 95 -15 0 -8 -6 -15 -14 -15 -10 0 -12 -12 -8 -49 6 -63 -16 -87
-88 -97 -55 -7 -100 -40 -100 -74 0 -21 -24 -28 -35 -10 -10 16 -42 12 -77
-10 -20 -12 -51 -20 -77 -20 -35 0 -51 -6 -73 -27 -28 -27 -28 -27 -60 -9
-109 59 -113 60 -200 64 -95 5 -162 -3 -153 -19 10 -16 -12 -10 -26 8 -8 9
-13 25 -11 36 2 11 -1 17 -6 13 -6 -3 -13 0 -15 6 -3 7 -6 3 -6 -9 -1 -16 -5
-21 -17 -16 -12 4 -13 8 -3 14 10 6 10 11 0 23 -18 22 -42 20 -48 -4 -7 -27
-14 -25 -52 12 -20 19 -28 34 -21 38 14 8 3 37 -17 44 -17 7 -33 0 -33 -14 0
-5 11 -20 25 -34 36 -36 32 -54 -12 -62 -21 -4 -44 -11 -50 -16 -8 -7 -23 -7
-40 -1 -16 5 -47 8 -69 5 -23 -2 -52 1 -64 8 -30 16 -36 6 -9 -18 13 -13 19
-27 15 -38 -8 -20 -40 -16 -114 17 -42 19 -57 21 -71 12 -16 -10 -24 -5 -57
29 -62 63 -84 71 -181 63 -45 -4 -85 -11 -89 -16 -9 -15 -44 -10 -44 5 0 8 -4
17 -9 20 -5 4 -7 -3 -4 -14 3 -11 -4 -30 -16 -46 -12 -15 -21 -31 -21 -36 0
-5 -7 -16 -15 -24 -17 -18 -20 -34 -5 -34 21 0 9 -19 -25 -40 -22 -13 -35 -29
-35 -42 0 -18 -4 -20 -32 -14 -18 3 -37 13 -43 20 -5 8 -17 24 -25 35 -8 12
-25 21 -38 21 -12 0 -26 8 -29 18 -4 9 -13 23 -20 30 -11 11 -13 10 -13 -9 l0
-22 -23 21 c-19 18 -34 22 -73 20 -27 -2 -66 1 -87 5 -36 8 -38 7 -43 -23 -6
-25 -11 -30 -37 -30 -17 0 -39 -7 -49 -16 -16 -16 -18 -15 -27 7 -9 23 -10 23
-10 3 -1 -12 -7 -27 -15 -33 -8 -7 -12 -20 -9 -30 3 -13 -4 -23 -25 -34 -33
-16 -55 -6 -45 20 3 8 -4 24 -16 37 l-22 23 128 55 c193 83 459 168 778 247
328 82 706 137 1055 155 30 1 69 3 85 4 17 1 41 -5 55 -13z m1450 -205 c44
-22 100 -26 118 -8 9 9 16 8 29 -4 10 -8 33 -16 51 -16 36 -1 304 -82 367
-112 22 -11 81 -34 130 -53 143 -55 385 -171 565 -271 136 -76 354 -206 360
-215 3 -4 48 -36 100 -72 52 -35 125 -86 161 -114 207 -157 281 -215 339 -270
36 -33 89 -80 118 -104 59 -50 356 -366 475 -505 143 -168 364 -473 433 -596
16 -30 51 -86 76 -125 25 -38 44 -72 42 -74 -2 -2 -25 -9 -51 -16 l-47 -12 3
-43 c3 -47 19 -80 38 -80 7 0 13 -9 13 -20 0 -13 -7 -20 -19 -20 -19 0 -19 -3
-7 -37 9 -26 20 -39 37 -43 15 -4 25 -14 27 -29 2 -12 11 -31 20 -41 9 -10 23
-25 29 -34 7 -8 28 -17 45 -20 18 -2 55 -8 83 -13 l49 -8 69 -160 c56 -130
137 -344 137 -361 0 -2 -12 -4 -28 -4 -16 0 -32 -8 -40 -20 -10 -17 -10 -20 3
-20 8 0 15 -4 15 -9 0 -14 -23 -28 -60 -36 -19 -4 -62 -25 -94 -47 -71 -47
-136 -81 -143 -75 -2 3 1 14 8 26 9 14 20 19 35 15 14 -4 23 0 27 10 15 40
-63 30 -111 -13 -18 -17 -32 -34 -32 -38 0 -5 -10 -13 -22 -18 -18 -8 -23 -18
-23 -50 0 -28 4 -39 13 -37 8 1 16 -7 19 -18 7 -25 23 -27 23 -2 1 14 2 15 9
2 13 -23 24 -81 14 -78 -11 4 -13 -7 -7 -41 6 -26 9 -29 29 -21 33 13 57 -16
49 -59 -6 -29 -8 -30 -21 -14 -12 16 -13 15 -11 -17 2 -27 -1 -35 -16 -38 -10
-2 -16 0 -12 6 3 5 -1 15 -9 22 -8 7 -15 11 -16 9 -15 -103 -12 -140 28 -292
l26 -97 71 -64 c39 -36 92 -72 116 -82 25 -9 68 -36 95 -59 70 -59 185 -129
212 -131 24 -1 63 -30 63 -48 0 -6 17 -44 37 -85 l38 -74 3 -181 c5 -268 -14
-597 -49 -836 -17 -112 -32 -206 -34 -208 -2 -2 -12 1 -23 7 -34 18 -101 13
-129 -9 -34 -26 -37 -26 -56 15 -18 38 -69 75 -104 75 -12 0 -25 5 -28 10 -3
6 -16 10 -29 10 -14 0 -32 13 -46 33 -49 66 -102 116 -130 122 -23 5 -30 14
-40 51 -8 26 -23 53 -39 64 -14 11 -33 25 -41 32 -23 20 -61 38 -79 38 -10 0
-25 15 -34 33 -53 102 -83 139 -128 157 -32 14 -31 12 -23 34 4 10 18 16 35
16 22 0 29 5 29 20 0 11 -4 20 -10 20 -5 0 -10 9 -10 20 0 13 7 20 18 20 27 0
78 51 80 80 1 31 -24 60 -55 60 -20 0 -23 5 -23 38 0 50 -14 62 -71 62 -46 0
-48 1 -51 33 -3 32 -4 32 -60 35 -53 3 -58 5 -64 29 -7 25 -8 25 -72 20 -48
-4 -69 -10 -79 -23 -12 -16 -12 -20 0 -29 16 -12 29 -45 18 -45 -5 0 -11 -10
-14 -21 -5 -18 -12 -21 -46 -17 -23 2 -41 0 -41 -4 0 -5 -4 -8 -9 -8 -12 0
-21 39 -10 46 5 3 9 36 9 74 0 74 -27 144 -76 197 -13 14 -24 29 -25 32 0 3
-2 22 -4 41 -10 114 -19 169 -35 201 -19 37 -84 89 -112 89 -8 0 -21 7 -28 15
-16 20 -30 19 -30 -1 0 -12 -8 -9 -34 12 -59 50 -120 91 -143 98 -13 4 -23 11
-23 15 0 14 -51 31 -76 25 -17 -5 -24 -2 -24 9 0 10 -14 18 -42 22 -24 4 -47
11 -53 15 -5 4 -22 10 -37 14 -47 11 -162 -51 -174 -94 -11 -36 -21 -49 -49
-63 -22 -10 -40 -31 -55 -62 -34 -71 -84 -115 -130 -115 -12 0 -42 -9 -67 -21
-26 -12 -57 -19 -71 -16 -15 3 -47 -5 -78 -19 -29 -13 -59 -24 -67 -24 -8 0
-20 -7 -27 -15 -7 -8 -19 -15 -26 -15 -9 0 -14 -11 -14 -27 0 -25 -4 -28 -36
-31 -44 -3 -54 -8 -54 -31 0 -26 -20 -41 -56 -41 -24 0 -34 -5 -39 -20 -3 -10
-20 -31 -36 -45 -28 -23 -29 -25 -9 -25 16 0 20 -4 16 -16 -3 -9 -6 -19 -6
-24 0 -4 -12 -10 -27 -13 -72 -15 -89 -20 -100 -35 -10 -12 -17 -13 -43 -2
-34 14 -60 2 -60 -29 -1 -14 -2 -14 -11 2 -5 9 -19 17 -29 17 -10 0 -22 5 -25
10 -10 16 -42 12 -49 -6 -9 -23 -52 -14 -48 9 2 12 -4 20 -17 24 -11 3 -22 11
-25 19 -4 10 -14 12 -29 9 -17 -5 -26 -2 -30 9 -4 11 -19 16 -45 16 l-40 0 2
43 1 42 -72 -4 c-65 -3 -73 -1 -73 15 0 24 -29 54 -52 54 -24 0 -35 -29 -17
-42 9 -6 -9 -7 -51 -2 -64 6 -82 16 -74 39 9 22 -21 33 -98 37 -62 3 -80 7
-92 23 -7 10 -12 25 -9 32 13 34 -67 21 -112 -18 -11 -9 -40 -26 -65 -37 -25
-11 -56 -32 -69 -46 -17 -19 -35 -26 -60 -26 -57 0 -111 -38 -159 -109 -34
-51 -42 -70 -37 -92 3 -15 2 -45 -4 -66 -5 -21 -13 -66 -17 -101 -6 -59 -5
-64 14 -69 23 -6 40 -59 28 -88 -4 -11 5 -21 29 -32 28 -14 32 -19 24 -35 -6
-11 -21 -18 -38 -18 -39 0 -57 -39 -32 -72 36 -46 19 -168 -23 -168 -6 0 -17
-9 -24 -20 -7 -11 -20 -20 -30 -20 -9 0 -23 -9 -30 -20 -7 -12 -23 -20 -41
-20 -16 0 -34 -6 -41 -14 -6 -8 -42 -25 -78 -36 -37 -12 -85 -31 -108 -41 -22
-10 -44 -19 -49 -19 -17 0 -75 -64 -75 -82 0 -21 -9 -23 -155 -38 -60 -6 -130
-15 -155 -20 -25 -5 -62 -12 -82 -15 -21 -3 -44 -13 -53 -21 -10 -10 -24 -14
-39 -10 -14 3 -34 3 -45 -2 -30 -11 -162 -132 -155 -143 3 -5 9 -7 13 -5 9 6
51 -39 51 -52 0 -15 -49 -32 -89 -32 -43 0 -57 -13 -140 -128 -29 -39 -59 -72
-67 -72 -8 0 -14 -7 -14 -15 0 -9 -11 -20 -24 -25 -13 -5 -27 -18 -31 -30 -3
-11 -20 -27 -36 -35 -16 -9 -36 -30 -45 -48 -9 -17 -40 -60 -68 -94 -136 -165
-141 -178 -119 -284 7 -35 11 -72 9 -82 -3 -10 2 -44 10 -74 17 -66 61 -120
116 -145 47 -21 68 -63 41 -84 -26 -20 -79 -44 -95 -44 -8 0 -20 -11 -27 -24
-11 -19 -24 -25 -65 -30 -58 -8 -116 -38 -116 -61 0 -8 -6 -15 -14 -15 -24 0
-46 -29 -46 -61 0 -24 -4 -29 -25 -29 -27 0 -39 -17 -50 -70 -4 -19 -20 -48
-35 -65 -15 -16 -31 -41 -35 -54 -4 -13 -20 -35 -35 -48 -34 -28 -30 -53 12
-78 25 -14 28 -19 15 -26 -19 -11 -209 -5 -228 7 -26 16 -107 -9 -134 -41 -5
-7 -30 -19 -55 -27 -56 -19 -116 -78 -155 -153 -16 -32 -34 -66 -39 -76 -6 -9
-22 -24 -38 -34 -15 -9 -28 -22 -28 -28 0 -14 -35 -47 -50 -47 -6 0 -10 -4
-10 -10 0 -24 -39 -7 -61 28 -22 33 -28 37 -61 34 -20 -2 -39 1 -43 7 -12 21
-43 11 -69 -24 -33 -43 -74 -47 -122 -10 -18 14 -43 25 -56 25 -13 0 -48 7
-78 15 -37 10 -76 13 -117 9 -52 -6 -66 -3 -90 13 -32 23 -54 27 -240 47 -72
8 -141 19 -152 26 -19 9 -25 7 -48 -21 -15 -17 -42 -38 -59 -45 -18 -8 -35
-18 -39 -24 -8 -13 -66 -13 -102 1 -20 8 -49 7 -106 -2 l-77 -13 -41 -55 c-22
-31 -44 -62 -49 -70 -7 -12 -11 -13 -25 -1 -20 17 -37 2 -37 -34 0 -21 -6 -27
-36 -32 -21 -4 -42 -2 -51 4 -9 7 -32 20 -51 31 -19 10 -46 33 -58 51 -13 17
-37 36 -52 41 -16 6 -33 22 -40 39 -7 16 -18 35 -26 41 -8 6 -14 21 -14 33 0
12 -4 26 -9 32 -4 5 -11 21 -15 37 -5 22 -3 27 13 27 11 0 23 4 26 10 3 5 -4
10 -16 10 -18 0 -19 2 -9 15 11 13 8 19 -14 40 -15 14 -30 25 -34 25 -11 0
-30 56 -23 68 3 5 16 13 29 17 20 6 21 9 9 18 -8 7 -22 37 -31 68 -13 45 -26
66 -73 110 -32 31 -71 64 -88 74 -16 10 -40 27 -52 38 -26 23 -78 35 -184 42
-74 5 -89 3 -146 -21 -38 -16 -67 -24 -72 -18 -5 5 -29 53 -54 106 -42 90 -44
98 -26 103 10 4 19 13 19 21 0 11 6 13 20 9 12 -4 27 -2 34 4 7 6 53 12 101
14 52 2 90 8 92 14 2 6 14 22 27 36 12 13 28 38 35 56 8 17 20 31 29 31 21 0
82 67 82 91 0 19 31 25 102 20 23 -2 30 4 48 44 17 36 25 45 38 40 9 -4 25
-10 35 -13 13 -3 17 -12 14 -28 -5 -29 8 -41 48 -46 19 -2 34 -11 42 -27 18
-37 43 -48 59 -26 11 15 16 16 29 5 8 -7 15 -19 15 -26 0 -8 18 -25 40 -39 33
-21 44 -23 61 -14 12 6 37 8 59 4 38 -6 39 -6 46 29 3 20 12 36 19 36 7 0 15
5 17 11 2 6 22 9 48 7 41 -3 43 -4 27 -20 -9 -9 -17 -21 -17 -27 0 -14 37 -14
45 -1 3 6 16 10 28 10 27 0 52 49 41 82 -15 46 -10 70 16 86 14 8 43 27 65 41
22 15 61 35 87 45 27 10 48 22 48 27 0 5 18 9 40 9 29 0 40 -4 40 -15 0 -10
10 -15 30 -15 27 0 30 -3 30 -30 0 -17 5 -30 13 -30 13 0 84 -64 133 -122 18
-20 50 -48 73 -63 37 -25 55 -50 49 -71 -1 -5 2 -24 6 -43 7 -30 5 -36 -28
-63 -29 -23 -36 -36 -36 -64 0 -19 -6 -50 -14 -69 -14 -32 -13 -35 5 -40 15
-5 17 -10 10 -23 -7 -12 -5 -22 6 -34 14 -16 14 -18 -1 -24 -17 -7 -22 -34 -6
-34 6 0 10 -5 10 -11 0 -7 7 -17 15 -23 8 -6 16 -20 18 -31 1 -12 12 -38 24
-58 28 -46 73 -52 99 -12 9 14 25 25 35 25 10 0 21 5 24 10 3 6 19 10 35 10
16 0 35 7 44 15 19 19 45 19 52 0 8 -19 54 -19 80 0 26 20 48 19 69 -5 18 -20
75 -28 75 -11 0 5 10 11 23 15 14 3 23 14 24 27 1 12 11 31 21 43 11 11 25 31
31 43 12 23 63 53 92 53 11 0 21 10 25 25 7 30 28 32 72 5 18 -11 37 -20 43
-20 9 0 46 35 81 79 10 11 26 21 37 21 10 0 24 7 31 15 9 11 23 14 45 9 22 -4
45 1 72 15 44 22 85 18 81 -8 -4 -22 34 -26 71 -6 28 14 31 20 31 65 0 38 5
54 20 67 11 10 20 24 20 31 0 7 7 20 15 29 13 12 18 13 30 3 12 -10 19 -10 33
4 28 25 58 20 82 -14 17 -23 29 -30 56 -30 36 0 41 9 24 41 -6 10 -7 19 -2 19
12 0 22 62 15 89 -4 17 -13 21 -48 21 -39 0 -45 4 -66 37 -27 46 -26 57 12
105 46 58 40 78 -34 112 -61 28 -108 78 -86 91 5 4 9 14 9 24 0 10 16 35 35
55 28 30 39 35 60 30 19 -5 26 -2 32 12 3 11 15 30 25 43 10 13 18 40 18 61 0
31 4 39 23 44 34 9 64 7 92 -6 22 -10 26 -17 23 -40 -5 -33 4 -42 33 -33 15 5
18 10 10 18 -16 16 -13 47 4 47 8 0 20 9 27 20 7 11 22 20 33 20 20 0 59 20
40 20 -5 0 0 7 12 15 11 8 23 25 27 38 4 19 11 23 30 20 16 -4 32 4 54 25 17
16 36 32 44 34 10 4 10 10 0 32 -10 22 -9 28 3 32 21 9 21 94 0 94 -8 0 -15 9
-15 21 0 16 4 19 20 14 24 -7 60 10 60 30 0 19 18 29 33 17 39 -32 91 -53 118
-47 16 4 29 10 29 15 0 5 10 10 23 12 17 2 22 10 23 33 0 17 6 40 12 52 7 12
12 28 12 35 -1 26 -38 58 -71 60 -24 2 -39 11 -50 29 -15 23 -78 70 -147 108
-13 7 -27 21 -29 31 -5 18 -63 53 -72 44 -2 -2 2 -15 9 -29 7 -14 10 -28 7
-32 -4 -3 -7 1 -7 9 0 9 -7 21 -16 28 -13 11 -16 10 -21 -8 -3 -12 -10 -22
-15 -22 -6 0 -5 -7 2 -16 11 -13 10 -19 -8 -36 -18 -18 -23 -19 -37 -8 -13 11
-18 11 -24 1 -5 -7 -17 -11 -27 -10 -11 2 -25 0 -32 -5 -18 -11 -43 0 -36 17
6 17 -23 27 -79 27 -31 0 -40 -4 -44 -20 -6 -21 -32 -27 -49 -11 -11 12 -49
-18 -49 -39 0 -10 -12 -16 -33 -18 -26 -3 -37 3 -59 30 -63 76 -122 128 -144
128 -41 1 -59 23 -59 73 0 31 5 47 15 51 8 3 15 15 15 26 0 14 7 20 21 20 15
0 19 -5 15 -15 -4 -11 2 -15 20 -15 24 0 25 1 21 60 -4 57 -3 60 19 60 13 0
26 5 29 11 4 5 18 15 32 20 21 8 24 13 18 37 -4 15 -7 52 -7 83 0 53 -1 56
-23 51 -36 -6 -96 17 -93 36 1 10 -1 23 -6 30 -4 7 -3 19 3 26 13 15 -4 26
-39 26 -10 0 -20 7 -24 15 -6 17 -96 22 -96 5 0 -6 -8 -20 -19 -31 -17 -18
-23 -19 -61 -9 -40 11 -41 12 -25 30 18 20 13 40 -11 40 -8 0 -14 -9 -14 -20
0 -11 -3 -20 -7 -20 -5 0 -18 -3 -30 -6 -20 -5 -23 -2 -23 20 0 21 -5 26 -23
26 -33 0 -61 66 -41 96 8 11 15 36 16 56 2 24 7 34 16 30 10 -3 12 7 10 42 -2
25 -7 46 -12 46 -5 0 -1 9 8 19 10 11 15 25 11 31 -5 8 3 10 26 8 19 -2 33 -8
32 -14 -1 -7 6 -10 16 -7 21 5 17 53 -4 53 -8 0 -22 11 -33 25 -11 14 -26 25
-34 25 -15 0 -18 33 -5 46 15 15 6 26 -17 20 -15 -4 -28 0 -36 9 -10 12 -7 17
14 26 20 10 29 10 38 1 7 -7 27 -12 44 -12 l32 0 -14 30 c-9 17 -23 30 -34 30
-16 0 -17 4 -10 30 5 19 5 30 -1 30 -6 0 -5 8 1 20 9 17 7 22 -17 31 -19 7
-34 7 -51 0 -35 -16 -73 -13 -110 9 l-33 20 -26 -20 c-14 -11 -37 -20 -50 -20
-14 0 -21 -4 -18 -10 3 -6 0 -10 -8 -10 -15 0 -67 -47 -67 -61 0 -5 9 -9 20
-9 11 0 20 5 20 11 0 5 5 7 10 4 15 -9 12 -25 -4 -25 -8 0 -17 -7 -20 -16 -5
-13 -2 -15 14 -11 16 4 20 0 20 -18 0 -17 -7 -24 -31 -29 -51 -10 -58 -8 -52
17 4 21 4 21 -11 3 -17 -21 -38 -13 -30 12 5 13 4 14 -4 3 -5 -7 -15 -10 -21
-7 -16 10 -13 24 7 29 13 4 11 5 -5 6 -19 1 -23 7 -23 36 0 29 -4 36 -25 41
-15 4 -25 13 -25 24 0 32 -27 43 -96 41 -48 -2 -64 1 -64 11 0 7 -8 25 -17 38
-10 14 -16 38 -14 57 3 38 -20 54 -50 35 -10 -7 -24 -9 -32 -6 -8 3 -18 -6
-25 -20 -10 -23 -16 -25 -64 -21 -29 2 -73 -1 -97 -6 -35 -8 -51 -6 -78 6 -34
17 -43 16 -74 -6 -25 -19 -66 -3 -77 30 -9 26 -52 51 -52 30 0 -13 -37 -11
-46 2 -5 8 -9 8 -14 -1 -6 -10 -16 -7 -40 10 -29 21 -33 22 -42 7 -5 -10 -15
-17 -23 -17 -9 0 -12 -6 -8 -16 5 -13 -5 -15 -74 -11 -92 5 -103 9 -96 37 3
12 -1 22 -11 26 -9 3 -16 12 -16 20 0 8 -7 14 -16 14 -23 0 3 22 41 35 38 13
38 28 -1 35 -19 4 -28 11 -26 21 1 9 -5 22 -13 29 -8 7 -15 22 -15 34 0 12 -4
26 -9 32 -9 9 -14 37 -12 62 0 6 10 12 21 12 13 0 28 12 38 31 19 34 30 34
137 4 33 -9 96 -21 140 -27 44 -5 88 -14 97 -19 24 -12 115 -12 123 1 12 19
45 10 57 -15 13 -28 64 -55 120 -62 21 -3 41 -10 44 -14 3 -5 14 -9 25 -9 11
0 24 -10 30 -23 9 -21 41 -37 114 -56 17 -4 57 -21 90 -38 33 -16 95 -38 137
-47 69 -16 89 -17 178 -6 94 11 128 9 105 -8 -11 -8 -18 -32 -10 -32 3 0 15 9
27 20 40 37 138 14 138 -33 0 -10 14 -18 40 -22 22 -4 46 -14 53 -23 17 -24
77 -45 77 -27 0 21 132 36 144 16 3 -5 26 -18 51 -30 25 -12 45 -27 45 -34 0
-41 229 -79 259 -43 15 18 41 21 41 5 0 -8 4 -8 13 -1 7 6 22 9 33 6 15 -4 31
6 58 36 36 40 38 41 57 24 14 -13 30 -16 66 -12 56 7 83 1 62 -13 -18 -11 34
-10 114 3 40 6 63 6 71 -1 7 -6 16 -8 19 -4 4 3 13 0 22 -7 11 -9 22 -9 46 -1
39 14 52 14 44 1 -4 -6 30 -9 92 -7 89 2 98 0 101 -17 2 -10 15 -29 30 -41 14
-12 26 -30 27 -41 4 -39 17 -54 46 -54 16 0 29 -4 29 -9 0 -11 85 -41 118 -41
13 0 35 9 49 20 30 24 85 26 103 5 7 -8 16 -15 21 -15 8 0 24 40 21 53 -1 4 3
7 8 7 6 0 10 6 10 13 0 7 16 19 35 26 41 15 44 27 10 43 -13 6 -22 15 -19 19
3 5 0 9 -5 9 -6 0 -11 6 -11 13 0 6 -12 26 -28 42 -15 17 -28 41 -28 55 -1 14
-2 31 -3 38 0 7 -12 18 -26 24 -22 10 -23 13 -10 20 8 5 15 15 15 23 0 7 6 16
13 18 6 3 3 6 -9 6 -11 1 -25 6 -32 13 -8 8 -15 8 -25 -1 -11 -9 -17 -8 -28 5
-14 17 -36 16 -118 -5 -31 -8 -47 -9 -56 -1 -10 8 -15 8 -20 0 -6 -9 -41 -5
-54 6 -2 1 7 17 19 34 12 17 21 32 19 33 -12 8 -78 27 -92 27 -11 0 -17 11
-19 37 -2 27 -8 39 -20 41 -11 2 -18 -3 -18 -12 0 -12 -10 -16 -36 -16 -34 0
-36 2 -30 26 6 21 0 32 -34 65 -22 21 -44 39 -49 39 -5 0 -7 9 -4 20 4 16 0
20 -23 21 -16 0 -40 2 -54 3 -14 1 -37 3 -51 4 -22 2 -25 6 -22 26 4 18 0 25
-18 29 -13 4 -28 2 -33 -3 -6 -6 -20 -10 -33 -10 -28 0 -30 24 -7 73 14 29 19
32 50 29 40 -5 46 14 14 43 -23 21 -47 14 -60 -17 -20 -51 -7 13 45 225 52
212 78 287 97 287 5 0 8 -6 6 -13 -2 -7 15 -35 38 -63 54 -64 64 -85 64 -131
0 -29 3 -34 11 -23 7 11 8 5 3 -22 -3 -21 -1 -44 6 -55 17 -27 3 192 -14 226
-8 14 -48 62 -90 106 -74 78 -93 115 -59 115 9 0 25 -8 35 -17 18 -16 18 -15
4 18 -13 32 -13 36 7 57 29 31 31 120 3 151 -20 22 -23 16 30 89 16 21 15 22
-4 22 -12 0 -24 -5 -27 -10 -4 -6 -20 0 -39 15 -18 14 -40 25 -48 25 -8 0 -20
11 -26 25 -6 14 -20 25 -30 25 -29 0 -89 70 -102 120 -14 51 -51 119 -80 145
-31 28 -24 51 27 100 46 45 46 45 27 66 -10 12 -35 29 -54 40 -32 17 -33 19
-14 25 13 3 24 17 27 34 8 37 40 44 91 18 l41 -20 -21 21 c-30 31 -87 38 -129
15 -31 -16 -36 -17 -52 -2 -10 8 -31 19 -48 23 -16 4 -25 9 -18 12 8 3 9 12 3
27 -6 17 -4 25 9 33 24 15 26 72 3 80 -9 4 -20 11 -24 17 -5 8 -11 7 -20 -2
-6 -6 -29 -12 -49 -12 -27 0 -38 5 -42 19 -4 15 1 18 31 17 40 -1 53 17 22 34
-14 7 -31 8 -56 1 -57 -16 -102 -3 -121 33 -20 39 -53 82 -53 69 0 -6 -11 -8
-24 -6 -17 4 -26 14 -30 34 -4 20 -10 27 -20 23 -8 -3 -28 2 -45 10 -16 9 -39
16 -50 16 -12 0 -23 10 -30 30 -8 25 -15 30 -43 30 -18 0 -43 3 -55 6 -17 5
-23 2 -23 -10 0 -14 -8 -17 -37 -14 -37 3 -38 4 -35 41 3 29 -3 46 -23 72 -14
19 -31 35 -36 35 -6 0 -22 9 -36 20 l-25 19 27 7 c15 4 56 4 91 0 63 -6 64 -6
64 18 0 29 -40 61 -68 54 -26 -7 -43 33 -25 58 11 15 13 15 13 2 0 -20 21 -28
71 -28 30 0 37 3 33 15 -4 8 -17 15 -31 15 -19 0 -23 4 -18 19 5 18 1 19 -54
14 -85 -8 -91 -4 -77 50 22 85 47 97 206 101 52 2 105 6 118 10 17 6 22 3 22
-11 0 -10 9 -24 20 -30 16 -11 21 -10 28 3 7 12 17 15 41 9 17 -3 31 -11 31
-15 0 -12 32 0 42 14 4 6 5 20 2 32 -4 16 0 23 17 27 13 3 28 2 34 -3 6 -5 41
-7 78 -5 54 4 67 2 67 -10 0 -8 7 -15 16 -15 11 0 14 -6 9 -20 -4 -13 -2 -20
7 -20 14 -1 48 -61 48 -85 0 -7 10 -29 23 -49 25 -39 40 -39 92 -1 41 30 83
37 106 17 11 -9 19 -22 19 -29 0 -18 27 -16 34 2 8 22 35 18 46 -7 9 -20 10
-20 8 -3 -4 31 10 45 43 45 30 0 36 -9 19 -26 -20 -20 13 -31 105 -38 l90 -7
-27 21 c-16 12 -28 28 -28 36 0 8 -3 14 -7 14 -11 0 -7 78 5 93 5 6 10 19 10
27 0 8 4 26 8 39 5 17 4 22 -4 17 -14 -8 -14 8 -3 77 4 26 5 47 1 47 -4 0 -15
20 -24 44 -9 25 -23 49 -30 55 -7 6 -11 22 -9 35 3 13 1 32 -5 42 -7 12 -5 25
7 45 14 25 14 29 -2 47 -9 10 -17 24 -17 30 0 16 27 15 37 -1 16 -26 71 -40
131 -33 43 5 63 3 77 -8 18 -13 19 -17 6 -48 -16 -41 -16 -71 3 -101 7 -12 17
-35 20 -51 6 -26 8 -27 20 -11 10 14 21 17 46 11 19 -3 41 -12 49 -19 9 -8 52
-22 96 -31 82 -19 135 -40 135 -55 0 -22 138 21 155 49 3 5 30 11 58 11 l52 1
-48 8 c-27 5 -50 10 -50 12 -1 2 -7 12 -13 23 -16 28 32 122 66 130 14 4 54
19 90 35 38 17 100 33 150 40 47 6 104 18 127 25 55 18 131 71 145 100 13 30
34 38 60 24 31 -16 34 -2 6 24 -20 18 -25 31 -21 51 5 22 10 27 27 22 19 -5
20 -4 3 8 -15 11 -16 18 -6 42 6 16 11 61 10 101 -1 39 3 74 9 78 5 3 10 23
10 43 0 35 3 39 48 58 44 20 169 47 274 58 50 6 308 129 308 147 0 6 8 8 18 5
9 -3 33 -1 52 3 56 14 78 12 120 -9z m83 13 c-7 -2 -19 -2 -25 0 -7 3 -2 5 12
5 14 0 19 -2 13 -5z m-1975 -170 c41 -27 43 -34 12 -65 -37 -37 -53 -35 -97 7
-20 19 -43 35 -51 35 -26 0 -6 11 45 25 63 17 60 18 91 -2z m-478 -32 c0 -6
-4 -12 -8 -15 -5 -3 -9 1 -9 9 0 8 4 15 9 15 4 0 8 -4 8 -9z m-1260 -1055 c0
-11 -19 -15 -25 -6 -3 5 1 10 9 10 9 0 16 -2 16 -4z m560 -626 c0 -5 -7 -7
-15 -4 -8 4 -15 8 -15 10 0 2 7 4 15 4 8 0 15 -4 15 -10z m113 -100 c3 -11 1
-20 -4 -20 -5 0 -9 9 -9 20 0 11 2 20 4 20 2 0 6 -9 9 -20z m-29 -95 c34 -31
26 -47 -14 -32 -21 8 -30 18 -30 34 0 30 11 29 44 -2z m338 -277 c-1 -9 4 -18
13 -22 8 -3 15 -12 15 -21 0 -10 -10 -4 -30 16 -16 18 -27 36 -24 41 9 14 29
3 26 -14z m-67 -158 c3 -5 -1 -10 -9 -10 -8 0 -18 5 -21 10 -3 6 1 10 9 10 8
0 18 -4 21 -10z m302 -350 c-1 -11 -7 -20 -14 -20 -7 0 -13 9 -13 20 0 11 6
20 14 20 9 0 14 -9 13 -20z m30 -7 c-4 -4 6 -12 23 -19 32 -14 41 -34 14 -34
-15 0 -53 37 -54 53 0 4 5 7 12 7 6 0 8 -3 5 -7z m41 -153 c15 0 22 -71 9 -94
-11 -21 -12 -21 -15 4 -2 14 -15 37 -28 51 -20 21 -24 32 -18 54 l7 28 18 -21
c9 -12 22 -22 27 -22z m5761 -679 c7 -5 9 -11 5 -14 -5 -3 -15 1 -22 9 -14 16
-5 18 17 5z m-8799 -111 c0 -11 -5 -20 -12 -20 -6 0 -9 -3 -6 -6 4 -3 15 -1
25 4 10 5 30 12 45 16 27 6 27 6 16 -26 -6 -18 -14 -35 -17 -38 -3 -3 -12 -17
-19 -32 -6 -16 -17 -40 -24 -54 -7 -15 -23 -28 -40 -31 -17 -3 -28 -12 -28
-22 0 -9 -9 -22 -20 -29 -12 -7 -17 -18 -14 -27 4 -9 -1 -24 -11 -34 -9 -11
-15 -32 -14 -48 6 -76 -1 -105 -32 -134 -17 -16 -26 -29 -19 -29 10 0 10 -3 0
-15 -10 -12 -10 -21 -2 -40 7 -14 16 -25 22 -25 14 0 3 -39 -18 -62 -20 -23
-74 -33 -102 -18 -17 9 -32 9 -65 -1 -43 -13 -43 -14 -47 -62 -1 -27 0 -51 5
-54 4 -2 7 -15 7 -29 0 -14 6 -24 14 -24 8 0 14 -10 14 -25 0 -14 -4 -25 -9
-25 -5 0 -9 -13 -9 -30 0 -20 5 -30 15 -30 9 0 15 -9 15 -25 0 -17 -6 -25 -17
-25 -9 0 -25 -7 -35 -17 -20 -18 -24 -43 -7 -43 6 0 9 -9 6 -20 -4 -15 1 -22
18 -26 25 -6 24 -24 -2 -55 -12 -15 -11 -17 13 -23 22 -6 25 -11 19 -33 -7
-29 6 -43 43 -43 27 0 29 -24 4 -42 -31 -22 -34 -36 -12 -58 21 -21 21 -23 4
-41 -9 -10 -24 -21 -34 -24 -10 -3 -17 -16 -18 -33 -3 -81 -6 -99 -25 -119
-12 -14 -16 -23 -8 -23 7 0 10 -4 7 -8 -3 -5 7 -15 22 -23 43 -22 53 -36 46
-64 -5 -21 -3 -25 15 -25 12 0 21 -5 21 -11 0 -8 4 -8 15 1 19 16 31 7 45 -35
9 -29 9 -38 -4 -50 -8 -8 -21 -15 -28 -15 -12 0 -23 -11 -46 -46 -4 -6 -34
-18 -67 -26 -39 -10 -59 -19 -57 -28 2 -7 -3 -17 -10 -22 -10 -6 -10 -10 -1
-16 15 -9 13 -53 -3 -69 -6 -6 -9 -23 -7 -37 4 -17 1 -26 -7 -26 -9 0 -7 -6 5
-20 20 -22 13 -55 -10 -46 -8 3 -15 0 -15 -7 0 -7 -12 -13 -27 -14 -58 -4
-113 -15 -113 -22 0 -4 14 -23 30 -41 17 -18 30 -40 30 -47 0 -7 -13 -16 -30
-19 -32 -7 -39 -21 -15 -30 8 -4 15 -13 15 -21 0 -8 9 -26 20 -40 35 -45 19
-104 -19 -69 -23 21 -28 20 -47 -9 -13 -20 -14 -28 -4 -40 13 -16 6 -35 -14
-35 -7 0 -21 -9 -31 -20 -10 -11 -26 -20 -35 -20 -9 0 -25 -9 -35 -20 -10 -11
-27 -22 -39 -26 -11 -3 -28 -13 -37 -20 -15 -13 -15 -18 3 -54 19 -37 19 -42
5 -64 -15 -22 -14 -25 4 -45 11 -11 17 -21 14 -21 -3 0 -1 -9 5 -20 16 -29 -2
-24 -35 10 -20 21 -38 30 -59 29 -35 -1 -111 -27 -83 -28 30 -1 14 -24 -36
-51 -27 -15 -47 -32 -47 -42 0 -19 -42 -37 -48 -19 -5 16 -22 14 -22 -4 0 -18
-16 -20 -26 -4 -4 7 -21 9 -44 5 -36 -6 -37 -5 -49 35 -7 23 -15 47 -18 55 -3
8 1 14 11 14 9 0 16 4 16 10 0 5 6 7 14 4 8 -3 17 -1 21 5 3 6 1 11 -4 11 -6
0 -11 5 -11 10 0 6 9 10 20 10 28 0 37 28 15 44 -12 9 -15 18 -10 27 7 12 6
12 -9 0 -9 -8 -24 -27 -32 -43 -8 -15 -23 -28 -33 -28 -15 0 -24 21 -48 119
l-30 119 33 53 c35 55 40 78 25 108 -8 15 -6 17 18 13 20 -3 38 4 62 25 19 15
43 33 54 39 10 6 30 31 43 55 14 24 56 95 94 157 49 78 69 118 65 133 -3 13 6
40 24 71 40 68 103 190 104 203 0 6 22 52 48 102 l47 93 0 137 c1 215 7 355
18 398 6 22 14 66 17 98 4 31 11 57 17 57 5 0 20 11 34 24 15 13 44 29 65 35
21 7 39 16 39 21 0 5 -14 5 -32 -1 -18 -5 -46 -9 -63 -9 -27 1 -28 2 -12 14 9
7 17 18 17 25 0 6 8 11 18 11 9 0 28 9 42 20 l25 19 -28 -5 c-32 -5 -67 10
-67 31 0 7 -6 15 -12 17 -7 3 -2 7 10 10 12 4 22 2 22 -4 0 -5 5 -6 10 -3 6 3
10 17 10 31 0 14 6 24 15 24 8 0 19 9 24 19 9 15 7 20 -9 24 -10 3 -21 0 -24
-7 -3 -8 -7 -7 -14 3 -8 11 -11 11 -18 0 -8 -13 -47 -39 -58 -39 -3 0 -6 8 -8
18 -5 19 24 66 62 99 l25 22 -41 1 c-40 0 -66 21 -44 35 4 3 8 20 7 38 -2 27
-6 32 -29 35 -29 3 -36 16 -17 27 5 4 9 19 7 33 -2 22 3 30 30 44 21 10 29 19
22 23 -19 12 11 25 38 18 27 -6 72 14 72 33 0 17 52 25 75 10 27 -17 132 -29
140 -16 9 14 43 12 48 -2 3 -10 7 -10 20 0 13 12 18 10 29 -7 15 -25 24 -26
32 -5 4 10 -3 26 -19 42 -14 14 -23 30 -20 36 3 6 8 19 11 29 4 9 15 17 25 17
11 0 27 4 37 9 9 6 29 12 45 16 15 3 27 12 27 20 0 8 13 15 33 18 17 2 38 5
45 5 6 1 12 -7 12 -18z m930 -1114 c0 -3 -4 -8 -10 -11 -5 -3 -10 -1 -10 4 0
6 5 11 10 11 6 0 10 -2 10 -4z m100 -17 c0 -6 7 -8 16 -5 12 5 15 2 9 -11 -15
-38 -12 -62 6 -68 20 -7 27 -55 9 -55 -5 0 -10 -7 -10 -15 0 -8 -4 -15 -10
-15 -5 0 -10 -7 -10 -15 0 -8 -5 -15 -11 -15 -8 0 -7 -5 2 -16 7 -8 21 -13 31
-11 14 4 22 -4 34 -34 18 -43 25 -47 44 -24 18 21 34 19 45 -7 6 -13 21 -24
33 -26 17 -3 23 -9 19 -22 -4 -15 3 -19 42 -23 25 -3 50 -2 54 3 10 9 65 -9
85 -27 8 -8 9 -14 2 -18 -8 -5 -7 -11 1 -21 6 -8 9 -23 6 -35 -3 -12 -1 -29 5
-39 26 -42 -11 -59 -131 -61 -100 -2 -116 -8 -114 -48 1 -25 -1 -31 -10 -22
-15 15 -50 15 -41 0 10 -16 -53 -69 -82 -69 -12 0 -26 -4 -29 -10 -11 -17 -41
-11 -63 13 -16 16 -31 22 -50 20 -19 -3 -35 4 -54 21 -15 15 -37 26 -49 26
-21 0 -21 1 -5 19 14 15 16 29 11 59 -3 22 -2 43 3 46 5 3 7 17 5 30 -4 20 0
26 21 32 27 6 33 18 16 29 -5 3 -7 12 -3 20 3 8 1 15 -4 15 -6 0 -10 12 -9 28
0 15 -3 37 -8 50 -5 15 -3 23 6 26 40 12 52 19 41 23 -8 3 -9 13 -3 34 5 16
10 33 11 37 1 4 4 13 6 20 3 7 -2 21 -12 32 -12 14 -15 27 -10 52 13 64 14 65
45 60 19 -3 32 1 35 9 6 17 75 24 75 8z m-187 -129 c-5 -20 -15 -25 -26 -14
-9 9 4 34 18 34 8 0 11 -8 8 -20z m5267 -70 c0 -5 -10 -10 -22 -9 -22 0 -22 1
-3 9 11 5 21 9 23 9 1 1 2 -3 2 -9z m1600 -25 c0 -8 -4 -15 -10 -15 -5 0 -10
7 -10 15 0 8 5 15 10 15 6 0 10 -7 10 -15z m266 -150 c0 -44 -17 -62 -29 -31
-5 12 -13 13 -37 6 -36 -10 -84 4 -77 23 2 6 17 11 32 10 16 -1 34 2 41 8 6 5
18 7 26 4 8 -3 21 1 28 10 7 8 13 15 15 15 1 0 2 -20 1 -45z m-149 -121 c-3
-3 -12 -4 -19 -1 -8 3 -5 6 6 6 11 1 17 -2 13 -5z m103 -154 c0 -5 -4 -10 -10
-10 -5 0 -10 5 -10 10 0 6 5 10 10 10 6 0 10 -4 10 -10z m-6325 -178 c5 -12
15 -22 22 -22 20 0 9 -70 -20 -127 -19 -36 -23 -53 -15 -61 6 -6 8 -19 4 -29
-10 -25 -8 -28 11 -28 11 0 22 -16 31 -45 8 -25 21 -49 28 -53 8 -4 14 -20 14
-34 0 -14 8 -32 18 -39 16 -12 15 -16 -11 -63 -16 -28 -23 -51 -18 -51 6 0 11
5 11 10 0 6 7 10 15 10 12 0 15 -12 12 -62 l-3 -63 -44 3 c-25 1 -55 8 -68 14
-14 8 -26 8 -30 3 -4 -6 -23 -10 -42 -11 -20 0 -51 -8 -69 -17 -19 -9 -41 -17
-51 -17 -9 0 -21 -5 -27 -11 -12 -12 -53 -3 -53 12 0 5 10 9 23 9 29 0 98 35
110 56 10 17 -8 44 -29 44 -7 0 -19 6 -26 13 -7 7 -35 23 -62 37 -26 14 -50
31 -53 38 -3 6 -15 12 -28 12 -13 0 -25 7 -29 15 -6 17 -42 20 -51 5 -12 -20
-35 -10 -35 15 0 30 -11 32 -35 5 -10 -11 -31 -20 -47 -20 -31 0 -36 11 -13
30 8 7 15 19 15 26 0 8 6 11 14 8 9 -3 20 3 28 15 7 12 22 21 34 21 20 0 44
35 44 65 0 8 5 15 10 15 6 0 10 12 11 28 0 15 3 21 6 15 7 -19 53 -16 53 2 0
22 61 74 87 75 17 0 24 9 32 36 11 40 35 63 67 64 11 0 29 9 39 20 10 11 23
20 30 20 7 0 20 9 30 20 23 25 47 22 60 -8z m-385 -202 c0 -5 -8 -10 -17 -10
-15 0 -16 2 -3 10 19 12 20 12 20 0z m5800 -364 c0 -8 -10 -16 -22 -18 -16 -2
-22 -9 -20 -20 2 -10 -1 -18 -6 -18 -14 0 -10 32 7 51 20 21 41 24 41 5z
m-3540 -46 c0 -5 -12 -10 -26 -10 -14 0 -23 4 -19 10 3 6 15 10 26 10 10 0 19
-4 19 -10z m3493 -59 c7 -33 20 -40 99 -48 54 -5 60 -4 82 20 17 19 39 28 75
33 28 4 54 11 57 15 10 16 24 9 24 -11 0 -13 -7 -20 -20 -20 -11 0 -20 -4 -20
-10 0 -5 9 -10 20 -10 24 0 43 -42 38 -82 -3 -20 1 -29 19 -37 13 -6 33 -11
43 -11 17 0 20 -7 20 -40 0 -33 3 -40 20 -40 46 0 6 -64 -64 -103 l-44 -25
-28 29 c-29 31 -59 38 -67 16 -3 -7 -23 -19 -46 -27 -47 -15 -51 -27 -17 -59
22 -21 31 -23 78 -17 29 3 58 3 64 -1 6 -5 15 -27 19 -50 5 -35 4 -43 -9 -43
-23 0 -31 -22 -13 -35 10 -7 17 -20 17 -29 0 -10 15 -23 35 -32 19 -8 35 -20
36 -27 0 -6 5 0 11 16 6 17 17 27 29 27 15 0 19 -6 17 -31 -2 -20 3 -34 15
-40 9 -6 17 -17 17 -24 0 -8 5 -15 11 -15 8 0 8 -5 -1 -15 -7 -8 -8 -15 -2
-15 5 0 12 -9 15 -21 3 -12 10 -18 16 -15 6 4 19 -2 30 -13 11 -11 31 -23 44
-26 21 -6 22 -10 17 -65 -3 -32 -9 -62 -13 -66 -4 -4 -2 -13 4 -21 7 -8 8 -13
1 -13 -5 0 -13 -20 -16 -45 -4 -24 -13 -48 -19 -52 -21 -13 -61 -2 -88 23 -23
22 -33 25 -79 21 -61 -5 -94 -35 -80 -71 10 -28 -2 -55 -39 -90 -29 -28 -32
-29 -69 -17 -22 7 -49 10 -61 6 -15 -4 -21 -2 -21 8 0 8 -6 20 -14 27 -8 6
-12 18 -9 25 3 9 -5 19 -21 26 -14 7 -26 18 -26 26 0 7 -4 13 -10 13 -5 0 -10
5 -10 12 0 6 -7 20 -17 30 -15 17 -15 19 1 37 13 14 16 27 10 43 -14 43 -11
93 7 116 15 19 17 35 12 90 -6 67 -6 67 14 49 19 -16 21 -16 27 -2 10 26 7 93
-4 100 -6 4 -17 2 -24 -4 -20 -17 -37 9 -34 50 2 22 10 38 23 45 12 6 19 18
17 30 -2 10 -3 40 -2 66 1 37 -3 50 -19 59 -14 10 -18 21 -15 43 3 20 -3 47
-18 76 -19 37 -28 44 -47 42 -17 -3 -21 0 -15 10 6 11 5 11 -8 0 -13 -10 -17
-10 -21 2 -3 8 1 17 9 20 18 7 18 30 0 45 -16 13 -10 55 10 72 16 13 19 45 4
54 -6 4 -8 11 -5 16 11 17 22 9 28 -20z m2174 7 c-3 -8 -6 -5 -6 6 -1 11 2 17
5 13 3 -3 4 -12 1 -19z m-6597 -95 c0 -7 8 -13 18 -13 23 0 56 -35 48 -49 -11
-17 -74 -24 -104 -12 -20 9 -31 23 -39 51 l-10 39 29 -6 c24 -5 28 -2 28 18 1
23 1 23 15 5 8 -11 15 -26 15 -33z m-3802 -138 c-3 -3 -9 2 -12 12 -6 14 -5
15 5 6 7 -7 10 -15 7 -18z m6281 -198 c12 -9 13 -9 7 1 -4 7 -2 12 8 12 8 0
18 -9 21 -20 3 -11 13 -20 21 -20 8 0 15 -6 16 -12 0 -7 2 -17 2 -23 1 -5 5
-15 9 -22 7 -11 -8 -63 -18 -63 -3 0 -35 20 -72 45 -47 32 -75 45 -100 45 -29
0 -34 3 -29 17 4 9 1 20 -5 24 -9 5 -8 11 2 22 11 12 27 15 69 11 30 -3 61
-11 69 -17z m-471 -38 c-26 -15 -22 -29 10 -30 16 -1 20 -3 10 -6 -10 -2 -18
-13 -18 -23 0 -33 79 -67 95 -40 18 29 65 -16 58 -54 -3 -14 -10 -26 -17 -26
-11 0 -31 -29 -76 -110 -17 -31 -39 -52 -69 -68 -50 -26 -67 -23 -81 13 -8 21
-16 25 -48 25 -30 0 -41 5 -49 23 -19 39 -22 54 -11 65 8 8 4 14 -15 23 -31
14 -77 4 -77 -17 0 -9 -7 -14 -17 -12 -10 2 -18 10 -18 18 0 8 -8 16 -18 18
-16 3 -63 40 -54 43 1 0 13 2 27 5 14 2 36 13 50 24 14 11 35 24 47 30 12 5
42 25 68 44 26 20 57 36 69 36 12 0 31 7 42 15 10 8 39 14 64 14 35 0 41 -2
28 -10z m-774 -412 c7 -7 15 -19 18 -27 5 -17 -44 -68 -79 -81 -13 -5 -23 -15
-23 -24 0 -19 -9 -19 -34 0 -12 9 -32 13 -50 10 -19 -3 -26 -2 -18 3 7 5 14
19 15 30 1 16 8 22 24 22 16 0 21 5 18 20 -5 23 2 28 63 45 26 7 48 13 50 14
2 0 9 -5 16 -12z m666 -47 c0 -5 -4 -10 -10 -10 -5 0 -10 5 -10 10 0 6 5 10
10 10 6 0 10 -4 10 -10z m2530 -145 c0 -30 -25 -34 -33 -6 -5 22 0 31 20 31 7
0 13 -11 13 -25z m-3263 -30 c3 -9 -2 -22 -13 -30 -25 -19 -35 -19 -29 0 3 8
7 22 10 30 6 20 24 19 32 0z m3332 -9 c14 -17 4 -66 -13 -66 -14 0 -36 41 -36
65 0 19 34 19 49 1z m-3288 -34 c-7 -2 -18 1 -23 6 -8 8 -4 9 13 5 13 -4 18
-8 10 -11z m-3931 -662 c0 -5 -2 -10 -4 -10 -3 0 -8 5 -11 10 -3 6 -1 10 4 10
6 0 11 -4 11 -10z m390 -471 c0 -14 -17 -10 -23 5 -4 10 -1 13 9 9 7 -3 14 -9
14 -14z"/>
<path d="M6138 11423 c6 -2 18 -2 25 0 6 3 1 5 -13 5 -14 0 -19 -2 -12 -5z"/>
<path d="M6206 11391 c-3 -5 1 -12 10 -15 25 -10 34 -7 28 9 -7 17 -30 20 -38
6z"/>
<path d="M7581 10908 c-11 -30 4 -48 39 -48 22 0 27 4 25 23 -1 12 -3 28 -4
35 -2 22 -51 14 -60 -10z"/>
<path d="M8165 10531 c3 -17 -1 -21 -26 -21 -26 0 -31 -5 -28 -27 0 -3 -6 -10
-15 -15 -8 -5 -13 -14 -10 -22 12 -30 -90 -68 -110 -40 -6 8 -34 17 -62 20
-45 6 -54 3 -78 -19 -24 -23 -25 -26 -11 -41 9 -9 21 -16 26 -16 16 0 10 -18
-16 -46 -14 -15 -25 -34 -25 -42 0 -19 51 -66 59 -54 3 5 28 12 54 16 39 6 53
4 68 -10 15 -13 22 -15 31 -6 7 7 25 12 40 12 23 0 28 4 28 25 0 16 6 25 16
25 11 0 13 6 9 19 -3 10 0 25 8 32 7 8 22 33 33 56 10 23 25 43 32 43 6 0 12
6 12 14 0 8 6 16 13 19 10 4 12 17 8 49 -5 38 -9 43 -33 46 -23 3 -26 0 -23
-17z"/>
<path d="M7839 10091 c-12 -20 -13 -33 -6 -49 8 -18 6 -29 -12 -53 -13 -17
-20 -37 -17 -45 3 -8 1 -14 -4 -14 -17 0 -38 -56 -28 -75 6 -9 8 -30 6 -46 -3
-16 -1 -29 2 -29 4 0 8 -11 8 -25 0 -17 -6 -25 -19 -25 -10 0 -20 -8 -22 -17
-17 -60 -16 -71 3 -88 32 -29 24 -43 -27 -51 -27 -4 -42 -9 -35 -11 17 -6 15
-33 -3 -33 -10 0 -15 -7 -13 -17 2 -12 -4 -19 -17 -21 -11 -1 -25 -14 -31 -27
-10 -20 -8 -27 7 -41 41 -37 60 -81 55 -126 -3 -24 -5 -49 -5 -55 -1 -7 -10
-13 -20 -13 -36 0 -48 -10 -43 -36 2 -13 11 -24 18 -24 8 0 14 -6 14 -14 0 -8
7 -17 16 -20 8 -3 12 -11 8 -17 -4 -8 -3 -9 5 -5 6 4 14 0 18 -11 4 -10 13
-24 20 -31 17 -17 17 -31 -1 -38 -20 -8 -8 -54 15 -54 11 0 19 -6 19 -14 0 -9
12 -16 28 -18 16 -2 31 -12 37 -25 9 -22 17 -23 78 -6 38 10 33 -69 -5 -82
-20 -6 -21 -8 -5 -12 12 -3 16 -11 12 -24 -5 -14 -2 -19 10 -19 13 0 16 -6 12
-22 -10 -36 19 -58 72 -58 25 1 57 7 71 15 14 8 39 14 57 15 20 0 37 7 45 19
8 11 26 23 40 26 14 4 35 18 47 31 19 22 27 24 68 18 33 -5 47 -3 53 7 5 7 26
13 47 13 39 0 57 12 45 30 -11 19 -13 85 -2 106 14 26 2 49 -46 85 -32 25 -38
26 -46 11 -12 -22 -31 -20 -46 5 -11 17 -20 20 -48 16 -44 -7 -64 0 -64 24 0
24 -45 26 -54 3 -4 -10 -12 -14 -23 -10 -9 4 -19 2 -23 -3 -9 -16 -50 -1 -50
18 0 9 -14 28 -30 43 l-30 27 20 36 c17 30 18 36 5 41 -8 4 -15 11 -15 17 0
18 -52 67 -71 67 -11 0 -16 7 -15 17 2 13 21 22 72 33 58 13 70 19 72 38 2 12
-1 22 -7 22 -17 0 -13 27 5 34 9 3 12 11 8 18 -9 14 -9 56 -1 78 4 8 8 35 10
58 2 24 10 48 18 52 7 5 10 12 7 16 -4 4 -3 15 2 25 7 11 7 20 0 24 -5 3 -7
12 -3 20 3 9 -1 15 -10 15 -10 0 -13 9 -11 30 2 17 -1 30 -6 30 -6 0 -6 9 0
24 10 26 -1 78 -21 102 -7 8 -21 11 -34 8 -32 -8 -40 7 -43 74 -2 39 -25 51
-52 27 -14 -12 -24 -15 -32 -8 -29 22 -44 20 -59 -6z"/>
<path d="M5820 9919 c0 -8 -43 -29 -84 -43 -10 -4 -24 -2 -30 3 -23 19 -206
36 -206 19 0 -5 -6 -8 -12 -8 -7 0 -22 -7 -32 -15 -18 -13 -18 -16 -4 -32 24
-28 16 -83 -16 -108 -25 -20 -26 -22 -9 -37 18 -15 55 -16 129 -3 24 4 44 3
48 -3 8 -14 56 -2 56 14 0 8 4 14 9 14 15 0 26 -23 22 -48 -2 -17 3 -25 18
-29 13 -3 21 -13 21 -25 0 -18 5 -20 32 -14 17 3 39 13 48 21 21 19 50 19 74
2 14 -10 17 -23 14 -51 -3 -31 -1 -37 18 -42 13 -4 24 -15 26 -27 2 -18 10
-22 37 -22 26 0 36 -5 42 -22 5 -13 15 -23 24 -23 12 0 15 9 13 42 -3 36 0 43
17 46 37 7 61 38 59 79 -1 20 -9 42 -17 48 -9 6 -19 24 -23 41 -4 16 -14 37
-22 47 -10 11 -11 17 -4 17 20 0 13 20 -15 49 -16 15 -28 34 -28 42 0 9 -13
15 -37 17 -36 3 -43 10 -39 40 1 6 -8 12 -21 13 -13 0 -42 1 -65 3 -24 1 -43
-1 -43 -5z"/>
<path d="M6790 9840 c-8 -5 -36 -10 -62 -10 -39 0 -50 -5 -72 -31 -19 -22 -24
-35 -17 -47 16 -30 49 -51 88 -58 21 -3 43 -13 50 -21 20 -26 34 -4 32 51 -1
28 2 59 6 69 11 27 -6 59 -25 47z"/>
<path d="M4966 9815 c4 -8 8 -15 10 -15 2 0 4 7 4 15 0 8 -4 15 -10 15 -5 0
-7 -7 -4 -15z"/>
<path d="M6976 9435 c-14 -7 -21 -21 -21 -39 0 -17 -9 -35 -25 -48 -16 -14
-21 -22 -13 -25 15 -5 63 -97 63 -120 0 -8 -14 -20 -30 -26 -27 -10 -30 -15
-25 -43 5 -35 -6 -44 -51 -44 -28 0 -32 -21 -8 -44 8 -9 17 -32 19 -51 3 -31
0 -35 -21 -35 -17 0 -22 -4 -18 -15 7 -18 -17 -20 -35 -2 -11 10 -14 10 -18 0
-7 -20 -23 -15 -52 15 -33 36 -119 72 -155 65 -33 -7 -46 -32 -22 -45 9 -5 14
-13 11 -19 -4 -5 -1 -9 4 -9 6 0 11 -9 11 -20 0 -15 -7 -20 -29 -20 -31 0 -45
-18 -30 -41 18 -29 9 -38 -43 -41 -36 -2 -52 -7 -51 -15 4 -20 -21 -15 -51 8
-29 23 -97 30 -103 12 -3 -7 -11 -9 -19 -6 -8 3 -27 0 -43 -7 -22 -9 -27 -16
-23 -32 2 -11 0 -23 -5 -27 -5 -3 -15 -15 -21 -26 -8 -15 -21 -20 -52 -20
l-42 0 -27 -75 c-27 -71 -30 -75 -57 -73 -20 2 -25 0 -15 -6 10 -7 12 -20 8
-48 -6 -33 -3 -43 16 -59 13 -11 31 -23 40 -27 10 -4 20 -15 23 -24 3 -10 10
-26 15 -35 5 -10 9 -25 9 -33 0 -9 9 -15 25 -15 14 0 25 5 25 11 0 8 4 8 14 0
23 -19 28 -60 12 -92 -11 -23 -12 -31 -2 -36 11 -7 24 -31 31 -55 2 -5 4 -9 5
-10 1 -2 3 -14 4 -28 1 -14 5 -31 9 -37 5 -9 2 -13 -8 -13 -20 0 -14 -24 6
-26 8 -1 18 -2 23 -3 5 0 3 -8 -4 -16 -17 -20 -4 -35 31 -35 16 0 29 -4 29
-10 0 -5 7 -10 15 -10 20 0 32 -26 27 -61 -3 -20 -10 -29 -21 -28 -17 2 -72
-18 -81 -29 -12 -17 -49 -30 -69 -25 -11 3 -21 1 -21 -5 0 -10 -19 -18 -74
-32 -36 -10 -81 7 -66 25 7 8 3 15 -15 23 -15 7 -25 20 -25 33 0 19 -5 21 -52
17 -50 -3 -52 -2 -53 22 0 35 -49 59 -74 36 -10 -9 -23 -16 -29 -16 -7 0 -12
-7 -12 -15 0 -30 -30 -75 -49 -75 -11 0 -33 -11 -49 -25 -22 -18 -28 -31 -24
-50 3 -17 0 -25 -9 -25 -8 0 -20 -9 -27 -20 -8 -14 -21 -20 -38 -18 -19 2 -32
-5 -48 -25 -20 -27 -20 -29 -3 -38 21 -12 22 -38 3 -65 -8 -10 -13 -28 -10
-40 3 -12 -1 -26 -10 -34 -15 -11 -15 -14 1 -26 22 -17 90 -18 95 -2 2 6 9 8
16 4 9 -5 9 -11 0 -26 -9 -14 -9 -22 3 -36 8 -9 14 -29 14 -43 0 -24 4 -26 45
-27 25 -1 53 4 64 10 14 8 20 8 23 -1 3 -7 20 -13 38 -13 39 0 52 -14 35 -35
-10 -12 -9 -15 7 -15 10 0 24 5 31 12 10 10 18 6 40 -15 24 -26 25 -29 10 -40
-20 -16 -23 -32 -13 -74 5 -21 14 -33 24 -33 12 0 13 -2 3 -8 -17 -12 31 -64
55 -60 11 2 18 -3 18 -12 0 -25 24 -33 58 -19 23 10 32 10 35 1 2 -7 11 -12
19 -12 9 0 13 6 10 15 -7 17 9 30 18 15 4 -6 13 -7 23 -1 25 13 93 23 91 14
-4 -22 3 -33 21 -33 11 0 20 -3 20 -8 0 -4 -9 -13 -20 -20 -23 -14 -26 -32 -6
-32 8 0 16 -6 19 -12 3 -10 9 -10 26 0 30 17 42 15 81 -16 70 -55 122 -113
117 -133 -3 -10 -1 -19 4 -19 5 0 9 -11 9 -26 0 -14 12 -41 28 -60 20 -26 35
-34 59 -34 41 0 63 -9 63 -26 0 -22 60 -18 62 4 0 9 2 22 3 27 2 6 3 15 4 20
1 6 19 9 44 7 23 -3 39 -1 35 3 -11 12 11 35 33 35 11 0 19 5 19 10 0 6 12 21
27 34 l26 23 -42 23 c-33 19 -38 26 -26 32 8 5 15 16 15 23 0 20 9 19 45 -5
36 -24 85 -27 85 -5 0 19 21 19 46 0 24 -18 68 -19 83 -2 14 18 23 108 11 126
-6 10 -1 20 15 32 24 20 24 55 -1 94 -7 11 -15 39 -19 61 -5 36 -3 42 15 47
11 3 20 12 20 20 0 9 9 19 20 22 11 3 20 11 20 16 0 5 13 9 29 9 20 0 36 9 49
25 11 14 25 25 31 25 6 0 11 6 11 14 0 8 7 16 15 20 8 3 14 9 13 13 -5 18 15
54 27 49 16 -6 42 51 29 64 -5 4 -18 10 -29 12 -14 2 -20 11 -20 31 0 20 -8
31 -29 42 -32 17 -56 19 -56 6 0 -5 -12 -12 -26 -15 -19 -5 -30 -2 -41 11 -10
13 -16 15 -19 6 -8 -17 -19 -16 -39 4 -11 10 -19 12 -23 6 -4 -6 -26 -10 -49
-10 -35 0 -43 3 -43 18 0 11 -3 19 -7 20 -96 10 -141 8 -147 -6 -3 -8 -17 -15
-32 -15 -15 0 -32 -7 -39 -17 -14 -19 -42 -12 -52 14 -10 28 -35 42 -70 43
-26 0 -33 4 -33 19 0 12 -11 23 -30 30 -22 7 -30 16 -30 33 0 13 -4 29 -9 37
-6 9 -4 26 6 46 14 30 14 33 -11 70 -14 21 -26 41 -26 44 0 4 16 13 35 20 19
7 35 19 35 26 0 8 7 18 16 23 13 7 15 17 10 38 -14 59 -13 69 12 66 13 -2 25
3 28 12 3 9 12 16 20 16 8 0 14 5 14 11 0 6 6 9 14 6 8 -3 17 0 20 8 8 22 48
7 41 -16 -7 -22 31 -69 56 -69 10 0 19 -4 21 -10 2 -5 33 -15 71 -22 41 -8 67
-18 67 -25 0 -8 12 -13 30 -13 20 0 33 -6 37 -17 10 -27 23 -32 53 -21 33 11
41 40 31 116 l-7 52 33 9 c45 13 63 34 66 77 2 38 -14 54 -81 84 -13 5 -20 14
-17 20 3 5 -3 31 -14 56 -12 26 -21 48 -21 50 0 9 57 3 66 -6 13 -13 104 19
112 40 3 8 10 18 16 22 8 5 7 11 -2 20 -6 6 -12 22 -12 35 0 13 -6 23 -12 23
-7 0 -2 7 10 16 15 11 22 24 20 42 -3 22 2 28 32 38 41 14 50 38 21 56 -15 9
-21 23 -21 48 0 20 -5 41 -11 47 -7 7 -6 15 5 26 9 9 16 19 16 24 0 12 54 117
64 124 5 4 5 12 1 19 -4 7 1 13 14 17 25 6 29 44 6 63 -11 9 -12 16 -4 26 8
10 5 19 -10 35 -12 13 -21 17 -21 11 0 -8 -20 -12 -60 -12 -53 0 -60 2 -60 20
0 11 -5 20 -11 20 -5 0 -7 4 -4 10 7 12 -40 102 -49 93 -13 -13 -44 29 -40 53
5 28 -29 84 -52 84 -8 0 -14 3 -14 8 0 11 -121 8 -144 -3z"/>
<path d="M8770 8841 c0 -17 15 -19 35 -5 18 13 18 14 -8 14 -15 0 -27 -4 -27
-9z"/>
<path d="M10010 8819 c0 -7 -10 -9 -24 -5 -28 7 -39 -17 -22 -48 8 -14 8 -20
-1 -23 -7 -3 -13 -9 -13 -14 0 -8 -20 -35 -48 -65 -7 -8 -22 -14 -32 -14 -17
0 -18 4 -10 26 15 38 13 42 -22 40 -27 -1 -32 2 -30 17 2 10 -2 25 -9 33 -15
19 -79 19 -79 0 0 -8 -6 -16 -14 -19 -10 -4 -12 -16 -6 -47 6 -35 4 -45 -15
-66 -12 -13 -32 -24 -44 -24 -17 0 -21 -6 -21 -29 0 -45 -10 -61 -36 -61 -21
0 -23 -3 -14 -19 7 -14 6 -29 -5 -55 -16 -37 -28 -45 -41 -25 -9 15 -94 5
-104 -11 -4 -7 -14 -10 -21 -8 -8 3 -21 -4 -30 -15 -12 -15 -22 -18 -42 -13
-32 8 -35 22 -7 31 11 3 20 11 20 17 0 5 -7 7 -16 4 -10 -4 -25 1 -35 10 -10
9 -25 14 -33 11 -9 -4 -18 -2 -21 3 -4 6 -15 10 -26 10 -11 0 -19 7 -20 18 0
11 -4 7 -11 -10 -6 -17 -17 -28 -29 -28 -16 0 -17 -4 -9 -25 6 -17 6 -34 -2
-52 -6 -16 -10 -34 -9 -40 1 -7 -4 -13 -11 -13 -9 0 -12 -14 -10 -50 3 -40 7
-50 22 -50 10 0 20 6 23 14 5 11 22 13 86 9 71 -5 81 -4 81 11 0 19 4 20 31 6
14 -8 18 -17 13 -34 -3 -15 1 -29 12 -40 13 -14 15 -28 10 -77 -6 -47 -4 -66
9 -85 17 -27 45 -32 45 -9 0 8 4 15 8 15 16 0 32 65 24 95 -14 51 -6 65 38 62
37 -2 39 -4 38 -33 -2 -48 29 -83 75 -84 26 0 37 4 37 15 0 8 9 15 21 15 11 0
29 5 40 11 24 12 49 -3 49 -31 0 -21 31 -50 53 -50 25 0 32 22 12 36 -16 12
-17 18 -7 40 14 30 8 44 -19 44 -25 0 -26 56 0 87 23 28 77 44 68 20 -6 -17
11 -27 47 -27 12 0 27 -5 33 -11 9 -9 14 -5 19 17 5 18 3 29 -5 32 -6 2 -18
11 -27 19 -12 12 -12 18 -3 23 6 4 8 13 5 19 -4 6 -2 11 4 11 7 0 10 6 7 13
-9 23 17 44 63 50 46 7 77 -3 66 -21 -7 -12 27 -22 81 -22 41 0 43 1 54 43 7
23 19 49 26 58 12 14 12 17 -1 22 -9 4 -12 14 -9 26 3 12 1 27 -4 34 -17 21
-32 76 -23 82 11 7 0 48 -17 58 -8 5 -11 17 -7 33 3 13 2 24 -4 24 -5 0 -9 8
-8 17 0 9 -10 23 -24 30 -14 7 -19 13 -12 13 6 0 12 4 12 10 0 5 -13 7 -30 4
-19 -4 -38 -1 -55 10 -28 19 -55 21 -55 5z"/>
<path d="M8724 7870 c-12 -5 -25 -13 -29 -19 -3 -6 -28 -11 -56 -11 -27 0 -49
-4 -49 -10 0 -17 -48 -11 -60 8 -9 16 -11 16 -20 0 -6 -10 -29 -21 -50 -24
-44 -7 -51 -22 -36 -71 6 -22 18 -35 38 -42 25 -9 28 -15 28 -51 0 -23 6 -47
13 -54 17 -18 97 -17 104 0 3 8 18 14 33 14 15 0 34 7 41 16 11 13 25 15 75
10 72 -7 137 13 132 42 -1 9 1 23 6 31 6 9 4 18 -7 26 -12 9 -17 27 -17 64 0
49 -1 51 -27 51 -16 0 -37 7 -47 15 -22 17 -41 18 -72 5z"/>
<path d="M8153 7374 c3 -3 2 -17 -3 -30 -8 -21 -7 -24 14 -24 18 0 25 -7 30
-31 11 -58 10 -59 -48 -59 -30 0 -58 -4 -61 -10 -3 -5 -19 -10 -34 -10 -21 0
-28 -5 -27 -17 1 -13 -7 -19 -26 -21 -20 -2 -30 -10 -34 -27 -4 -18 -15 -26
-40 -31 -24 -4 -39 -15 -49 -35 -9 -16 -11 -30 -5 -34 5 -3 6 -13 3 -21 -4
-12 -14 -14 -41 -9 -29 5 -34 4 -29 -9 4 -10 1 -16 -8 -16 -9 0 -12 -6 -8 -17
8 -26 33 -43 61 -43 13 0 21 -4 17 -9 -3 -5 2 -16 10 -24 19 -19 19 -44 1 -62
-10 -10 -16 -11 -25 -2 -8 8 -11 7 -11 -5 0 -9 -9 -20 -20 -23 -22 -7 -27 -31
-8 -37 10 -4 10 -13 1 -40 -9 -32 -9 -37 8 -41 20 -5 26 -32 9 -42 -17 -10
-11 -25 9 -25 11 0 29 -13 41 -30 13 -18 26 -27 35 -23 9 3 22 0 29 -6 11 -9
16 -9 21 -1 5 8 16 3 34 -14 28 -26 28 -26 46 -6 10 11 27 20 37 20 10 0 21 7
24 15 5 13 10 12 34 -5 34 -24 46 -25 58 -4 6 12 18 15 36 12 15 -3 29 -1 32
3 3 5 16 6 30 3 21 -5 24 -3 24 20 0 21 5 26 25 26 14 0 25 4 25 8 0 5 15 6
33 4 l32 -5 -42 44 c-24 23 -43 51 -43 60 0 10 -5 21 -10 24 -16 10 -1 77 21
97 10 9 19 21 19 26 0 6 9 14 20 17 11 3 20 15 20 25 0 10 5 20 11 22 6 2 5
14 -5 33 -14 27 -14 31 2 50 9 11 21 23 25 26 5 3 7 15 5 25 -2 13 4 20 20 22
18 3 22 8 16 20 -4 9 -8 31 -8 47 -1 24 -6 31 -26 33 -14 2 -39 10 -56 19 -24
12 -30 21 -26 38 2 15 -4 31 -17 44 -12 12 -21 27 -21 35 0 7 -6 18 -12 24
-15 12 -68 4 -68 -9 0 -5 -11 -9 -25 -9 -16 0 -25 6 -25 15 0 10 -10 15 -32
15 -17 0 -29 -3 -25 -6z"/>
<path d="M10843 6663 c-7 -2 -13 -11 -13 -20 0 -21 44 -13 48 10 3 17 -10 21
-35 10z"/>
<path d="M5920 6456 c0 -8 7 -16 15 -20 25 -9 17 -26 -14 -26 -32 0 -49 -25
-24 -35 12 -4 13 -9 5 -17 -9 -9 -16 -8 -29 4 -49 43 -89 27 -100 -37 -5 -31
-9 -35 -34 -35 -19 0 -29 -5 -29 -15 0 -8 -4 -15 -10 -15 -5 0 -10 -11 -10
-25 0 -29 -11 -31 -45 -9 -24 16 -25 15 -35 -11 -5 -14 -10 -37 -10 -50 0 -23
-2 -24 -52 -18 -29 3 -60 9 -69 14 -8 4 -22 3 -30 -2 -20 -13 -29 -11 -29 6 0
12 -14 15 -70 15 -67 0 -71 1 -88 30 -34 56 -60 68 -133 64 l-67 -4 -33 45
c-19 24 -41 45 -50 45 -16 0 -39 -38 -39 -65 0 -8 -7 -15 -15 -15 -8 0 -16 -9
-16 -20 -2 -23 -3 -29 -13 -52 -13 -29 -12 -139 1 -150 14 -12 7 -35 -21 -67
-19 -22 -19 -23 -3 -18 10 4 25 7 32 7 8 0 21 12 29 28 l15 27 1 -32 c0 -17
-4 -35 -10 -38 -5 -3 -10 -25 -10 -48 0 -46 -17 -83 -27 -59 -4 9 -11 5 -22
-15 -17 -27 -17 -28 5 -45 12 -10 31 -18 42 -18 31 0 85 -85 80 -126 -3 -29 0
-35 24 -45 16 -7 28 -19 28 -30 0 -22 36 -49 66 -49 23 0 29 -15 42 -100 6
-34 11 -45 25 -44 9 1 17 -2 17 -7 0 -12 43 -12 56 0 15 14 69 20 84 10 8 -5
11 -9 6 -9 -5 0 -3 -6 3 -14 6 -8 11 -18 10 -22 -4 -21 2 -34 15 -34 8 0 16 6
19 13 3 9 8 9 21 -2 9 -8 19 -11 23 -8 3 4 12 2 18 -3 8 -7 40 -6 96 2 64 9
90 18 111 36 15 14 25 29 22 33 -3 5 9 6 27 2 19 -4 30 -2 26 3 -13 22 13 39
60 39 40 0 48 3 45 18 -2 10 3 17 13 17 17 0 19 9 6 29 -10 15 5 71 19 71 4 0
13 -7 20 -15 19 -23 38 -18 55 15 14 26 14 30 -2 38 -14 9 -14 10 5 16 12 4
22 14 22 22 0 8 7 14 15 14 8 0 15 5 15 10 0 6 -6 10 -12 10 -10 0 -10 2 0 9
8 4 13 10 11 12 -1 2 4 21 10 42 9 25 10 42 4 48 -6 6 -8 21 -5 35 3 20 10 24
37 24 27 0 34 4 37 25 3 14 1 25 -3 25 -5 0 -9 7 -9 15 0 8 -7 15 -15 15 -10
0 -15 10 -15 33 0 46 9 54 68 62 31 4 56 13 59 21 3 9 20 14 44 14 21 0 39 4
39 9 0 17 -43 41 -71 41 -20 0 -31 8 -42 29 -17 34 -13 41 20 41 16 0 23 6 23
19 0 11 -5 23 -11 27 -7 4 -7 9 -1 13 14 9 25 51 13 51 -6 0 -8 7 -4 15 7 19
-23 55 -46 55 -27 1 -51 26 -51 53 0 27 -16 45 -22 26 -3 -8 -14 -6 -37 5 -32
17 -33 17 -38 -3 -7 -26 -33 -28 -33 -3 0 21 -18 42 -37 42 -7 0 -13 -6 -13
-14z"/>
<path d="M4053 6411 c-10 -16 -8 -22 10 -37 49 -42 117 -68 117 -45 0 5 -7 12
-16 15 -13 5 -14 9 -4 21 14 17 5 35 -19 35 -10 0 -24 7 -31 15 -17 21 -43 19
-57 -4z"/>
</g>
</svg>
